<?xml version="1.0" standalone="no"?>
<!DOCTYPE svg PUBLIC "-//W3C//DTD SVG 20010904//EN"
 "http://www.w3.org/TR/2001/REC-SVG-20010904/DTD/svg10.dtd">
<svg version="1.0" xmlns="http://www.w3.org/2000/svg"
 width="372.000000pt" height="135.000000pt" viewBox="0 0 372.000000 135.000000"
 preserveAspectRatio="xMidYMid meet">

<g transform="translate(0.000000,135.000000) scale(0.100000,-0.100000)"
fill="#000000" stroke="none">
<path d="M765 1150 c-11 -5 -36 -9 -56 -9 -44 -1 -53 -9 -35 -30 12 -14 8 -37
-33 -179 -26 -89 -52 -167 -59 -174 -22 -22 -13 -28 38 -28 53 0 60 5 33 25
-15 11 -15 18 -4 69 l12 56 54 0 54 0 7 -57 c5 -46 4 -58 -10 -68 -9 -7 -16
-15 -16 -17 0 -3 34 -6 75 -6 41 0 75 4 75 8 0 5 -5 10 -10 12 -16 5 -102 349
-96 380 6 30 3 32 -29 18z m-27 -141 c20 -83 18 -89 -28 -89 -22 0 -40 1 -40
3 0 4 29 104 35 125 9 25 22 10 33 -39z"/>
<path d="M1035 1152 c-39 -9 -78 -46 -101 -96 -48 -103 -25 -256 46 -308 62
-45 150 -27 191 38 26 43 17 61 -18 34 -50 -39 -117 -20 -150 43 -22 43 -22
161 0 204 32 61 90 71 131 22 14 -17 26 -35 26 -40 0 -5 5 -9 11 -9 10 0 6 54
-7 100 -4 15 -83 22 -129 12z"/>
<path d="M2084 1141 c-63 -29 -89 -90 -89 -206 0 -77 4 -96 25 -135 48 -86
140 -102 206 -36 41 41 57 100 52 196 -7 151 -90 229 -194 181z m93 -58 c21
-48 23 -231 5 -285 -14 -40 -44 -57 -67 -38 -38 32 -47 281 -11 335 24 37 54
32 73 -12z"/>
<path d="M2316 1147 c-3 -6 -9 -27 -15 -46 -15 -46 -7 -50 28 -12 16 17 38 31
50 31 21 0 21 -4 21 -180 0 -151 -2 -182 -15 -186 -35 -14 -10 -24 55 -24 39
0 70 3 70 6 0 3 -7 12 -15 21 -13 12 -15 44 -13 186 3 170 3 172 25 175 16 2
33 -7 53 -29 16 -18 32 -31 34 -28 3 3 -3 26 -12 52 -16 46 -18 47 -47 40 -38
-10 -140 -10 -183 -1 -23 5 -34 4 -36 -5z"/>
<path d="M1215 1142 c-2 -2 6 -13 16 -23 19 -19 20 -32 17 -189 -3 -155 -5
-170 -23 -185 -19 -15 -15 -15 50 -10 39 3 94 2 122 -3 l53 -9 25 43 c34 57
32 62 -10 25 -26 -23 -45 -31 -73 -31 -56 0 -62 12 -62 113 l0 90 50 -5 c29
-3 59 -13 70 -23 30 -27 32 -15 8 35 -12 24 -24 38 -26 32 -2 -7 -24 -12 -53
-12 l-49 0 0 60 0 60 39 0 c24 0 48 -8 65 -21 36 -28 42 -19 17 22 l-21 34
-106 0 c-58 0 -107 -1 -109 -3z"/>
<path d="M1640 1139 c0 -4 7 -9 15 -13 13 -4 15 -35 15 -186 0 -151 -2 -182
-15 -186 -35 -14 -10 -24 55 -24 65 0 90 10 55 24 -12 4 -15 25 -15 101 l0 95
50 0 50 0 0 -95 c0 -76 -3 -97 -15 -101 -35 -14 -10 -24 55 -24 65 0 90 10 55
24 -13 4 -15 35 -15 186 0 151 2 182 15 186 32 13 12 19 -55 19 -38 0 -70 -1
-70 -3 0 -2 7 -10 15 -18 10 -10 15 -35 15 -75 l0 -59 -50 0 -50 0 0 65 c0 49
4 67 15 71 32 13 12 19 -55 19 -38 0 -70 -3 -70 -6z"/>
<path d="M2614 1141 c-2 -2 4 -10 14 -17 15 -11 17 -33 17 -188 0 -163 -1
-176 -20 -191 -19 -15 -15 -15 50 -10 39 3 94 2 122 -3 l53 -9 25 43 c34 57
32 62 -10 25 -26 -23 -45 -31 -73 -31 -62 0 -67 9 -67 107 l0 88 52 0 c34 -1
58 -7 71 -18 30 -28 33 -20 10 28 -15 30 -25 42 -32 35 -5 -5 -32 -10 -58 -10
l-49 0 3 58 3 57 39 3 c28 2 47 -3 68 -18 39 -28 45 -20 17 22 l-22 34 -104 0
c-58 -1 -106 -3 -109 -5z"/>
<path d="M2975 1140 c-42 -3 -63 -8 -52 -12 15 -7 17 -25 17 -188 0 -151 -2
-182 -15 -186 -35 -14 -9 -22 73 -22 49 0 97 -2 108 -6 15 -4 24 4 45 44 27
51 24 79 -4 36 -22 -33 -71 -52 -102 -38 l-25 12 0 164 c0 138 3 167 16 181 9
9 15 17 13 18 -2 1 -35 0 -74 -3z"/>
<path d="M2775 532 c-69 -17 -74 -20 -55 -32 11 -7 5 -38 -35 -180 -27 -95
-55 -174 -62 -177 -31 -12 -9 -23 45 -23 52 1 55 2 38 15 -16 12 -18 23 -13
65 3 28 9 55 12 60 3 6 28 10 55 10 49 0 49 0 55 -37 4 -21 9 -46 11 -55 3 -9
-5 -26 -17 -37 l-23 -21 84 0 c81 0 83 1 66 19 -26 28 -110 362 -97 383 15 24
4 26 -64 10z m4 -119 c6 -21 12 -54 13 -73 3 -32 0 -35 -26 -38 -45 -5 -51 9
-31 82 10 36 22 66 26 66 5 0 13 -17 18 -37z"/>
<path d="M582 533 c-83 -3 -91 -5 -77 -19 12 -13 15 -46 15 -189 0 -155 -2
-175 -17 -184 -10 -5 -16 -12 -13 -14 3 -3 59 -7 124 -8 97 -2 121 0 124 12 3
8 14 26 24 42 24 34 15 35 -24 2 -34 -29 -107 -35 -127 -11 -8 9 -11 45 -9 98
l3 83 48 -2 c30 -1 56 -8 68 -19 28 -25 33 -12 12 30 -13 25 -22 34 -33 29 -8
-4 -33 -7 -55 -7 l-40 -1 -3 63 -3 62 38 0 c21 0 51 -9 68 -20 44 -29 48 -25
19 20 -15 22 -32 39 -38 38 -6 -1 -53 -4 -104 -5z"/>
<path d="M1455 509 c-88 -77 -85 -293 5 -374 16 -15 36 -20 77 -20 50 0 57 3
88 37 41 44 55 91 55 183 0 87 -33 166 -79 189 -50 26 -105 21 -146 -15z m122
-36 c12 -27 16 -69 16 -148 0 -79 -4 -121 -16 -147 -19 -46 -49 -50 -74 -11
-26 40 -26 276 0 316 25 39 55 35 74 -10z"/>
<path d="M1765 531 c-38 -4 -54 -9 -42 -13 15 -7 17 -25 17 -189 0 -161 -2
-183 -17 -195 -16 -12 -8 -13 55 -14 67 0 92 10 57 24 -12 4 -15 25 -15 101 0
89 1 95 20 95 11 0 23 -8 26 -17 42 -137 105 -233 152 -233 12 0 22 2 22 5 0
2 -15 33 -34 67 -19 35 -41 89 -50 121 l-17 58 31 29 c34 32 38 65 14 111 -27
54 -73 64 -219 50z m127 -38 c23 -27 28 -51 18 -77 -11 -30 -44 -49 -70 -41
-17 5 -20 16 -20 64 0 32 3 61 7 64 12 13 50 7 65 -10z"/>
<path d="M2410 531 c-53 -4 -87 -9 -77 -13 15 -7 17 -25 17 -189 0 -161 -2
-183 -17 -195 -15 -11 -1 -14 95 -15 61 -1 117 -2 122 -3 6 -1 22 18 36 42 29
48 24 53 -18 17 -22 -18 -41 -25 -73 -25 -57 0 -67 17 -63 118 l3 77 48 -2
c30 -1 56 -8 68 -19 27 -25 34 -11 15 31 -18 37 -25 42 -43 24 -6 -6 -28 -9
-49 -7 l-39 3 0 60 0 60 33 3 c21 2 47 -5 69 -18 19 -11 37 -19 40 -17 8 9
-43 76 -57 75 -8 -1 -58 -4 -110 -7z"/>
<path d="M3347 529 c-21 -13 -47 -61 -47 -89 0 -37 30 -74 91 -114 66 -43 109
-88 109 -116 0 -32 -34 -63 -70 -63 -33 0 -75 35 -106 89 -21 35 -24 8 -7 -57
l16 -64 69 -2 c85 -3 130 14 158 59 41 68 17 133 -71 188 -105 65 -128 100
-91 133 30 28 62 20 103 -23 21 -22 41 -40 44 -40 11 0 4 52 -10 80 -15 29
-17 30 -93 30 -42 0 -85 -5 -95 -11z"/>
<path d="M163 512 c25 -28 25 -346 0 -374 -15 -17 -14 -18 30 -18 26 0 47 5
47 10 0 6 -4 10 -10 10 -6 0 -10 51 -10 133 l1 132 35 -55 c57 -87 105 -193
94 -204 -20 -20 -9 -26 45 -26 51 0 69 10 45 25 -6 4 -10 74 -10 177 0 146 3
174 17 190 15 17 14 18 -32 18 -39 0 -46 -2 -36 -14 8 -9 11 -49 9 -116 l-3
-102 -69 116 -69 116 -50 0 c-48 0 -49 -1 -34 -18z"/>
<path d="M778 512 c10 -10 38 -97 67 -205 47 -174 64 -213 85 -190 4 4 22 60
40 123 31 107 50 154 50 121 0 -8 14 -65 31 -128 28 -100 34 -114 52 -111 17
3 29 33 74 188 40 135 60 190 76 202 22 17 21 18 -27 18 -41 0 -47 -2 -36 -14
9 -12 5 -37 -21 -120 -18 -59 -35 -106 -39 -106 -4 0 -19 46 -35 101 -23 81
-26 105 -17 120 11 18 8 19 -59 19 -70 0 -72 -1 -55 -19 33 -37 35 -71 6 -156
l-27 -80 -17 60 c-10 33 -25 84 -34 114 -16 51 -16 54 3 67 17 12 10 14 -58
14 -74 0 -76 -1 -59 -18z"/>
<path d="M2068 514 c21 -15 22 -21 22 -184 0 -161 -1 -170 -22 -190 l-22 -20
96 0 c53 0 103 -3 111 -6 10 -3 23 10 41 42 14 26 24 49 21 52 -2 2 -20 -9
-40 -27 -35 -30 -58 -37 -89 -25 -14 5 -16 31 -16 180 0 154 2 174 18 183 12
8 -4 10 -63 11 -75 0 -78 -1 -57 -16z"/>
<path d="M2973 512 c14 -16 17 -44 17 -190 0 -103 -4 -173 -10 -177 -22 -13
-8 -25 30 -25 40 0 49 7 30 26 -7 7 -10 59 -8 135 l3 124 38 -60 c21 -33 52
-89 69 -123 26 -53 30 -67 20 -83 -11 -18 -9 -19 49 -19 60 0 61 1 46 18 -14
16 -17 44 -17 187 0 143 3 171 17 187 15 17 14 18 -32 18 -39 0 -46 -2 -36
-14 8 -9 11 -48 9 -112 l-3 -99 -68 113 -68 112 -51 0 c-49 0 -50 -1 -35 -18z"/>
</g>
</svg>
