<?xml version="1.0" standalone="no"?>
<!DOCTYPE svg PUBLIC "-//W3C//DTD SVG 20010904//EN"
 "http://www.w3.org/TR/2001/REC-SVG-20010904/DTD/svg10.dtd">
<svg version="1.0" xmlns="http://www.w3.org/2000/svg"
 width="1232.000000pt" height="736.000000pt" viewBox="0 0 1232.000000 736.000000"
 preserveAspectRatio="xMidYMid meet">

<g transform="translate(0.000000,736.000000) scale(0.100000,-0.100000)"
fill="#000000" stroke="none">
<path d="M5440 7331 c-14 -5 -49 -20 -78 -35 -195 -99 -611 -477 -686 -623
-25 -49 -21 -69 16 -82 67 -23 328 -323 328 -377 0 -7 -20 -32 -45 -55 -87
-80 -134 -185 -106 -236 29 -56 156 -57 261 -2 36 19 68 35 72 37 4 2 5 -18 2
-45 -5 -38 -1 -60 19 -105 14 -32 22 -60 18 -62 -4 -3 -25 -1 -47 5 -21 5 -87
12 -145 15 -298 19 -623 -85 -855 -273 -135 -109 -314 -392 -373 -588 -41
-138 -46 -177 -46 -368 l0 -187 -30 -9 c-106 -32 -239 -61 -256 -56 -15 5 -29
-1 -47 -18 -38 -36 -121 -75 -199 -94 -97 -24 -314 -23 -408 1 -81 21 -172 65
-199 95 -25 28 -31 27 -76 -11 -162 -138 -591 -142 -770 -6 l-53 40 -26 -21
c-46 -37 -139 -81 -204 -96 -34 -8 -119 -19 -187 -24 -133 -10 -183 -24 -269
-72 -50 -29 -181 -126 -181 -135 0 -2 18 -44 40 -92 59 -131 72 -190 77 -345
7 -197 -17 -313 -89 -422 -24 -36 -36 -64 -31 -71 97 -128 129 -255 120 -480
-6 -174 -33 -270 -99 -355 -15 -20 -28 -40 -28 -44 0 -4 14 -25 32 -47 17 -22
45 -79 61 -126 27 -77 31 -103 35 -233 6 -209 -25 -346 -98 -439 -34 -43 -36
-52 -14 -71 24 -20 73 -122 89 -187 8 -31 21 -113 29 -182 8 -73 23 -148 36
-180 24 -62 84 -149 158 -230 l50 -55 49 28 c127 74 207 97 363 104 188 9 335
-26 437 -104 l44 -34 38 33 c87 74 259 115 444 105 166 -9 286 -48 365 -120
l22 -21 28 26 c70 66 194 107 353 115 181 10 324 -21 430 -93 59 -39 66 -41
93 -15 66 60 196 100 351 108 178 9 333 -25 428 -93 26 -19 51 -34 57 -34 5 0
30 16 55 35 86 65 253 101 431 92 154 -7 254 -40 367 -120 11 -8 21 -9 31 -2
132 98 271 133 475 122 157 -9 257 -41 342 -108 l36 -28 51 39 c181 136 595
133 775 -4 36 -27 62 -33 72 -16 13 22 87 61 162 87 71 24 93 26 233 27 164 1
222 -8 317 -50 29 -12 68 -34 86 -48 19 -14 39 -26 45 -26 7 0 32 15 56 34
173 131 592 127 769 -8 19 -14 39 -26 45 -26 7 0 32 15 56 34 88 67 248 102
426 93 160 -9 260 -38 347 -103 38 -29 54 -30 77 -6 24 27 111 69 186 89 91
25 338 25 429 -1 77 -21 150 -56 187 -91 15 -14 29 -25 32 -25 8 0 125 104
169 150 43 46 102 147 121 210 6 19 16 76 22 125 17 139 47 228 101 296 l30
39 -24 32 c-60 81 -93 178 -108 321 -19 185 23 394 98 492 l35 47 -31 39 c-77
95 -121 314 -102 500 16 148 50 251 107 318 l27 32 -22 27 c-74 92 -113 236
-113 422 0 184 29 299 101 404 17 25 31 48 31 51 0 15 -159 158 -211 190 -79
49 -129 65 -239 76 -171 18 -300 60 -353 115 -27 29 -39 30 -63 3 -28 -31
-124 -77 -201 -96 -93 -23 -313 -23 -406 0 -77 19 -173 65 -201 96 -25 27 -37
26 -65 -3 -27 -29 -114 -69 -202 -93 -87 -24 -317 -24 -406 1 -90 24 -145 50
-187 87 -32 28 -41 31 -57 21 -28 -18 -333 64 -324 87 4 9 9 70 12 136 13 301
-79 567 -292 845 -147 190 -354 316 -645 388 -91 22 -127 26 -270 26 -156 1
-172 -1 -297 -33 l-132 -34 -57 44 c-80 61 -103 96 -115 170 -30 184 -57 244
-141 310 -90 71 -116 106 -139 182 -12 39 -36 95 -54 122 -34 54 -94 119 -116
128 -9 3 12 32 67 88 107 109 122 140 88 173 -37 38 -147 11 -267 -66 l-47
-30 -42 28 c-114 79 -368 376 -368 430 0 19 -45 64 -62 63 -7 0 -24 -4 -38 -8z
m632 -551 c-95 -61 -141 -79 -87 -34 31 26 152 93 170 94 5 0 -32 -27 -83 -60z
m-792 -239 c0 -6 11 -22 25 -37 14 -15 25 -32 25 -37 0 -6 12 -23 27 -39 22
-23 24 -30 13 -43 -15 -18 0 -21 18 -3 6 6 14 9 17 6 3 -3 -26 -28 -64 -56
-66 -48 -70 -50 -86 -32 -13 14 -13 19 -3 23 9 4 3 15 -19 35 -21 18 -33 38
-33 54 0 33 -19 49 -51 42 -19 -4 -14 4 30 45 50 47 101 68 101 42z m-100
-121 c0 -5 -4 -10 -9 -10 -6 0 -13 5 -16 10 -3 6 1 10 9 10 9 0 16 -4 16 -10z
m-73 -158 c10 -12 27 -32 38 -43 l20 -20 -25 -19 c-23 -18 -26 -18 -32 -2 -6
16 -7 16 -7 0 -1 -10 -8 -18 -16 -18 -11 0 -12 5 -5 25 5 14 5 27 0 30 -4 3
-10 -3 -12 -12 -2 -11 -10 1 -18 29 -8 26 -18 44 -22 42 -13 -9 -9 14 6 28 11
11 11 14 -1 23 -8 6 -11 18 -7 28 5 15 11 11 35 -25 16 -24 36 -53 46 -66z
m-86 55 c-1 -12 -15 -9 -19 4 -3 6 1 10 8 8 6 -3 11 -8 11 -12z m657 -68 c78
-8 123 -8 166 0 77 14 93 12 36 -3 l-45 -13 32 -19 c18 -10 33 -25 33 -32 0
-7 19 -39 41 -71 39 -56 41 -60 30 -94 -8 -23 -35 -56 -74 -91 l-62 -54 14
-34 c8 -18 16 -54 18 -80 6 -55 18 -60 60 -24 l28 24 -23 46 c-20 43 -21 49
-7 76 8 16 19 32 25 35 6 4 20 25 32 48 l21 42 17 -41 c10 -22 23 -64 29 -94
l12 -55 -81 -163 c-89 -180 -109 -202 -187 -202 -38 0 -48 6 -115 70 -51 50
-101 86 -168 121 -52 27 -105 58 -118 68 -18 16 -52 77 -52 95 0 2 18 2 40 -1
46 -6 67 6 87 55 22 53 9 77 -58 106 -33 14 -78 29 -99 32 l-39 6 135 135 c85
84 141 132 150 129 8 -3 62 -10 122 -17z m-515 -243 c1 -5 -25 -24 -58 -42
-50 -28 -70 -34 -124 -34 -74 0 -74 14 0 16 49 1 127 33 151 61 12 14 28 14
31 -1z m214 -83 c10 -21 10 -28 0 -35 -35 -23 -73 15 -47 47 18 22 34 18 47
-12z m53 17 c8 -5 11 -10 5 -10 -5 0 -17 5 -25 10 -8 5 -10 10 -5 10 6 0 17
-5 25 -10z m923 -131 c28 -28 93 -84 142 -124 181 -145 281 -278 292 -387 10
-105 -40 -492 -76 -590 -19 -50 -46 -88 -54 -77 -42 57 -233 269 -242 269 -19
0 -152 -91 -273 -187 l-105 -83 -106 0 c-108 -1 -376 -13 -576 -26 l-110 -7
60 48 c78 63 238 210 386 355 65 63 153 147 196 186 74 67 200 213 257 299 57
84 109 129 180 155 26 10 27 12 13 28 -19 21 -57 132 -57 167 0 14 5 25 10 25
6 0 34 -23 63 -51z m267 -1224 c443 -27 1023 -105 1215 -164 l30 -9 -35 -2
c-19 -1 -29 -4 -22 -7 10 -4 10 -8 2 -18 -6 -8 -10 -29 -8 -47 2 -28 9 -35 37
-44 41 -13 20 -25 -22 -13 -36 10 -57 2 -57 -22 0 -10 -4 -19 -9 -19 -5 0 -9
13 -9 29 1 44 -10 54 -52 47 -21 -3 -63 -1 -95 5 -31 6 -59 9 -61 7 -10 -11
-8 -51 4 -55 6 -3 12 3 12 13 0 36 10 4 40 -131 29 -130 31 -145 20 -209 -12
-76 -23 -96 -52 -96 -23 0 -35 -27 -21 -49 6 -9 28 -21 49 -28 31 -9 34 -12
14 -12 -20 -1 -22 -3 -10 -11 12 -8 12 -10 -5 -10 l-20 -1 20 -15 c19 -14 17
-15 -20 -9 -344 49 -494 67 -740 90 -641 59 -1265 43 -1989 -50 -106 -14 -192
-21 -195 -16 -3 5 -15 11 -26 14 -19 5 -19 5 3 12 23 8 28 20 12 30 -5 3 -6
13 -3 22 4 11 3 14 -5 9 -7 -4 -12 -13 -12 -20 0 -8 -7 -19 -15 -26 -9 -8 -15
-9 -15 -2 0 6 5 14 10 17 6 3 10 24 10 46 l0 41 30 -25 c41 -35 94 -51 146
-43 80 10 132 59 160 146 27 87 27 87 32 61 3 -19 6 -21 13 -10 6 10 9 8 9
-10 0 -58 94 -130 168 -131 48 0 113 35 144 78 86 123 71 311 -34 415 -22 22
-43 35 -50 31 -7 -5 -8 -3 -4 5 5 8 3 11 -5 10 -8 -2 -31 0 -51 4 -82 17 -169
-40 -198 -128 -12 -36 -9 -157 4 -215 l7 -25 -12 25 c-6 14 -15 52 -20 85 -12
74 -48 137 -98 173 -31 23 -50 28 -107 30 -82 3 -118 -15 -160 -77 -32 -48
-43 -145 -25 -217 14 -57 9 -66 -12 -22 l-17 33 -1 -30 c-1 -16 -2 -35 -2 -42
0 -6 -8 -11 -18 -10 -16 1 -17 3 -4 17 9 9 14 34 14 56 l-1 39 -8 -38 c-11
-58 -17 -53 -13 11 2 33 0 50 -5 39 -7 -17 -9 -17 -35 3 -22 18 -25 25 -16 36
9 11 6 22 -12 49 -13 19 -27 35 -31 35 -5 0 -8 11 -8 23 0 31 -33 62 -54 50
-8 -4 -14 -12 -13 -18 2 -9 -122 -42 -167 -44 -15 -1 -16 2 -7 13 6 7 34 16
62 20 29 4 47 11 44 17 -4 6 4 7 22 4 22 -5 25 -4 13 4 -12 9 -10 11 10 9 19
-2 26 2 28 20 2 14 -2 22 -11 22 -16 0 -40 47 -28 54 17 11 315 67 506 95 236
35 436 57 670 71 94 6 175 13 180 15 28 10 780 3 985 -10z m-1449 -252 c18
-16 29 -22 25 -14 -7 10 -5 12 3 7 7 -5 10 -15 7 -23 -3 -8 -2 -12 3 -9 17 11
36 -91 36 -195 0 -113 -8 -134 -58 -161 -21 -11 -71 -2 -62 12 3 4 -3 23 -14
42 -64 110 -70 337 -9 361 25 10 37 7 69 -20z m-1199 -13 c-2 -7 5 -21 14 -31
9 -10 14 -27 11 -38 -4 -17 0 -20 28 -17 24 1 32 -1 28 -11 -3 -7 -20 -13 -39
-13 -36 0 -204 -38 -216 -49 -4 -4 -5 -16 -2 -29 8 -27 44 -31 44 -4 1 38 19
-17 60 -178 55 -219 55 -224 26 -238 -18 -8 -23 -16 -19 -32 3 -11 8 -22 12
-24 14 -9 263 53 282 70 22 20 30 15 33 -19 0 -14 3 -24 6 -22 3 2 14 -3 24
-10 17 -13 16 -15 -20 -30 -31 -13 -442 -135 -455 -135 -2 0 -3 38 -1 85 8
199 -78 401 -257 605 -24 27 -28 37 -18 46 11 11 191 57 337 87 70 14 127 9
122 -13z m1282 -59 c21 -73 29 -170 17 -206 l-11 -30 4 35 c6 48 -11 180 -30
232 -8 23 -11 38 -5 33 5 -6 16 -34 25 -64z m3213 29 c87 -22 162 -42 167 -43
5 -2 -19 -34 -52 -72 -70 -80 -142 -196 -177 -282 -41 -100 -55 -173 -56 -280
-1 -57 -3 -103 -5 -103 -11 0 -311 94 -328 102 -11 6 -15 13 -8 17 6 3 14 19
17 34 6 21 12 26 24 22 88 -36 171 6 206 104 32 93 12 171 -61 226 -27 21 -33
30 -24 40 7 8 9 24 5 37 -4 16 -3 19 3 10 7 -11 11 -10 16 4 3 9 4 26 1 38 -2
12 2 5 11 -14 9 -19 17 -53 18 -75 1 -37 3 -40 31 -40 29 0 30 2 42 70 6 39
12 75 12 82 1 20 -36 35 -57 24 -10 -5 -24 -6 -31 -2 -10 6 -8 10 5 15 16 6
16 8 4 16 -10 7 -11 10 -2 10 6 0 11 3 10 8 -1 4 4 26 12 50 10 33 18 42 36
42 12 0 94 -18 181 -40z m-3485 -28 c-14 -52 -14 -66 0 -133 8 -41 18 -83 22
-94 4 -12 1 -10 -7 5 -36 61 -44 183 -18 253 17 45 19 30 3 -31z m-192 -32
c17 -28 20 -30 15 -10 -4 18 -3 21 3 10 32 -53 47 -240 23 -297 -16 -39 -61
-61 -94 -45 -21 10 -21 11 -2 12 19 1 19 1 3 14 -40 30 -88 183 -88 278 0 113
81 135 140 38z m2831 -85 c28 -130 29 -143 18 -209 -7 -39 -19 -78 -27 -86
-13 -13 -14 -13 -7 5 4 11 14 48 21 82 14 67 13 83 -25 246 -21 90 -25 114
-16 105 3 -3 19 -67 36 -143z m329 126 c0 -5 -9 -11 -19 -14 -14 -3 -18 -1
-14 9 6 15 33 19 33 5z m-5342 -33 c1 -33 -15 -52 -74 -89 -70 -43 -145 -62
-244 -61 -83 1 -211 22 -248 41 -7 4 47 7 120 8 85 0 160 6 208 16 82 18 186
65 215 97 10 11 19 20 20 20 1 0 2 -14 3 -32z m6954 -3 c-7 -62 -110 -124
-237 -145 -65 -10 -214 4 -290 28 l-60 19 135 -1 c195 0 338 36 425 108 17 14
30 25 30 26 1 0 -1 -16 -3 -35z m870 3 c-16 -121 -269 -186 -494 -128 -46 12
-84 23 -86 24 -1 2 59 3 135 3 190 -1 312 30 408 102 22 17 40 31 41 31 0 0
-1 -15 -4 -32z m-8696 -3 c3 -52 -117 -125 -236 -144 -44 -7 -163 0 -270 17
l-55 8 55 7 c30 3 102 11 160 17 120 12 236 47 295 90 50 35 50 35 51 5z
m6026 -82 c-51 -85 -69 -109 -76 -102 -3 3 3 23 14 43 17 35 18 42 5 74 -22
52 -20 72 10 72 14 0 25 -5 25 -11 0 -5 5 -7 10 -4 15 9 12 -6 -4 -24 -18 -21
-32 -66 -17 -57 6 4 11 13 11 20 0 8 6 19 14 25 8 7 18 27 22 44 7 31 7 31 17
10 8 -18 3 -34 -31 -90z m68 98 c0 -6 -4 -13 -10 -16 -5 -3 -10 1 -10 9 0 9 5
16 10 16 6 0 10 -4 10 -9z m-2964 -181 l3 -95 -9 93 c-4 51 -15 111 -24 132
-23 57 -18 64 6 10 16 -33 22 -70 24 -140z m-1398 153 c21 -36 -114 -114 -230
-132 -63 -10 -207 3 -288 27 l-65 19 145 0 c165 -1 276 22 365 73 59 35 61 35
73 13z m4451 -28 c0 -5 -4 -3 -9 5 -5 8 -9 22 -9 30 0 16 17 -16 18 -35z m774
28 c-7 -22 -43 -63 -55 -63 -15 0 -8 18 18 49 28 34 47 41 37 14z m-4408 -208
c38 -197 39 -205 25 -205 -5 0 -7 6 -4 13 2 7 -11 91 -31 187 -48 238 -46 229
-35 205 5 -11 25 -101 45 -200z m105 205 c0 -5 -5 -10 -11 -10 -5 0 -7 5 -4
10 3 6 8 10 11 10 2 0 4 -4 4 -10z m3774 2 c3 -5 -8 -7 -23 -4 -50 7 -119 -80
-123 -156 l-1 -37 -4 33 c-6 46 23 128 54 152 26 20 87 27 97 12z m-3597 -34
c-4 -30 4 -107 18 -168 l6 -25 -11 25 c-25 56 -34 200 -13 200 3 0 3 -15 0
-32z m-312 -165 c42 -204 43 -219 13 -226 -32 -9 -36 2 -9 22 l23 17 -36 178
c-32 159 -42 220 -30 191 2 -5 19 -87 39 -182z m105 183 c0 -3 -4 -8 -10 -11
-5 -3 -10 -1 -10 4 0 6 5 11 10 11 6 0 10 -2 10 -4z m3598 -51 c0 -16 -2 -15
-8 5 -11 34 -11 60 0 35 5 -11 8 -29 8 -40z m-3558 35 c0 -5 -5 -10 -11 -10
-5 0 -7 5 -4 10 3 6 8 10 11 10 2 0 4 -4 4 -10z m3526 -84 c-3 -13 -17 -28
-31 -34 -33 -15 -33 1 0 30 15 13 26 33 26 52 l2 31 4 -29 c3 -15 2 -38 -1
-50z m314 39 c0 -8 -4 -15 -10 -15 -5 0 -10 7 -10 15 0 8 5 15 10 15 6 0 10
-7 10 -15z m-4310 -202 c22 -89 39 -175 39 -190 -2 -27 -2 -27 -6 -3 -3 14
-25 105 -49 204 -24 98 -44 181 -43 185 2 19 23 -52 59 -196z m101 170 c7 -12
16 -20 21 -17 11 7 10 -63 -2 -86 -10 -18 -78 -45 -89 -35 -2 3 4 11 14 19 16
12 17 18 7 59 -18 72 -16 87 12 85 14 -1 30 -12 37 -25z m16 5 c-3 -8 -6 -5
-6 6 -1 11 2 17 5 13 3 -3 4 -12 1 -19z m42 -53 c1 -11 -4 -27 -9 -35 -7 -11
-10 -2 -10 32 0 25 -2 55 -5 65 -3 10 1 5 9 -12 8 -16 15 -39 15 -50z m6854
44 c33 -11 85 -36 116 -56 52 -34 181 -149 181 -163 0 -3 -11 -7 -26 -8 -16
-1 -44 13 -81 41 -151 115 -265 178 -358 197 -30 6 -55 14 -55 17 0 12 165 -9
223 -28z m-2788 -89 c3 -6 -1 -7 -9 -4 -18 7 -21 14 -7 14 6 0 13 -4 16 -10z
m-3605 -30 c0 -13 -67 -126 -86 -144 -9 -10 -32 -16 -57 -16 l-42 1 38 13 c46
17 81 53 97 100 6 19 18 37 26 40 9 3 12 11 8 17 -4 8 -3 9 4 5 7 -4 12 -11
12 -16z m-437 -7 c-7 -2 -19 -2 -25 0 -7 3 -2 5 12 5 14 0 19 -2 13 -5z m495
-18 c-3 -3 -9 2 -12 12 -6 14 -5 15 5 6 7 -7 10 -15 7 -18z m-2540 -15 c23
-21 27 -54 12 -100 -6 -20 -8 -15 -9 26 -1 58 -18 80 -66 87 -29 4 -28 4 6 6
23 0 43 -6 57 -19z m-1084 -84 c19 -33 44 -94 57 -135 19 -64 21 -87 15 -170
-6 -91 -30 -208 -44 -223 -4 -4 -7 64 -7 150 -1 172 -13 233 -75 364 -37 77
-37 87 -5 80 19 -3 35 -21 59 -66z m7001 37 c-7 -40 -25 -69 -25 -41 0 33 13
78 22 78 6 0 7 -15 3 -37z m-3902 5 c4 -10 8 -9 17 2 8 12 9 8 4 -15 -4 -23
-3 -26 5 -15 8 11 11 -1 11 -48 0 -63 0 -63 -35 -78 -25 -10 -41 -12 -53 -5
-16 10 -16 10 1 11 21 0 21 1 2 70 -22 80 -20 90 14 90 16 0 32 -6 34 -12z
m4122 -44 c6 -44 1 -37 -14 20 -7 26 -7 36 0 29 5 -5 12 -27 14 -49z m-4056
-29 c0 -16 -3 -35 -7 -42 -4 -6 -7 16 -7 49 -1 34 2 51 6 41 4 -10 8 -31 8
-48z m3991 40 c22 -11 30 -12 33 -2 3 6 6 -11 6 -40 1 -45 -2 -54 -30 -77 -31
-27 -63 -34 -74 -16 -3 6 -2 10 4 10 6 0 6 11 1 29 -6 21 -4 33 7 44 9 8 16
27 16 41 0 30 -1 30 37 11z m-6172 -7 c17 -17 15 -55 -4 -62 -31 -12 -63 -6
-74 13 -6 12 -6 22 -1 26 5 3 12 -4 16 -15 11 -34 35 -24 35 15 0 37 8 43 28
23z m2543 -21 c-16 -16 -26 0 -10 19 9 11 15 12 17 4 2 -6 -1 -17 -7 -23z
m3445 -39 c-2 -18 -8 -34 -14 -36 -8 -2 -8 7 -1 30 5 18 9 34 9 35 0 2 2 3 5
3 3 0 3 -14 1 -32z m30 -26 c-11 -10 -14 3 -8 33 l7 30 3 -28 c2 -16 1 -31 -2
-35z m-5925 15 c-10 -9 -11 -8 -5 6 3 10 9 15 12 12 3 -3 0 -11 -7 -18z m-47
-79 c-26 -31 -67 -68 -76 -68 -4 0 -10 5 -13 11 -4 6 -27 9 -51 8 -24 -2 -46
0 -50 4 -10 10 -63 8 -106 -3 -38 -11 -98 -69 -98 -96 0 -35 34 -86 74 -108
83 -48 132 -59 311 -65 159 -6 170 -7 173 -26 3 -11 1 -17 -2 -14 -11 11 -109
-30 -137 -57 -18 -17 -25 -32 -22 -48 3 -13 0 -27 -6 -30 -7 -5 -11 -77 -11
-222 0 -141 3 -213 10 -209 6 4 10 -5 10 -19 0 -14 1 -26 3 -26 1 0 24 11 51
25 68 34 144 33 277 -4 186 -53 236 -50 301 14 52 53 60 93 56 299 l-3 178
-31 27 c-17 16 -48 31 -71 34 -43 7 -58 26 -48 58 6 18 22 19 275 19 151 0
271 -4 274 -9 11 -17 -4 -36 -28 -37 -34 -2 -119 -46 -105 -54 6 -5 3 -9 -8
-12 -16 -4 -21 -22 -31 -111 -9 -73 -10 -112 -3 -124 26 -45 21 -44 147 -23
65 11 133 20 151 20 45 0 81 35 103 100 20 59 27 42 9 -21 -17 -55 -56 -88
-117 -98 -28 -4 -62 -15 -76 -24 -14 -10 -34 -17 -44 -17 -25 0 -132 -58 -160
-86 -13 -13 -19 -24 -15 -24 4 0 3 -4 -4 -8 -9 -6 -10 -27 -4 -82 5 -41 9
-422 10 -847 1 -656 4 -776 16 -800 8 -15 15 -33 15 -40 0 -18 47 -51 83 -58
32 -7 57 -22 57 -34 0 -28 -164 -53 -332 -51 -272 3 -334 45 -313 215 10 74
30 99 80 97 25 -1 46 -9 59 -22 l21 -21 -37 6 c-34 6 -39 4 -49 -18 -24 -52
25 -117 88 -117 26 0 36 6 48 31 50 96 69 432 60 1049 -4 255 -9 468 -12 473
-3 4 -11 3 -18 -3 -10 -8 -14 -7 -18 2 -4 10 -7 10 -14 0 -5 -6 -24 -23 -43
-37 -19 -14 -28 -25 -20 -25 26 0 -1 -15 -33 -18 -106 -11 -176 -5 -267 22
-52 15 -102 32 -111 36 -19 10 -146 6 -157 -4 -4 -4 -7 -13 -7 -19 -1 -7 -6
-11 -13 -10 -8 2 -11 -173 -12 -710 l0 -713 25 -51 c26 -55 40 -66 95 -78 58
-12 65 -25 28 -48 -30 -18 -54 -20 -233 -23 -110 -2 -219 -7 -241 -10 -37 -6
-43 -4 -49 16 -9 28 16 56 60 64 47 9 83 41 90 79 2 18 6 339 7 715 l3 682
-22 0 c-12 0 -23 4 -25 10 -7 21 -85 -34 -123 -86 -66 -90 -74 -153 -30 -221
24 -36 9 -41 -25 -8 -45 43 -50 115 -17 220 31 94 53 120 148 176 50 30 76 52
85 74 9 23 11 88 8 265 -2 129 -7 250 -10 268 -7 43 -52 94 -124 137 -136 83
-168 186 -86 282 53 61 126 75 289 54 77 -10 125 -1 152 29 25 27 33 25 9 -2z
m7374 -17 c28 -14 42 -28 42 -42 0 -12 4 -17 11 -13 6 3 3 -8 -5 -25 -15 -29
-15 -30 1 -24 16 5 15 3 -2 -15 -11 -12 -31 -23 -44 -24 -24 -3 -25 -1 -22 45
1 27 -3 54 -9 63 -7 7 -9 14 -4 14 26 1 -26 20 -53 20 -73 0 -110 -102 -61
-166 49 -64 68 -67 454 -65 361 1 430 -5 538 -53 60 -27 148 -86 179 -121 32
-36 81 -128 103 -194 30 -89 54 -187 54 -217 0 -14 4 -22 10 -19 6 3 11 -4 11
-17 2 -24 2 -29 18 -123 5 -33 15 -98 21 -145 6 -47 15 -92 20 -101 5 -9 11
-65 15 -125 3 -60 10 -134 15 -164 11 -62 14 -297 6 -350 -5 -28 -4 -31 4 -15
9 18 10 17 5 -5 -2 -14 -5 -34 -6 -45 l0 -20 -8 20 c-7 16 -9 13 -13 -17 -2
-21 -1 -38 3 -38 4 0 5 -9 2 -20 -3 -11 -10 -17 -15 -14 -6 4 -8 -4 -7 -17 4
-26 -31 -109 -62 -148 -12 -15 -17 -32 -14 -45 5 -15 4 -17 -3 -8 -7 11 -10 9
-15 -7 -3 -14 -1 -19 6 -15 7 3 4 -1 -5 -9 -10 -8 -18 -19 -18 -25 0 -6 -5
-14 -12 -18 -7 -5 -9 -2 -4 7 4 8 -2 3 -13 -11 -11 -14 -19 -31 -16 -37 2 -7
-1 -13 -9 -13 -7 0 -26 -16 -42 -35 -16 -19 -34 -35 -40 -35 -15 0 -46 -35
-37 -43 3 -4 -4 -7 -16 -7 -12 0 -40 -14 -61 -31 -21 -17 -43 -28 -49 -25 -5
4 -12 2 -16 -4 -3 -5 -13 -10 -21 -10 -8 0 -33 -9 -55 -19 -22 -11 -48 -17
-56 -14 -9 4 -14 2 -11 -3 4 -5 -14 -8 -40 -6 -29 2 -42 0 -34 -6 7 -5 -39 -8
-115 -9 -232 0 -299 -3 -284 -12 9 -6 -37 -8 -122 -7 -78 2 -140 -1 -143 -6
-3 -5 -12 -7 -19 -4 -45 17 -161 -55 -205 -127 l-17 -28 -5 24 c-7 37 16 115
43 143 13 14 51 40 84 56 33 17 72 42 87 56 75 70 120 319 117 657 0 99 -1
188 0 198 0 10 -8 20 -17 23 -9 3 -25 10 -34 15 -13 7 -18 5 -18 -5 0 -7 -9
-16 -20 -19 -16 -4 -20 -14 -20 -50 0 -25 -4 -48 -9 -51 -13 -9 -61 93 -61
130 0 56 29 116 84 174 83 86 81 78 78 575 -1 236 -6 444 -11 461 -11 39 -67
116 -101 139 -23 15 -24 16 -2 10 27 -8 30 11 2 20 -11 3 -20 11 -20 16 0 5
-4 9 -10 9 -5 0 -7 -6 -4 -14 4 -11 -5 -14 -47 -12 -44 3 -57 8 -77 32 -22 25
-24 34 -18 86 7 66 26 109 58 133 33 23 148 16 206 -14z m1751 -495 c13 -57
68 -181 87 -197 21 -17 17 -29 -9 -29 -46 0 -102 85 -132 201 -13 48 -16 86
-11 154 9 130 17 185 27 185 5 0 10 12 11 28 1 15 5 -45 9 -133 4 -88 12 -182
18 -209z m-4163 323 c8 -7 14 -26 13 -43 -1 -17 1 -54 5 -83 9 -63 -10 -112
-52 -131 -15 -6 -62 -15 -104 -18 -42 -4 -82 -11 -90 -15 -11 -7 -12 -82 -10
-401 7 -802 5 -754 36 -832 51 -133 120 -200 252 -247 73 -26 215 -29 287 -6
26 8 47 11 47 7 0 -18 -63 -60 -91 -60 -16 0 -37 -4 -47 -9 -73 -39 -101 -45
-187 -46 -146 0 -213 39 -330 193 -60 79 -198 340 -290 547 -115 260 -255 539
-301 599 -19 25 -43 46 -53 46 -16 0 -17 -28 -16 -482 0 -452 2 -485 19 -521
20 -41 54 -62 119 -72 30 -5 37 -10 37 -28 0 -16 -3 -18 -9 -8 -5 7 -14 11
-20 7 -8 -6 -65 -9 -286 -16 -5 0 -3 -5 5 -10 11 -7 4 -10 -26 -10 -40 0 -54
11 -54 41 0 6 22 19 49 30 31 13 53 30 61 47 17 38 26 399 11 476 -15 80 -42
95 -71 40 -20 -35 -30 -29 -30 18 0 40 19 75 73 133 34 36 49 76 42 109 -3 17
-9 114 -13 216 -8 207 -12 219 -82 237 -81 21 -25 73 78 73 162 0 265 -98 398
-376 212 -445 260 -541 281 -564 l24 -25 -3 412 c-3 400 -4 412 -24 440 -13
17 -32 29 -50 31 -36 5 -54 19 -54 42 0 28 23 31 148 19 155 -14 205 -7 237
35 14 18 25 40 25 49 0 26 -22 67 -37 67 -7 0 -13 4 -13 8 0 14 -69 42 -104
42 -19 0 -39 -6 -45 -14 -13 -16 -17 -54 -7 -77 13 -29 -12 -30 -32 -2 -62 88
-30 140 93 153 62 6 173 -6 191 -21z m-1324 0 c54 -12 71 -24 63 -47 -2 -7 4
-27 15 -45 12 -20 20 -50 20 -78 0 -41 -4 -50 -35 -73 -23 -18 -53 -29 -87
-33 -29 -3 -59 -10 -65 -15 -24 -19 -25 -79 -4 -211 24 -143 42 -517 29 -603
-4 -27 -10 -67 -14 -89 -4 -22 -7 -54 -8 -72 0 -17 -4 -29 -8 -27 -10 6 -20
-34 -12 -47 4 -7 3 -9 -3 -6 -6 4 -22 -16 -36 -46 -36 -72 -60 -111 -75 -120
-7 -5 -10 -12 -7 -16 2 -5 -3 -15 -12 -22 -12 -10 -14 -10 -9 -1 12 20 -3 14
-43 -16 -42 -32 -74 -48 -115 -57 -24 -5 -27 -8 -15 -16 10 -7 5 -8 -18 -4
-17 3 -48 2 -67 -4 -20 -5 -38 -6 -41 -1 -2 4 -32 10 -65 14 -33 4 -60 11 -60
16 0 6 -10 10 -22 10 -29 1 -85 43 -132 99 -63 76 -95 156 -121 304 -13 74
-28 145 -35 157 -7 13 -43 53 -81 90 -38 38 -69 75 -69 83 0 8 -3 29 -6 46 -9
41 14 42 56 1 71 -69 113 -18 124 150 4 52 12 138 18 191 10 92 10 98 -12 137
-20 36 -68 71 -97 72 -4 0 -18 8 -31 18 -34 26 -50 147 -26 197 22 48 96 69
158 45 37 -14 32 -27 -11 -34 -71 -13 -73 -15 -73 -56 0 -29 8 -48 30 -73 42
-48 95 -59 260 -56 142 4 178 -3 145 -28 -11 -7 -32 -13 -48 -13 -60 0 -94
-41 -108 -129 -5 -31 -11 -65 -13 -76 -20 -95 -25 -132 -28 -211 -2 -73 0 -95
15 -117 10 -15 20 -27 23 -27 16 0 64 36 75 57 7 14 22 29 32 35 19 10 19 9 3
-13 -9 -13 -16 -33 -16 -44 0 -35 -28 -66 -54 -59 -33 8 -76 -49 -76 -100 0
-21 -4 -35 -10 -31 -10 6 -3 -102 8 -119 3 -6 7 -19 8 -30 5 -51 47 -164 78
-212 40 -59 106 -116 155 -133 56 -19 149 -14 199 11 50 24 115 86 139 132 50
97 79 299 69 491 -8 183 -33 378 -56 457 -21 70 -58 113 -90 103 -9 -3 -25 1
-36 9 -15 12 -17 18 -8 33 10 16 24 18 142 14 112 -3 134 -1 161 15 46 27 66
77 54 131 -6 24 -6 43 -2 43 14 0 10 17 -3 18 -7 0 -32 4 -55 8 -55 9 -97 -15
-90 -52 8 -46 -42 -17 -57 32 -14 47 72 67 186 43z m3349 -107 c6 -15 10 -84
9 -154 0 -71 3 -128 8 -128 17 0 -1 -105 -23 -141 -27 -42 -74 -59 -155 -55
-69 3 -98 19 -116 62 -26 61 1 105 63 103 l28 -1 -30 -7 c-23 -5 -31 -12 -33
-33 -5 -45 21 -73 66 -69 101 8 139 151 55 206 -32 21 -172 37 -215 24 -18 -5
-54 -9 -81 -9 -62 0 -102 -21 -123 -65 -9 -19 -21 -33 -26 -32 -7 1 -12 -49
-14 -143 -3 -123 -1 -150 14 -180 l17 -35 109 -3 c125 -3 141 4 133 55 -7 40
10 44 49 10 22 -20 27 -31 26 -65 -1 -23 3 -42 8 -42 6 0 10 -5 10 -12 0 -7
12 -22 27 -34 24 -19 27 -28 24 -69 -2 -32 1 -45 8 -41 14 9 14 -18 0 -69 -13
-44 -16 -41 -38 42 -17 61 -81 115 -158 131 -115 24 -193 10 -199 -35 -2 -9
-9 -20 -16 -24 -10 -6 -13 -60 -13 -246 0 -234 0 -239 24 -281 36 -62 61 -74
161 -80 156 -9 312 42 410 134 53 50 73 97 67 157 -5 49 -14 57 -65 57 -34 0
-43 3 -32 10 8 5 30 10 49 10 26 0 41 -8 67 -37 44 -48 49 -111 14 -188 -19
-41 -60 -95 -60 -79 0 5 -9 -6 -21 -25 -11 -19 -27 -40 -35 -48 -8 -8 -14 -19
-14 -26 0 -6 -21 -30 -46 -54 -32 -29 -41 -43 -30 -43 10 0 14 -5 11 -11 -5
-7 -12 -6 -23 4 -52 45 -66 47 -392 47 -200 0 -310 -4 -310 -10 0 -16 -47 -12
-64 5 -22 22 -9 43 33 55 81 23 81 21 81 354 0 277 -1 285 -21 299 -45 32 -79
-14 -59 -82 11 -40 -2 -40 -41 -2 -54 55 -37 120 58 222 58 62 62 77 63 252 0
133 -3 164 -17 188 -10 16 -24 31 -33 33 -8 2 -27 7 -42 10 -21 5 -28 12 -28
30 0 32 15 33 195 23 277 -16 447 5 566 69 37 20 60 41 74 66 21 40 31 40 46
0z m-5268 -7 c58 -29 114 -102 163 -210 171 -378 242 -484 397 -593 88 -61 87
-70 -4 -71 -78 -2 -88 -34 -39 -128 16 -31 39 -83 50 -115 11 -32 24 -66 30
-76 5 -9 19 -46 30 -82 38 -115 83 -190 115 -190 8 0 17 -5 21 -12 5 -7 2 -9
-8 -5 -9 3 -21 0 -27 -6 -8 -8 -72 -13 -186 -15 -96 -3 -175 -8 -175 -13 0
-18 -49 -9 -60 10 -14 27 7 46 58 54 96 16 97 95 2 349 -69 185 -79 196 -151
179 -25 -6 -61 -3 -110 7 -41 8 -97 15 -126 16 -28 0 -49 4 -46 9 5 9 -10 9
-31 1 -9 -3 -13 -10 -10 -15 5 -8 -3 -11 -22 -8 -11 1 -24 -25 -24 -51 0 -20
-2 -22 -10 -10 -8 12 -10 11 -10 -7 0 -12 -5 -25 -11 -29 -6 -3 -8 -17 -5 -30
4 -14 2 -33 -4 -45 -16 -30 -49 -163 -42 -173 3 -5 0 -6 -6 -2 -7 4 -12 3 -12
-2 0 -5 -2 -25 -5 -43 -4 -27 -3 -30 5 -14 7 16 8 12 4 -16 -9 -56 16 -96 69
-110 64 -17 89 -28 83 -38 -3 -5 -70 -12 -148 -15 -79 -4 -153 -12 -165 -18
-26 -13 -69 -4 -76 17 -4 9 9 25 38 46 48 35 56 51 130 254 30 82 48 148 49
179 1 45 -1 50 -24 56 -25 6 -73 -15 -113 -48 -48 -41 -24 58 25 104 18 17 65
49 104 72 125 73 138 94 249 417 70 202 67 303 -11 364 -34 26 -91 27 -124 1
-23 -17 -25 -25 -25 -94 1 -81 -7 -92 -41 -55 -15 17 -19 36 -19 93 0 78 17
119 58 137 38 16 134 3 190 -26z m997 11 c0 -8 -4 -18 -10 -21 -5 -3 -10 3
-10 14 0 12 5 21 10 21 6 0 10 -6 10 -14z m2465 -126 c28 -19 47 -20 280 -20
200 0 255 3 275 15 47 27 52 28 70 9 29 -30 105 -176 108 -209 2 -16 12 -45
23 -63 40 -69 12 -56 -79 37 -93 95 -165 136 -223 126 -21 -4 -39 -11 -39 -16
0 -6 -5 -7 -10 -4 -8 5 -29 -29 -34 -55 -1 -3 -4 -10 -8 -16 -4 -6 -10 -42
-13 -80 -3 -38 -2 -61 2 -52 5 10 7 -192 5 -448 -3 -461 -3 -465 19 -503 22
-39 54 -61 89 -61 24 0 70 -21 70 -31 0 -12 -18 -20 -22 -11 -1 5 -37 5 -78 1
-41 -4 -130 -8 -196 -8 -70 1 -131 -4 -142 -10 -32 -17 -60 -13 -67 9 -9 29 1
39 45 46 60 10 98 38 104 76 9 62 14 422 6 444 -11 28 -46 40 -66 23 -11 -9
-15 -27 -12 -61 4 -55 -9 -58 -34 -7 -20 38 -23 104 -7 146 5 15 37 55 69 88
l58 61 -4 170 c-6 214 -14 248 -67 281 -37 23 -44 24 -94 14 -77 -15 -97 -32
-177 -151 -13 -19 -31 -41 -40 -49 -13 -11 -17 -11 -22 3 -9 24 1 65 36 141
46 101 107 185 133 185 7 0 26 -9 42 -20z m-3886 -36 c17 -14 31 -33 31 -42
-1 -11 -6 -8 -16 10 -8 15 -27 34 -42 42 -15 9 -22 15 -15 16 6 0 25 -12 42
-26z m321 -64 c0 -5 -7 -7 -15 -4 -8 4 -15 8 -15 10 0 2 7 4 15 4 8 0 15 -4
15 -10z m-2655 -216 c17 -23 42 -74 56 -115 31 -97 31 -244 -1 -364 -12 -44
-22 -80 -23 -81 -1 -1 -2 75 -3 169 -1 158 -3 179 -28 254 -14 45 -42 105 -61
133 l-34 51 31 -3 c24 -2 40 -14 63 -44z m3419 -146 c6 -4 27 -8 46 -8 36 0
80 -23 80 -41 0 -5 -5 -16 -12 -23 -10 -11 -15 -11 -26 1 -16 15 -36 18 -27 3
3 -5 -1 -10 -10 -10 -21 0 -75 53 -75 73 0 9 -3 24 -6 34 -5 15 -3 15 7 -2 7
-11 17 -23 23 -27z m6750 -542 c18 -63 58 -151 82 -177 20 -22 18 -29 -9 -29
-44 0 -99 81 -132 194 -22 74 -17 218 11 326 l19 75 6 -165 c4 -106 12 -186
23 -224z m-9424 3 c16 -29 9 -29 -17 -2 -16 16 -18 23 -8 23 8 0 19 -9 25 -21z
m8 -96 c-10 -22 -21 -28 -48 -30 l-35 -2 33 10 c18 5 35 16 37 24 13 42 18 49
22 38 2 -7 -2 -25 -9 -40z m-754 -110 c42 -57 75 -154 82 -237 6 -67 -16 -232
-37 -285 -13 -31 -14 -25 -11 78 7 182 -23 327 -87 431 -16 27 -27 51 -24 54
17 17 46 1 77 -41z m10170 -683 c20 -74 60 -160 88 -190 19 -20 18 -20 -9 -20
-15 0 -33 4 -39 8 -28 19 -65 85 -89 157 -25 72 -27 90 -22 185 2 58 13 137
23 175 l19 70 6 -160 c3 -107 11 -181 23 -225z m-4449 152 c-3 -3 -11 0 -18 7
-9 10 -8 11 6 5 10 -3 15 -9 12 -12z m-3268 2 c-3 -3 -12 -4 -19 -1 -8 3 -5 6
6 6 11 1 17 -2 13 -5z m1030 0 c-3 -3 -12 -4 -19 -1 -8 3 -5 6 6 6 11 1 17 -2
13 -5z m3616 -7 c4 -10 -3 -12 -27 -9 -27 4 -28 6 -11 13 29 11 32 11 38 -4z
m-4674 -13 c10 -9 -35 -3 -49 6 -11 8 -7 9 15 4 17 -4 32 -8 34 -10z m118 10
c-3 -3 -12 -4 -19 -1 -8 3 -5 6 6 6 11 1 17 -2 13 -5z m1630 0 c-3 -3 -12 -4
-19 -1 -8 3 -5 6 6 6 11 1 17 -2 13 -5z m1076 -1 c-7 -2 -21 -2 -30 0 -10 3
-4 5 12 5 17 0 24 -2 18 -5z m447 -2 c0 -5 -7 -12 -16 -15 -14 -5 -15 -4 -4 9
14 17 20 19 20 6z m1103 2 c-7 -2 -21 -2 -30 0 -10 3 -4 5 12 5 17 0 24 -2 18
-5z m432 -11 c-3 -3 -11 0 -18 7 -9 10 -8 11 6 5 10 -3 15 -9 12 -12z m654 14
c-12 -10 -60 -16 -54 -6 3 5 18 10 32 10 15 0 24 -2 22 -4z m-4386 -13 c-7 -2
-21 -2 -30 0 -10 3 -4 5 12 5 17 0 24 -2 18 -5z m210 0 c-7 -2 -21 -2 -30 0
-10 3 -4 5 12 5 17 0 24 -2 18 -5z m312 -3 c3 -5 1 -10 -4 -10 -6 0 -11 5 -11
10 0 6 2 10 4 10 3 0 8 -4 11 -10z m2108 3 c-7 -2 -19 -2 -25 0 -7 3 -2 5 12
5 14 0 19 -2 13 -5z m200 0 c-13 -2 -35 -2 -50 0 -16 2 -5 4 22 4 28 0 40 -2
28 -4z m294 1 c-3 -3 -12 -4 -19 -1 -8 3 -5 6 6 6 11 1 17 -2 13 -5z m-3490
-10 c-3 -3 -12 -4 -19 -1 -8 3 -5 6 6 6 11 1 17 -2 13 -5z m1420 -9 c0 -8 -4
-12 -9 -9 -5 3 -6 10 -3 15 9 13 12 11 12 -6z m2196 8 c-7 -2 -21 -2 -30 0
-10 3 -4 5 12 5 17 0 24 -2 18 -5z m-1903 -13 c0 -5 -4 -10 -10 -10 -5 0 -10
5 -10 10 0 6 5 10 10 10 6 0 10 -4 10 -10z m910 6 c0 -3 -4 -8 -10 -11 -5 -3
-10 -1 -10 4 0 6 5 11 10 11 6 0 10 -2 10 -4z m-2783 -28 c-3 -8 -6 -5 -6 6
-1 11 2 17 5 13 3 -3 4 -12 1 -19z m4190 -25 c-3 -10 -5 -2 -5 17 0 19 2 27 5
18 2 -10 2 -26 0 -35z m610 15 c-3 -7 -5 -2 -5 12 0 14 2 19 5 13 2 -7 2 -19
0 -25z m-4130 0 c-3 -8 -6 -5 -6 6 -1 11 2 17 5 13 3 -3 4 -12 1 -19z m963 12
c0 -5 -4 -10 -10 -10 -5 0 -10 5 -10 10 0 6 5 10 10 10 6 0 10 -4 10 -10z
m210 0 c0 -5 -2 -10 -4 -10 -3 0 -8 5 -11 10 -3 6 -1 10 4 10 6 0 11 -4 11
-10z m-773 -22 c-3 -8 -6 -5 -6 6 -1 11 2 17 5 13 3 -3 4 -12 1 -19z m-1027
-9 c0 -6 -4 -7 -10 -4 -5 3 -10 11 -10 16 0 6 5 7 10 4 6 -3 10 -11 10 -16z
m2755 11 c3 -5 1 -10 -4 -10 -6 0 -11 5 -11 10 0 6 2 10 4 10 3 0 8 -4 11 -10z
m-3121 -26 c3 -8 2 -12 -4 -9 -6 3 -10 10 -10 16 0 14 7 11 14 -7z m954 -35
c-3 -8 -7 -3 -11 10 -4 17 -3 21 5 13 5 -5 8 -16 6 -23z m1292 10 c0 -6 -4 -7
-10 -4 -5 3 -10 11 -10 16 0 6 5 7 10 4 6 -3 10 -11 10 -16z m2720 11 c0 -5
-5 -10 -11 -10 -5 0 -7 5 -4 10 3 6 8 10 11 10 2 0 4 -4 4 -10z m-2303 -242
c-1 -46 -3 -9 -3 82 0 91 2 128 3 83 2 -46 2 -120 0 -165z m940 210 c-3 -7 -5
-2 -5 12 0 14 2 19 5 13 2 -7 2 -19 0 -25z m1403 28 c0 -2 -8 -10 -17 -17 -16
-13 -17 -12 -4 4 13 16 21 21 21 13z m-4970 -37 c0 -6 -4 -7 -10 -4 -5 3 -10
11 -10 16 0 6 5 7 10 4 6 -3 10 -11 10 -16z m937 -11 c-3 -8 -6 -5 -6 6 -1 11
2 17 5 13 3 -3 4 -12 1 -19z m-1022 2 c3 -5 1 -10 -4 -10 -6 0 -11 5 -11 10 0
6 2 10 4 10 3 0 8 -4 11 -10z m5132 -262 c-1 -51 -3 -10 -3 92 0 102 2 143 3
93 2 -51 2 -135 0 -185z m-167 247 c-7 -9 -15 -13 -17 -11 -7 7 7 26 19 26 6
0 6 -6 -2 -15z m-4693 -10 c0 -8 -4 -12 -9 -9 -5 3 -6 10 -3 15 9 13 12 11 12
-6z m-36 -48 l-23 -22 17 28 c10 15 20 25 23 22 3 -3 -5 -16 -17 -28z m-106
13 c3 -5 1 -10 -4 -10 -6 0 -11 5 -11 10 0 6 2 10 4 10 3 0 8 -4 11 -10z m-72
-30 c3 -11 2 -20 -3 -20 -4 0 -10 9 -13 20 -3 11 -2 20 3 20 4 0 10 -9 13 -20z
m82 -9 c-3 -6 -11 -11 -16 -11 -5 0 -4 6 3 14 14 16 24 13 13 -3z m2642 -3
c-3 -8 -6 -5 -6 6 -1 11 2 17 5 13 3 -3 4 -12 1 -19z m-2688 -63 c0 -5 -6 -1
-14 9 -8 11 -15 24 -15 30 0 5 7 1 15 -10 8 -10 14 -23 14 -29z m2788 39 c-3
-3 -12 -4 -19 -1 -8 3 -5 6 6 6 11 1 17 -2 13 -5z m100 0 c-3 -3 -12 -4 -19
-1 -8 3 -5 6 6 6 11 1 17 -2 13 -5z m-710 -10 c-3 -3 -12 -4 -19 -1 -8 3 -5 6
6 6 11 1 17 -2 13 -5z m-4859 -74 c57 -96 67 -145 67 -332 0 -93 -3 -168 -7
-168 -10 0 -36 133 -43 220 -9 119 -50 247 -102 318 -16 23 -16 24 18 20 29
-3 38 -11 67 -58z m5662 50 c0 -5 -2 -10 -4 -10 -3 0 -8 5 -11 10 -3 6 -1 10
4 10 6 0 11 -4 11 -10z m1047 -22 c-3 -7 -5 -2 -5 12 0 14 2 19 5 13 2 -7 2
-19 0 -25z m663 22 c0 -5 -2 -10 -4 -10 -3 0 -8 5 -11 10 -3 6 -1 10 4 10 6 0
11 -4 11 -10z m-5740 -25 c0 -8 -4 -15 -10 -15 -5 0 -7 7 -4 15 4 8 8 15 10
15 2 0 4 -7 4 -15z m5837 0 c0 -8 -4 -12 -9 -9 -4 3 -8 9 -8 15 0 5 4 9 8 9 5
0 9 -7 9 -15z m-5 -71 c2 -21 0 -33 -6 -31 -6 2 -10 16 -8 31 2 15 -2 35 -10
44 -11 15 -11 16 3 4 9 -7 19 -28 21 -48z m-4738 30 c3 -8 2 -12 -4 -9 -6 3
-10 10 -10 16 0 14 7 11 14 -7z m3503 -31 c-3 -10 -5 -4 -5 12 0 17 2 24 5 18
2 -7 2 -21 0 -30z m500 -5 c-3 -7 -5 -2 -5 12 0 14 2 19 5 13 2 -7 2 -19 0
-25z m-40 0 c-3 -8 -6 -5 -6 6 -1 11 2 17 5 13 3 -3 4 -12 1 -19z m740 0 c-3
-8 -6 -5 -6 6 -1 11 2 17 5 13 3 -3 4 -12 1 -19z m-4642 -26 c-3 -3 -11 0 -18
7 -9 10 -8 11 6 5 10 -3 15 -9 12 -12z m2182 -14 c-3 -8 -6 -5 -6 6 -1 11 2
17 5 13 3 -3 4 -12 1 -19z m-880 -10 c-3 -8 -6 -5 -6 6 -1 11 2 17 5 13 3 -3
4 -12 1 -19z m383 -33 c0 -19 -4 -35 -8 -35 -4 0 -6 16 -4 35 2 19 6 35 8 35
2 0 4 -16 4 -35z m1804 -44 c-6 -6 -11 1 -18 29 l-7 25 15 -25 c8 -14 12 -27
10 -29z m-2724 -18 c-1 -10 -39 39 -40 51 0 5 9 -3 20 -17 11 -14 20 -29 20
-34z m83 37 c3 -11 1 -18 -4 -14 -5 3 -9 12 -9 20 0 20 7 17 13 -6z m2535 6
c-7 -8 -15 -12 -17 -11 -5 6 10 25 20 25 5 0 4 -6 -3 -14z m-298 -6 c0 -5 -5
-10 -11 -10 -5 0 -7 5 -4 10 3 6 8 10 11 10 2 0 4 -4 4 -10z m-483 -22 c-3 -8
-6 -5 -6 6 -1 11 2 17 5 13 3 -3 4 -12 1 -19z m-1336 -11 c-10 -9 -11 -8 -5 6
3 10 9 15 12 12 3 -3 0 -11 -7 -18z m359 2 c0 -6 -4 -7 -10 -4 -5 3 -10 11
-10 16 0 6 5 7 10 4 6 -3 10 -11 10 -16z m-830 -29 c0 -5 -4 -10 -10 -10 -5 0
-10 5 -10 10 0 6 5 10 10 10 6 0 10 -4 10 -10z m2260 6 c0 -3 -4 -8 -10 -11
-5 -3 -10 -1 -10 4 0 6 5 11 10 11 6 0 10 -2 10 -4z m799 1 c-2 -1 -13 -9 -24
-17 -19 -14 -19 -14 -6 3 7 9 18 17 24 17 6 0 8 -1 6 -3z m-3642 -29 c-3 -8
-6 -5 -6 6 -1 11 2 17 5 13 3 -3 4 -12 1 -19z m1018 12 c-3 -5 -16 -15 -28
-21 -21 -10 -21 -9 2 10 25 23 36 27 26 11z m3162 -22 c-3 -7 -5 -2 -5 12 0
14 2 19 5 13 2 -7 2 -19 0 -25z m-537 13 c0 -5 -7 -12 -16 -15 -14 -5 -15 -4
-4 9 14 17 20 19 20 6z m-905 -11 c3 -6 -1 -7 -9 -4 -18 7 -21 14 -7 14 6 0
13 -4 16 -10z m539 -29 c-2 -3 -12 3 -22 13 -16 17 -16 18 5 5 12 -7 20 -15
17 -18z m-3304 4 c-7 -8 -22 -14 -34 -14 -20 1 -20 2 -1 6 11 3 24 9 30 14 15
14 19 10 5 -6z m2627 9 c-3 -3 -12 -4 -19 -1 -8 3 -5 6 6 6 11 1 17 -2 13 -5z
m-1657 -14 c0 -5 -4 -10 -10 -10 -5 0 -10 5 -10 10 0 6 5 10 10 10 6 0 10 -4
10 -10z m1315 0 c-3 -5 -14 -10 -23 -9 -14 0 -13 2 3 9 27 11 27 11 20 0z
m1223 3 c-10 -2 -26 -2 -35 0 -10 3 -2 5 17 5 19 0 27 -2 18 -5z m102 3 c0 -3
-4 -8 -10 -11 -5 -3 -10 -1 -10 4 0 6 5 11 10 11 6 0 10 -2 10 -4z m525 -6
c-3 -5 -16 -10 -28 -9 -21 0 -21 1 -2 9 28 12 37 12 30 0z m-4558 -6 c-3 -3
-12 -4 -19 -1 -8 3 -5 6 6 6 11 1 17 -2 13 -5z m1210 0 c-3 -3 -12 -4 -19 -1
-8 3 -5 6 6 6 11 1 17 -2 13 -5z m1898 -4 c3 -6 -1 -7 -9 -4 -18 7 -21 14 -7
14 6 0 13 -4 16 -10z m742 4 c-3 -3 -12 -4 -19 -1 -8 3 -5 6 6 6 11 1 17 -2
13 -5z m830 0 c-3 -3 -12 -4 -19 -1 -8 3 -5 6 6 6 11 1 17 -2 13 -5z m2899
-66 c-15 -128 -75 -238 -182 -334 -109 -96 -117 -101 -112 -56 2 17 24 49 58
84 91 93 161 185 174 226 4 12 11 22 16 22 5 0 12 16 16 35 3 19 10 38 15 41
5 3 9 14 9 25 0 10 3 19 6 19 4 0 3 -28 0 -62z m-9398 -259 c51 -10 99 -22
107 -26 7 -5 -52 -8 -133 -8 -106 -1 -165 -6 -212 -18 -68 -18 -210 -85 -210
-99 0 -4 -4 -8 -10 -8 -17 0 -11 49 9 69 58 58 201 110 301 109 30 0 97 -9
148 -19z m905 -6 c42 -9 77 -19 77 -22 0 -3 -64 -6 -143 -6 -185 -1 -300 -30
-392 -101 l-33 -25 -5 26 c-9 50 83 110 228 149 33 8 185 -3 268 -21z m874 -1
c39 -10 75 -21 79 -25 4 -4 -30 -5 -77 -1 -168 12 -343 -24 -446 -92 l-53 -34
0 31 c0 18 7 38 18 46 42 33 106 66 164 84 75 22 198 19 315 -9z m778 18 c195
-32 201 -45 22 -46 -184 -1 -302 -31 -394 -101 l-33 -24 0 29 c0 51 71 101
190 133 75 20 130 23 215 9z m898 -5 c40 -8 90 -22 112 -30 38 -13 35 -14 -60
-8 -173 9 -337 -26 -434 -92 -48 -33 -49 -33 -55 -12 -16 62 166 154 307 156
32 1 90 -6 130 -14z m917 -9 c109 -28 111 -35 9 -29 -168 10 -341 -26 -439
-92 l-50 -34 0 28 c0 44 60 90 168 128 58 20 80 22 162 18 52 -3 120 -11 150
-19z m811 9 c46 -8 104 -21 129 -29 44 -14 43 -14 -55 -9 -177 9 -347 -26
-443 -91 l-50 -33 -5 24 c-8 45 68 99 188 134 75 22 130 23 236 4z m875 1 c44
-8 96 -21 115 -29 32 -14 28 -14 -66 -10 -174 9 -350 -32 -442 -103 l-33 -25
0 34 c0 25 7 38 28 54 46 34 94 56 162 74 82 22 134 23 236 5z m942 -15 c41
-11 76 -22 79 -24 3 -3 -37 -3 -89 0 -169 10 -340 -26 -438 -92 l-50 -34 0 31
c0 48 65 94 185 130 74 22 205 18 313 -11z m830 7 c61 -12 112 -24 112 -27 0
-3 -62 -6 -137 -6 -189 -1 -309 -31 -399 -100 -41 -31 -43 -31 -40 0 5 48 68
96 168 129 97 32 150 33 296 4z m903 -4 c44 -10 79 -21 79 -25 0 -4 -42 -5
-92 -2 -162 9 -332 -27 -427 -91 l-51 -35 0 31 c0 48 70 96 190 130 76 21 176
18 301 -8z"/>
<path d="M5178 6473 c7 -3 16 -2 19 1 4 3 -2 6 -13 5 -11 0 -14 -3 -6 -6z"/>
<path d="M5301 6334 c0 -11 3 -14 6 -6 3 7 2 16 -1 19 -3 4 -6 -2 -5 -13z"/>
<path d="M5620 6224 c-89 -19 -110 -37 -140 -122 -21 -63 -23 -73 -10 -96 26
-49 56 -61 160 -61 116 0 152 16 181 78 25 57 24 106 -4 148 -21 31 -28 34
-77 37 -50 2 -63 -2 -130 -42 -41 -24 -77 -42 -79 -40 -13 12 49 55 107 74 75
25 77 26 65 33 -4 2 -37 -2 -73 -9z m100 -159 c-10 -12 -16 -13 -26 -4 -20 17
-17 27 9 31 27 4 33 -7 17 -27z m-83 -11 c3 -9 15 -19 26 -23 18 -7 14 -10
-26 -24 -46 -15 -47 -15 -47 4 0 45 34 76 47 43z"/>
<path d="M5515 5861 c-10 -17 7 -92 27 -114 l20 -22 -5 23 c-5 23 11 30 29 12
7 -7 22 -4 47 9 l37 19 -25 26 c-39 42 -116 69 -130 47z"/>
<path d="M5755 5695 c-22 -8 -52 -14 -67 -14 -16 -1 -33 -9 -40 -21 -7 -11
-18 -20 -25 -20 -22 0 -14 -25 15 -53 32 -30 73 -35 97 -11 8 9 25 35 36 58
12 22 28 49 37 59 19 21 7 21 -53 2z m-45 -107 c-33 -26 -45 -11 -12 17 16 14
29 19 31 13 2 -7 -6 -20 -19 -30z"/>
<path d="M6010 4460 c-45 -4 -55 -9 -58 -25 -3 -11 -1 -17 3 -13 12 11 35 -12
35 -34 0 -24 -57 -169 -72 -183 -7 -7 -9 1 -5 25 4 26 -3 52 -24 98 -34 74
-34 72 -10 72 21 0 37 32 26 50 -6 10 -179 4 -197 -6 -3 -2 -4 -13 -1 -24 4
-14 11 -19 24 -15 14 5 22 -5 39 -42 12 -26 23 -58 23 -70 1 -11 5 -19 8 -17
3 2 18 -25 33 -59 21 -50 26 -78 26 -144 0 -62 -3 -83 -13 -83 -21 0 -35 -20
-30 -41 5 -17 15 -19 88 -19 96 0 115 5 115 30 0 23 -14 33 -48 34 -14 1 -27
7 -30 15 -3 8 0 11 6 7 15 -9 22 18 22 81 0 79 80 293 115 306 21 9 19 54 -2
58 -10 2 -43 2 -73 -1z m0 -36 c0 -8 -4 -12 -10 -9 -5 3 -10 10 -10 16 0 5 5
9 10 9 6 0 10 -7 10 -16z m-179 -134 c50 -108 53 -121 57 -207 2 -51 0 -93 -5
-93 -4 0 -7 34 -5 75 4 85 4 86 -68 245 -28 63 -47 111 -42 105 6 -5 34 -62
63 -125z"/>
<path d="M6338 4452 c-49 -3 -58 -6 -58 -22 0 -11 9 -24 20 -30 17 -9 20 -8
20 7 1 15 2 16 10 3 5 -9 4 -88 -4 -195 -12 -177 -23 -225 -53 -225 -30 0 -20
-59 11 -61 112 -7 131 -4 134 19 2 14 -5 29 -20 41 -21 18 -23 25 -21 115 2
52 -1 105 -6 118 -5 13 -11 48 -14 78 -5 43 -1 32 18 -45 21 -86 56 -240 71
-312 3 -16 12 -23 27 -23 20 0 27 15 65 124 27 79 42 143 43 177 1 30 5 68 9
84 8 31 4 -145 -6 -263 -5 -55 -9 -64 -30 -72 -28 -11 -33 -46 -6 -53 9 -3 60
-8 112 -11 52 -4 118 -9 147 -12 46 -6 52 -4 58 16 4 14 1 28 -9 39 -19 21
-21 60 -4 96 9 20 18 25 49 25 32 0 37 3 32 18 -4 13 -3 14 6 6 7 -6 15 -42
18 -81 5 -65 4 -70 -16 -76 -30 -8 -28 -45 5 -57 14 -6 49 -10 77 -10 29 -1
72 -5 97 -10 25 -5 78 -13 118 -16 l72 -7 0 30 c0 23 -5 32 -21 36 -20 6 -21
10 -14 69 5 35 8 76 8 92 l0 29 14 -27 c8 -15 12 -35 8 -44 -3 -9 -3 -13 1 -9
9 9 54 -94 47 -106 -10 -16 20 -68 46 -81 94 -47 144 -9 88 67 -13 18 -37 63
-53 101 -24 58 -26 70 -14 74 31 11 69 64 79 111 21 100 -25 170 -116 178 -27
2 -75 8 -108 13 -91 15 -115 13 -112 -7 6 -41 32 -57 40 -25 13 50 4 -53 -18
-203 -32 -218 -30 -212 -68 -218 -18 -2 -33 -4 -34 -3 -2 2 -57 310 -74 416
-15 88 -25 98 -86 79 -42 -13 -48 -18 -50 -44 -1 -17 0 -24 3 -17 7 16 24 16
24 -1 0 -7 -22 -69 -48 -137 -27 -69 -56 -145 -66 -170 -18 -47 -76 -104 -84
-82 -2 7 -13 13 -25 13 -15 1 -17 3 -6 6 13 3 17 26 22 121 13 234 18 270 38
275 23 6 35 35 22 48 -6 6 -38 11 -73 12 l-63 2 -17 -40 c-9 -22 -37 -97 -61
-167 -24 -71 -47 -128 -51 -128 -11 0 -10 28 1 48 9 17 -13 138 -45 248 -17
58 -21 60 -106 56z m78 -252 c25 -106 43 -194 40 -197 -6 -6 -10 8 -50 187
-20 85 -40 170 -46 189 -6 24 -6 31 1 24 5 -5 30 -97 55 -203z m218 193 c-2
-10 -8 -106 -14 -213 -6 -109 -16 -199 -22 -205 -7 -7 -9 -4 -5 10 3 11 8 72
11 135 12 216 18 290 26 290 5 0 6 -8 4 -17z m325 -217 c33 -194 37 -236 20
-236 -6 0 -8 8 -4 19 5 17 -44 335 -62 396 -3 14 -2 17 5 10 6 -5 25 -91 41
-189z m281 155 c0 -20 -47 -348 -56 -388 -2 -13 -9 -23 -14 -23 -5 0 -5 11 0
28 11 36 53 328 52 370 0 17 4 32 9 32 5 0 9 -9 9 -19z m126 -42 c4 -8 9 -7
15 2 12 20 11 -57 -1 -103 -6 -21 -18 -44 -26 -53 -17 -17 -94 -21 -94 -5 0 6
8 10 19 10 15 0 19 10 25 57 10 86 16 103 36 103 11 0 22 -5 26 -11z m54 -47
c0 -41 -28 -112 -44 -112 -2 0 3 15 12 33 9 17 16 55 17 84 0 28 3 49 8 46 4
-2 7 -25 7 -51z m-494 -34 c8 -40 14 -74 14 -75 0 -2 -20 -3 -45 -3 -25 0 -45
5 -45 10 0 6 9 10 20 10 29 0 43 36 37 93 -9 72 3 51 19 -35z m427 -211 c20
-48 32 -85 27 -82 -7 5 -70 159 -70 173 0 13 10 -8 43 -91z m-1023 -7 c0 -5
-7 -10 -16 -10 -8 0 -12 5 -9 10 3 6 10 10 16 10 5 0 9 -4 9 -10z m446 -37
c-10 -10 -19 5 -10 18 6 11 8 11 12 0 2 -7 1 -15 -2 -18z"/>
<path d="M5375 4431 c-43 -5 -50 -9 -47 -26 5 -25 26 -39 30 -20 2 8 7 15 11
15 10 0 18 -87 27 -280 l7 -146 -27 -12 c-14 -6 -26 -18 -26 -26 0 -28 32 -34
135 -25 105 8 175 25 175 42 0 6 3 7 6 4 9 -9 62 60 81 103 8 19 15 69 16 110
1 62 -3 84 -25 130 -36 75 -75 116 -123 129 -42 11 -154 12 -240 2z m44 -234
c14 -220 14 -227 0 -227 -6 0 -9 7 -5 15 5 13 -6 227 -19 365 -3 35 -2 49 4
40 5 -8 14 -95 20 -193z m112 183 c42 0 92 -28 85 -46 -3 -8 -2 -12 4 -9 15 9
32 -72 32 -156 0 -84 -16 -130 -57 -169 -26 -24 -98 -39 -109 -21 -4 6 0 11 9
11 13 0 16 6 12 23 -5 21 -22 301 -20 340 2 40 5 52 10 40 2 -7 18 -13 34 -13z
m147 -188 c5 -103 -13 -173 -50 -193 -19 -10 -19 -9 2 19 50 67 52 194 6 337
-3 11 4 0 16 -25 16 -33 23 -69 26 -138z"/>
<path d="M4491 4255 c1 -19 18 -51 18 -35 0 8 -4 22 -9 30 -5 8 -9 11 -9 5z"/>
<path d="M4522 4240 c0 -14 2 -19 5 -12 2 6 2 18 0 25 -3 6 -5 1 -5 -13z"/>
<path d="M4481 4174 c0 -11 3 -14 6 -6 3 7 2 16 -1 19 -3 4 -6 -2 -5 -13z"/>
<path d="M4512 4155 c0 -16 2 -22 5 -12 2 9 2 23 0 30 -3 6 -5 -1 -5 -18z"/>
<path d="M7710 4215 c0 -8 4 -15 10 -15 5 0 7 7 4 15 -4 8 -8 15 -10 15 -2 0
-4 -7 -4 -15z"/>
<path d="M2001 3244 c0 -11 3 -14 6 -6 3 7 2 16 -1 19 -3 4 -6 -2 -5 -13z"/>
<path d="M9740 3353 c-24 -9 -50 -35 -44 -44 3 -5 -2 -9 -10 -9 -24 0 -45 -39
-40 -74 4 -26 3 -28 -5 -11 -7 14 -8 -7 -4 -69 4 -66 3 -87 -6 -82 -6 4 -11 1
-11 -8 0 -9 5 -16 10 -16 12 0 13 -37 2 -44 -9 -6 -6 -307 3 -337 4 -12 2 -19
-6 -19 -10 0 -10 -3 -1 -12 7 -7 12 -23 12 -37 0 -34 35 -91 56 -91 31 0 84
33 113 69 15 20 47 70 71 111 50 88 66 107 101 126 24 12 27 11 40 -12 10 -19
10 -27 2 -32 -7 -4 -28 -43 -48 -87 -21 -44 -42 -90 -48 -102 -13 -28 -82
-106 -204 -228 -89 -90 -92 -95 -98 -150 -4 -32 -4 -113 -1 -181 4 -67 7 -222
7 -343 0 -245 10 -311 58 -371 38 -49 91 -72 175 -78 337 -21 586 304 586 763
0 304 -58 875 -105 1038 -29 99 -164 245 -270 290 -102 44 -283 64 -314 35
-11 -10 -13 -10 -7 0 4 6 6 12 4 11 -2 0 -10 -3 -18 -6z m430 -559 c6 -14 17
-32 25 -40 8 -9 15 -33 15 -54 l0 -38 -75 -4 c-41 -2 -75 -1 -75 3 0 25 81 41
95 19 11 -17 25 0 25 30 0 44 -18 76 -53 93 l-32 16 33 0 c26 1 34 -4 42 -25z
m32 -196 c-9 -9 -12 -9 -12 0 0 8 -11 4 -29 -9 -39 -28 -61 -15 -24 14 15 12
31 21 35 20 5 -2 8 2 8 9 0 8 6 6 17 -5 13 -13 15 -19 5 -29z m-118 -30 c-8
-13 -48 16 -52 37 -3 14 1 14 27 -6 16 -12 28 -26 25 -31z m141 -45 c-4 -27
-13 -56 -22 -65 -11 -12 -12 -21 -4 -37 16 -29 14 -46 -3 -32 -10 8 -22 7 -49
-4 -47 -19 -60 -19 -87 3 -18 14 -21 25 -16 45 13 55 67 74 114 41 29 -20 33
-16 39 40 3 25 9 43 14 40 5 -3 9 0 9 5 0 6 3 11 6 11 4 0 3 -21 -1 -47z m-5
-180 c0 -38 -24 -101 -61 -164 -55 -92 -62 -120 -39 -164 20 -39 10 -48 -14
-13 -30 43 -17 95 49 203 14 22 30 66 36 98 11 53 29 79 29 40z m-564 -109
c-4 -9 -9 -15 -11 -12 -3 3 -3 13 1 22 4 9 9 15 11 12 3 -3 3 -13 -1 -22z"/>
<path d="M10082 2458 c-17 -17 -15 -49 5 -63 21 -16 56 -2 77 30 14 21 13 23
-10 34 -32 14 -57 14 -72 -1z"/>
<path d="M9533 1083 c9 -2 23 -2 30 0 6 3 -1 5 -18 5 -16 0 -22 -2 -12 -5z"/>
<path d="M3766 2937 c-9 -19 -16 -40 -16 -46 0 -12 -44 -124 -60 -152 -32 -59
-18 -140 28 -158 55 -21 224 -18 246 5 27 27 17 64 -62 224 -86 173 -105 191
-136 127z"/>
</g>
</svg>
