<?xml version="1.0" standalone="no"?>
<!DOCTYPE svg PUBLIC "-//W3C//DTD SVG 20010904//EN"
 "http://www.w3.org/TR/2001/REC-SVG-20010904/DTD/svg10.dtd">
<svg version="1.0" xmlns="http://www.w3.org/2000/svg"
 width="197.000000pt" height="255.000000pt" viewBox="0 0 197.000000 255.000000"
 preserveAspectRatio="xMidYMid meet">
<metadata>
Created by potrace 1.10, written by Peter Selinger 2001-2011
</metadata>
<g transform="translate(0.000000,255.000000) scale(0.100000,-0.100000)"
fill="#000000" stroke="none">
<path d="M1323 2278 c-6 -7 -20 -32 -32 -55 -18 -37 -24 -61 -35 -143 -2 -16
-9 -25 -21 -25 -23 0 -55 90 -57 162 -1 29 -5 50 -10 47 -15 -10 -8 -79 16
-149 24 -70 25 -85 4 -85 -6 0 -20 -7 -30 -17 -24 -21 -34 -10 -20 22 26 57 6
144 -40 176 -30 22 -30 22 -19 1 17 -33 13 -80 -9 -102 -12 -12 -25 -18 -30
-15 -15 9 -32 75 -26 99 6 26 -25 66 -52 66 -22 0 -46 -18 -60 -44 -7 -15 -5
-30 9 -60 76 -168 94 -204 112 -223 25 -28 19 -29 -36 -2 -30 15 -53 20 -71
15 -28 -7 -34 -27 -13 -44 10 -9 118 -32 150 -32 5 0 7 -10 5 -22 -3 -24 -40
-35 -173 -54 -44 -6 -48 -5 -37 9 32 38 125 60 180 42 13 -3 22 -2 22 4 0 5
-24 13 -54 16 -42 6 -63 3 -97 -13 -89 -39 -99 -91 -14 -72 57 13 75 11 40 -4
-37 -16 -70 -52 -84 -89 -17 -44 -4 -50 37 -17 37 29 150 85 157 78 2 -2 2
-13 -1 -25 -4 -13 -19 -24 -42 -32 -48 -14 -101 -47 -109 -66 -6 -18 23 -55
44 -55 7 0 33 18 57 40 24 22 45 40 48 40 3 0 5 -13 6 -28 2 -66 47 -135 67
-102 4 6 13 5 26 -3 17 -10 22 -9 33 5 12 16 14 16 33 -3 19 -19 21 -19 37 -4
9 9 16 24 16 33 0 9 5 34 11 55 9 34 13 37 47 37 20 0 46 -7 56 -15 12 -9 42
-15 76 -15 104 0 132 55 32 62 l-47 3 36 23 c24 14 52 22 81 22 24 0 49 5 56
12 19 19 -4 46 -48 53 -42 7 -65 25 -31 25 32 0 71 22 71 40 0 22 -28 46 -63
54 l-28 7 23 19 23 20 -24 20 c-17 15 -38 20 -79 20 l-55 0 70 73 c38 39 78
87 87 106 17 32 17 34 -5 57 -12 13 -26 24 -30 24 -21 0 -65 -53 -79 -96 -23
-69 -44 -65 -50 10 -6 66 -20 80 -45 42 -17 -25 -13 -41 41 -163 3 -6 -11 -3
-32 8 -21 10 -46 16 -56 13 -15 -4 -18 1 -18 29 0 47 26 129 51 161 12 15 19
29 17 32 -3 2 -10 -1 -15 -8z m-342 -38 c14 -8 19 -21 19 -51 0 -49 24 -109
44 -109 25 0 68 61 63 89 -5 23 -4 24 8 7 27 -37 27 -89 0 -172 -37 -114 -39
-116 -75 -74 -16 19 -35 51 -41 70 -6 19 -19 51 -29 70 -10 19 -28 57 -40 83
l-22 48 23 25 c26 28 24 27 50 14z m556 -26 c3 -8 -3 -31 -13 -50 -19 -34
-121 -142 -127 -133 -1 2 -13 27 -26 55 -27 59 -32 115 -12 122 10 3 12 -3 9
-29 -6 -36 6 -79 25 -91 20 -12 44 11 50 48 6 38 50 94 74 94 8 0 16 -7 20
-16z m-168 -216 c24 -37 26 -38 82 -38 68 0 82 -13 39 -35 -40 -21 -34 -39 14
-43 21 -1 47 -9 58 -16 20 -14 20 -14 -2 -26 -12 -7 -49 -10 -86 -8 -38 2 -64
-1 -64 -7 1 -19 66 -52 115 -59 74 -10 80 -26 11 -26 -51 0 -64 -4 -112 -39
-68 -49 -58 -64 37 -55 52 4 60 3 45 -7 -27 -16 -107 -14 -144 5 -69 36 -122
9 -122 -60 0 -72 -26 -85 -55 -26 l-19 37 -5 -34 c-8 -47 -27 -50 -38 -5 -12
52 -30 54 -25 4 5 -46 -10 -53 -27 -12 -51 125 -16 343 68 420 43 39 124 72
171 69 28 -2 40 -9 59 -39z m-357 -93 c29 -14 50 -25 46 -25 -6 0 -78 13 -136
26 -13 2 -20 9 -17 14 10 17 51 11 107 -15z m27 -129 c-10 -11 -179 -92 -179
-86 0 16 35 52 68 70 31 16 125 29 111 16z m-51 -141 c-51 -49 -92 -60 -86
-23 3 24 77 68 112 68 18 0 13 -8 -26 -45z"/>
<path d="M1175 1859 c4 -5 22 -9 42 -9 45 0 40 5 -10 13 -22 3 -35 2 -32 -4z"/>
<path d="M436 1992 c-4 -7 -9 -340 -6 -430 0 -10 35 -12 158 -10 l157 3 3 36
c4 53 -11 61 -117 57 l-91 -3 -2 175 -3 175 -47 3 c-25 2 -49 -1 -52 -6z m84
-175 c0 -115 4 -168 13 -180 9 -13 31 -17 105 -18 71 -1 92 -5 92 -15 0 -8 -5
-14 -11 -14 -5 0 -7 -4 -4 -10 4 -6 -42 -10 -129 -10 l-136 0 0 205 0 205 35
0 35 0 0 -163z"/>
<path d="M540 1391 c-111 -36 -170 -115 -170 -228 1 -109 62 -188 169 -219 64
-19 125 -13 188 17 50 24 54 44 19 82 l-25 27 -46 -21 c-34 -15 -57 -19 -83
-14 -48 9 -98 61 -108 110 -13 72 53 155 124 155 11 0 43 -7 71 -16 50 -17 51
-17 70 7 31 37 26 56 -21 80 -46 23 -146 34 -188 20z m170 -36 c17 -9 30 -22
30 -29 0 -19 -30 -42 -38 -30 -4 5 -25 16 -48 23 -37 12 -45 11 -85 -7 -60
-28 -76 -43 -94 -85 -19 -46 -19 -77 1 -127 30 -74 137 -113 210 -75 20 10 32
11 41 3 29 -24 6 -51 -58 -68 -54 -15 -114 -7 -167 20 -51 27 -76 55 -97 112
-37 99 6 212 96 256 54 26 165 30 209 7z"/>
<path d="M925 1380 c-9 -15 -46 -420 -40 -431 9 -14 91 -11 103 4 6 7 14 61
18 120 4 60 10 104 14 100 3 -4 24 -55 46 -112 42 -112 63 -134 107 -114 17 8
33 38 61 114 22 57 42 108 46 112 4 5 10 -40 14 -100 4 -59 12 -114 18 -120
12 -15 94 -17 103 -4 6 11 -31 416 -40 431 -9 14 -101 12 -112 -2 -6 -7 -32
-70 -59 -140 -27 -70 -51 -128 -54 -128 -3 0 -27 58 -54 128 -27 70 -53 133
-59 140 -11 14 -103 16 -112 2z m146 -134 c51 -128 74 -165 92 -147 5 5 34 68
62 138 l52 128 42 3 c22 2 41 0 41 -4 0 -12 30 -329 34 -361 4 -27 1 -32 -21
-38 -41 -10 -50 8 -58 115 -11 157 -35 154 -100 -12 -32 -83 -42 -98 -60 -98
-29 0 -35 9 -74 110 -19 47 -39 91 -46 99 -23 24 -45 6 -45 -36 0 -21 -3 -68
-6 -105 -7 -64 -8 -67 -36 -74 -17 -3 -33 -2 -38 2 -4 5 1 90 11 189 10 99 18
187 18 196 1 13 11 16 43 15 l42 -1 47 -119z"/>
<path d="M420 665 c0 -45 0 -45 35 -45 19 0 35 5 35 10 0 6 -10 10 -23 10 -20
0 -23 4 -19 35 3 27 1 35 -12 35 -12 0 -16 -10 -16 -45z"/>
<path d="M519 689 c-17 -33 3 -69 39 -69 33 0 52 16 52 45 0 29 -19 45 -52 45
-18 0 -31 -7 -39 -21z m68 -33 c-8 -20 -43 -21 -51 -1 -3 8 2 22 11 30 14 15
18 15 31 1 8 -8 12 -22 9 -30z"/>
<path d="M649 668 c5 -35 10 -44 29 -46 33 -5 52 15 52 54 0 24 -5 34 -15 34
-10 0 -15 -11 -15 -35 0 -24 -5 -35 -15 -35 -10 0 -15 11 -15 35 0 22 -5 35
-13 35 -10 0 -12 -11 -8 -42z"/>
<path d="M765 665 c0 -29 4 -45 13 -45 8 0 12 16 12 45 0 29 -4 45 -12 45 -9
0 -13 -16 -13 -45z"/>
<path d="M837 703 c-15 -14 -6 -34 20 -44 19 -7 23 -13 15 -21 -8 -8 -15 -8
-27 2 -12 10 -15 10 -15 -4 0 -13 7 -17 32 -14 42 4 50 33 14 49 -34 16 -33
31 0 23 19 -5 25 -4 20 5 -8 12 -48 15 -59 4z"/>
<path d="M935 665 c0 -29 4 -45 13 -45 8 0 12 16 12 45 0 29 -4 45 -12 45 -9
0 -13 -16 -13 -45z"/>
<path d="M1009 665 c-14 -37 -14 -45 -3 -45 8 0 14 5 14 10 0 6 9 10 20 10 11
0 20 -4 20 -10 0 -5 7 -10 15 -10 11 0 11 7 -5 43 -25 56 -42 57 -61 2z m41
-1 c0 -8 -6 -14 -14 -14 -9 0 -12 7 -9 20 6 22 23 18 23 -6z"/>
<path d="M1110 665 c0 -35 4 -45 16 -45 12 0 15 6 10 28 l-6 27 23 -27 c12
-16 26 -28 30 -28 4 0 7 20 7 45 0 25 -4 45 -10 45 -5 0 -10 -12 -10 -27 l-1
-28 -17 28 c-25 41 -42 34 -42 -18z"/>
<path d="M1238 665 c-14 -37 -14 -45 -3 -45 7 0 15 6 18 13 3 9 9 9 27 -1 12
-7 24 -11 26 -9 9 8 -28 87 -40 87 -6 0 -19 -20 -28 -45z m42 -7 c0 -5 -6 -8
-14 -8 -9 0 -12 7 -9 21 4 16 8 17 14 7 5 -7 9 -16 9 -20z"/>
<path d="M438 529 c-28 -16 -23 -67 6 -81 26 -11 56 -5 56 11 0 5 -12 9 -27 8
-24 -2 -28 2 -28 23 0 21 4 25 28 23 18 -1 27 2 24 10 -5 16 -38 19 -59 6z"/>
<path d="M540 490 c0 -27 5 -50 10 -50 6 0 10 9 10 20 0 13 7 20 20 20 13 0
20 -7 20 -20 0 -11 5 -20 10 -20 6 0 10 23 10 50 0 28 -4 50 -10 50 -5 0 -10
-9 -10 -20 0 -13 -7 -20 -20 -20 -13 0 -20 7 -20 20 0 11 -4 20 -10 20 -5 0
-10 -22 -10 -50z"/>
<path d="M660 490 c0 -27 5 -50 10 -50 6 0 10 23 10 50 0 28 -4 50 -10 50 -5
0 -10 -22 -10 -50z"/>
<path d="M720 490 l0 -50 35 0 c19 0 35 5 35 10 0 6 -9 10 -20 10 -17 0 -20 7
-20 40 0 29 -4 40 -15 40 -11 0 -15 -12 -15 -50z"/>
<path d="M820 490 c0 -49 1 -50 29 -50 33 0 61 23 61 49 0 25 -32 51 -63 51
-26 0 -27 -2 -27 -50z m60 15 c10 -12 10 -18 0 -30 -21 -25 -40 -18 -40 15 0
33 19 40 40 15z"/>
<path d="M940 490 c0 -27 5 -50 10 -50 6 0 10 9 10 20 0 11 4 20 9 20 5 0 11
-9 14 -20 5 -21 31 -27 42 -10 3 6 -1 10 -9 10 -19 0 -20 4 -4 29 16 26 -5 51
-43 51 -28 0 -29 -2 -29 -50z m53 15 c1 -5 -6 -11 -15 -13 -11 -2 -18 3 -18
13 0 17 30 18 33 0z"/>
<path d="M1060 490 c0 -49 1 -50 29 -50 17 0 33 5 36 10 4 6 -5 10 -19 10 -14
0 -26 5 -26 10 0 6 9 10 20 10 11 0 20 5 20 10 0 6 -9 10 -20 10 -11 0 -20 5
-20 10 0 6 12 10 26 10 14 0 23 4 19 10 -3 6 -19 10 -36 10 -28 0 -29 -1 -29
-50z"/>
<path d="M1160 490 c0 -39 3 -50 16 -50 12 0 15 6 10 25 -4 14 -3 25 2 25 5 0
15 -11 22 -25 20 -38 30 -30 30 25 0 28 -4 50 -10 50 -5 0 -10 -12 -10 -27
l-1 -28 -20 28 c-30 39 -39 34 -39 -23z"/>
<path d="M1283 513 c0 -25 0 -25 13 -8 13 18 11 35 -5 35 -5 0 -8 -12 -8 -27z"/>
<path d="M1353 533 c-23 -9 -15 -42 12 -49 38 -9 31 -27 -7 -19 -31 7 -32 6
-16 -10 11 -12 24 -16 43 -11 32 8 31 36 -3 51 -28 12 -29 29 -1 20 15 -5 20
-3 17 6 -5 15 -26 21 -45 12z"/>
<path d="M426 329 c-8 -43 -8 -59 3 -59 5 0 11 12 13 28 l4 27 12 -27 c6 -16
15 -28 20 -28 4 0 13 12 19 28 l11 27 1 -27 c1 -16 6 -28 11 -28 7 0 10 19 9
45 -3 54 -25 61 -41 14 l-11 -31 -13 31 c-17 39 -30 39 -38 0z"/>
<path d="M568 320 c5 -49 29 -66 60 -44 15 11 22 26 22 50 0 49 -28 46 -32 -3
-2 -21 -7 -38 -13 -38 -5 0 -11 17 -13 38 -2 21 -9 37 -15 37 -9 0 -11 -13 -9
-40z"/>
<path d="M687 353 c-14 -14 -6 -34 18 -43 14 -5 25 -14 25 -20 0 -13 -13 -13
-28 2 -6 6 -15 8 -19 4 -14 -14 28 -36 48 -25 26 14 24 37 -6 51 -29 13 -24
29 7 20 14 -3 19 -2 14 6 -8 13 -48 16 -59 5z"/>
<path d="M780 315 c0 -45 0 -45 35 -45 19 0 35 5 35 10 0 6 -12 10 -26 10 -15
0 -23 4 -19 11 4 6 13 8 21 5 8 -3 14 -1 14 4 0 6 -9 10 -20 10 -11 0 -20 5
-20 10 0 6 11 10 25 10 14 0 25 5 25 10 0 6 -16 10 -35 10 -35 0 -35 0 -35
-45z"/>
<path d="M885 323 c7 -75 70 -77 77 -3 2 27 0 40 -9 40 -6 0 -13 -16 -15 -37
-2 -21 -7 -38 -13 -38 -5 0 -11 17 -13 38 -2 23 -8 37 -17 37 -9 0 -12 -11
-10 -37z"/>
<path d="M1006 344 c-10 -25 -7 -74 4 -74 6 0 10 12 11 28 l1 27 11 -27 c6
-16 16 -28 22 -28 6 0 16 12 22 28 l11 27 1 -27 c1 -33 21 -38 21 -5 0 33 -11
67 -21 67 -5 0 -15 -15 -22 -32 l-13 -33 -12 33 c-12 35 -26 41 -36 16z"/>
</g>
</svg>
