<?xml version="1.0" standalone="no"?>
<!DOCTYPE svg PUBLIC "-//W3C//DTD SVG 20010904//EN"
 "http://www.w3.org/TR/2001/REC-SVG-20010904/DTD/svg10.dtd">
<svg version="1.0" xmlns="http://www.w3.org/2000/svg"
 width="225.000000pt" height="225.000000pt" viewBox="0 0 225.000000 225.000000"
 preserveAspectRatio="xMidYMid meet">

<g transform="translate(0.000000,225.000000) scale(0.100000,-0.100000)"
fill="#000000" stroke="none">
<path d="M1523 1908 c-15 -20 -25 -38 -20 -38 3 0 12 11 21 25 17 26 16 35 -1
13z"/>
<path d="M1341 1849 c0 -35 8 -84 21 -125 12 -38 22 -72 23 -76 0 -9 -76 -60
-82 -54 -3 2 1 29 7 59 16 68 -6 155 -45 181 -33 22 -36 20 -19 -13 8 -17 12
-40 9 -54 -8 -30 -40 -67 -59 -67 -19 0 -36 45 -36 98 0 63 -21 92 -65 92 -24
0 -39 -7 -54 -26 -24 -31 -26 -52 -7 -79 7 -11 17 -31 21 -45 13 -42 103 -228
114 -235 6 -3 11 -11 11 -17 0 -6 -10 -4 -23 5 -59 38 -147 40 -147 2 0 -20
49 -40 119 -49 69 -9 91 -20 84 -44 -5 -20 -27 -26 -175 -52 -91 -16 -102 -9
-44 28 60 39 103 48 158 34 40 -10 58 -9 45 4 -3 3 -33 8 -66 11 -90 8 -198
-40 -189 -84 4 -20 23 -21 98 -10 l45 8 -35 -20 c-46 -25 -75 -58 -94 -103
-20 -48 -5 -58 35 -24 32 27 167 96 189 96 7 0 10 -7 6 -16 -3 -9 -6 -21 -6
-29 0 -7 -16 -15 -36 -18 -44 -7 -120 -51 -134 -77 -8 -15 -5 -25 13 -46 29
-33 53 -28 113 28 l43 40 6 -29 c23 -112 41 -142 76 -126 17 7 29 7 42 -1 14
-9 21 -7 35 12 17 22 17 22 30 2 15 -25 48 -26 61 -2 5 9 12 39 16 65 4 26 14
55 22 62 20 21 66 19 94 -4 41 -32 153 -32 194 1 26 20 27 22 9 35 -10 7 -38
13 -63 13 l-46 1 28 24 c21 19 40 25 75 25 60 0 89 8 96 26 10 26 -6 44 -48
55 -72 20 -73 21 -21 38 41 13 51 21 53 42 4 30 -11 44 -64 62 -37 13 -38 14
-16 26 55 30 2 74 -88 73 -33 0 -60 3 -60 7 0 5 29 37 66 72 66 65 124 144
124 170 -1 21 -36 59 -54 59 -30 0 -77 -54 -95 -110 -14 -41 -23 -55 -37 -55
-17 0 -19 8 -20 65 -1 60 -3 65 -24 68 -12 2 -27 -2 -31 -10 -12 -18 -11 -65
1 -87 5 -10 18 -41 29 -68 l20 -50 -35 18 c-20 10 -47 15 -64 12 -29 -4 -30
-3 -30 35 0 21 7 61 15 87 8 27 13 51 11 53 -7 7 -29 -73 -35 -128 -5 -46 -9
-55 -28 -58 -18 -3 -25 6 -42 54 -12 31 -26 89 -30 128 l-8 71 -2 -56z m-211
16 c7 -8 12 -27 12 -43 -2 -42 18 -109 38 -127 17 -15 20 -14 51 13 28 25 34
37 34 71 0 35 2 39 11 26 7 -9 18 -38 24 -65 10 -44 9 -56 -20 -147 -42 -132
-43 -133 -76 -103 -24 23 -113 195 -129 250 -4 14 -14 34 -21 45 -19 26 -18
38 7 69 23 29 50 34 69 11z m644 -21 c14 -14 14 -19 -7 -55 -30 -54 -144 -166
-156 -154 -5 6 -21 39 -36 74 -27 66 -30 111 -6 119 10 3 12 -3 9 -29 -7 -47
9 -97 33 -104 27 -9 38 3 60 67 17 48 57 98 79 98 5 0 16 -7 24 -16z m-211
-232 c8 -9 20 -29 26 -45 10 -26 13 -27 80 -27 38 0 72 -4 76 -9 3 -5 -9 -19
-25 -31 -41 -29 -34 -44 25 -52 48 -7 86 -31 71 -45 -4 -5 -48 -10 -97 -11
-58 -3 -89 -8 -89 -16 0 -16 77 -54 125 -61 96 -16 104 -35 14 -35 -56 0 -66
-4 -120 -42 -34 -25 -58 -49 -56 -58 3 -17 45 -19 115 -6 48 9 61 -9 15 -21
-46 -11 -98 -6 -162 16 -44 15 -67 18 -85 11 -32 -12 -37 -22 -50 -94 -14 -76
-36 -86 -60 -26 -16 41 -39 48 -29 10 5 -19 -11 -50 -27 -50 -10 0 -30 47 -30
70 0 11 -5 20 -11 20 -7 0 -10 -12 -7 -32 10 -60 -11 -78 -36 -30 -39 75 -39
231 -1 365 11 36 58 127 66 127 4 0 21 12 38 26 69 57 200 84 234 46z m-415
-132 c34 -16 62 -31 62 -34 0 -2 -24 2 -52 10 -29 7 -64 14 -78 14 -14 0 -32
5 -40 10 -13 9 -13 11 0 20 23 15 40 12 108 -20z m36 -159 c4 -5 -6 -12 -22
-15 -15 -4 -63 -27 -106 -51 -43 -25 -80 -45 -83 -45 -14 0 37 65 65 82 54 34
134 49 146 29z m-56 -166 c-57 -56 -93 -69 -105 -39 -8 21 27 54 79 76 81 32
88 23 26 -37z"/>
<path d="M1388 1413 c12 -2 30 -2 40 0 9 3 -1 5 -23 4 -22 0 -30 -2 -17 -4z"/>
<path d="M494 1582 c-12 -2 -25 -13 -28 -25 -10 -39 -7 -467 4 -488 10 -18 23
-19 178 -19 92 0 173 4 180 9 9 5 12 25 10 57 l-3 49 -117 3 -118 3 0 199 c0
126 -4 201 -10 205 -13 8 -68 12 -96 7z"/>
<path d="M1095 860 c4 -6 10 -8 15 -5 19 12 63 -9 81 -39 10 -17 19 -26 19
-21 0 12 -29 57 -44 67 -17 12 -78 10 -71 -2z"/>
<path d="M1515 861 c55 -9 75 -22 49 -32 -15 -6 -16 -8 -2 -8 12 -1 15 -7 10
-23 -3 -14 -2 -19 6 -14 7 4 12 20 12 36 0 35 -24 50 -77 49 l-38 -2 40 -6z"/>
<path d="M1055 850 c-4 -6 -8 -36 -10 -68 l-4 -57 8 53 c5 29 14 59 21 67 8
10 9 15 2 15 -6 0 -14 -5 -17 -10z"/>
<path d="M1111 828 c-14 -23 -14 -23 8 -4 22 20 25 26 13 26 -4 0 -13 -10 -21
-22z"/>
<path d="M1215 750 c4 -19 14 -44 21 -55 19 -26 18 -45 -3 -45 -9 0 -14 -3
-10 -6 3 -3 14 -3 25 0 20 7 20 8 -5 69 -30 74 -38 85 -28 37z"/>
<path d="M1592 750 c0 -14 2 -19 5 -12 2 6 2 18 0 25 -3 6 -5 1 -5 -13z"/>
<path d="M1393 702 c-16 -38 -19 -53 -10 -58 7 -4 9 -4 5 1 -4 4 2 25 13 47
11 22 19 44 17 50 -2 6 -14 -12 -25 -40z"/>
<path d="M1603 630 c0 -36 2 -50 4 -32 2 17 2 47 0 65 -2 17 -4 3 -4 -33z"/>
<path d="M1274 608 c9 -12 16 -32 17 -43 0 -11 3 -14 6 -7 6 16 -16 72 -29 72
-5 0 -2 -10 6 -22z"/>
<path d="M1356 615 c-9 -26 -7 -32 5 -12 6 10 9 21 6 23 -2 3 -7 -2 -11 -11z"/>
<path d="M1450 598 c-1 -13 -7 -34 -15 -48 -8 -14 -14 -29 -14 -35 0 -13 16
15 34 60 10 21 11 36 5 40 -6 3 -10 -4 -10 -17z"/>
<path d="M1025 568 c-4 -24 -2 -65 2 -93 8 -45 9 -41 9 42 -1 51 -2 93 -3 93
-1 0 -5 -19 -8 -42z"/>
<path d="M1143 562 c-5 -27 -6 -57 -3 -68 4 -11 9 6 13 46 7 79 3 87 -10 22z"/>
<path d="M1491 594 c0 -11 3 -14 6 -6 3 7 2 16 -1 19 -3 4 -6 -2 -5 -13z"/>
<path d="M1180 588 c0 -9 5 -20 10 -23 13 -8 13 5 0 25 -8 13 -10 13 -10 -2z"/>
<path d="M1493 515 c0 -33 2 -45 4 -27 2 18 2 45 0 60 -2 15 -4 0 -4 -33z"/>
<path d="M1206 530 c3 -14 10 -32 15 -40 7 -12 8 -11 9 6 0 11 -7 29 -16 40
-14 18 -15 18 -8 -6z"/>
<path d="M1397 523 c-4 -3 -7 -13 -7 -22 1 -13 3 -13 11 2 11 19 8 33 -4 20z"/>
<path d="M1616 461 c1 -34 5 -66 8 -69 9 -8 5 78 -4 108 -4 16 -6 1 -4 -39z"/>
<path d="M1241 476 c-8 -9 -9 -21 -4 -30 7 -14 10 -13 20 3 15 24 1 48 -16 27z"/>
<path d="M1391 444 c0 -11 3 -14 6 -6 3 7 2 16 -1 19 -3 4 -6 -2 -5 -13z"/>
<path d="M1503 410 c0 -25 2 -35 4 -22 2 12 2 32 0 45 -2 12 -4 2 -4 -23z"/>
<path d="M1014 395 l1 -50 48 -3 c58 -4 77 10 76 52 l-2 31 -6 -35 c-6 -35 -7
-35 -56 -35 l-50 0 -6 45 -7 45 2 -50z"/>
<path d="M1380 411 c0 -7 -4 -9 -10 -6 -6 4 -7 -1 -3 -11 6 -15 7 -15 15 1 6
9 7 19 4 22 -3 4 -6 1 -6 -6z"/>
<path d="M1257 393 c3 -7 6 -13 8 -13 2 0 5 6 8 13 3 8 -1 14 -8 14 -7 0 -11
-6 -8 -14z"/>
<path d="M1585 369 c-16 -7 -14 -8 10 -4 28 5 29 4 11 -10 -19 -15 -19 -15 2
-15 15 0 22 6 22 20 0 21 -13 24 -45 9z"/>
<path d="M1284 354 c11 -8 27 -14 36 -14 9 0 25 6 36 14 19 14 19 14 -1 13
-11 -1 -23 -6 -27 -12 -5 -7 -10 -7 -15 0 -5 6 -17 11 -28 12 -20 1 -20 1 -1
-13z"/>
<path d="M1515 350 c3 -5 18 -10 33 -9 24 0 25 1 7 9 -28 12 -47 12 -40 0z"/>
</g>
</svg>
