<?xml version="1.0" standalone="no"?>
<!DOCTYPE svg PUBLIC "-//W3C//DTD SVG 20010904//EN"
 "http://www.w3.org/TR/2001/REC-SVG-20010904/DTD/svg10.dtd">
<svg version="1.0" xmlns="http://www.w3.org/2000/svg"
 width="225.000000pt" height="225.000000pt" viewBox="0 0 225.000000 225.000000"
 preserveAspectRatio="xMidYMid meet">
<metadata>
Created by potrace 1.10, written by Peter Selinger 2001-2011
</metadata>
<g transform="translate(0.000000,225.000000) scale(0.100000,-0.100000)"
fill="#000000" stroke="none">
<path d="M1123 2121 c-37 -23 -48 -50 -32 -84 24 -53 104 -63 149 -19 36 36
31 76 -14 103 -39 24 -63 24 -103 0z m95 -13 c17 -15 15 -68 -5 -90 -19 -22
-66 -24 -82 -4 -7 8 -13 29 -13 47 -2 57 54 83 100 47z"/>
<path d="M964 2116 c-26 -12 -34 -23 -44 -65 l-12 -51 -39 35 c-41 36 -51 39
-84 25 -15 -7 -16 -9 -4 -9 22 -1 61 -101 47 -118 -14 -17 1 -16 32 2 19 11
21 14 8 15 -16 0 -61 78 -51 89 2 3 23 -14 47 -38 l43 -42 13 48 c24 92 23 91
35 38 9 -42 9 -53 -3 -67 -18 -21 -18 -22 33 -3 22 8 33 14 24 15 -24 0 -41
104 -20 125 18 18 15 18 -25 1z"/>
<path d="M1309 2107 c15 -19 -4 -106 -27 -124 -14 -11 -13 -13 5 -13 12 0 30
-3 40 -6 14 -5 15 -4 7 5 -14 16 -6 61 12 61 7 0 19 -9 26 -19 13 -19 15 -19
25 10 6 16 8 29 3 29 -5 0 -10 -4 -12 -10 -1 -5 -13 -7 -26 -3 -20 5 -22 10
-17 32 4 14 8 27 9 29 8 8 76 -31 76 -43 0 -8 5 -15 10 -15 15 0 12 16 -5 33
-14 15 -50 29 -109 42 -25 5 -28 4 -17 -8z"/>
<path d="M715 2029 c-27 -17 -28 -19 -9 -19 29 0 68 -74 53 -101 -12 -24 -44
-40 -62 -33 -9 3 -27 24 -42 46 -22 32 -24 42 -13 49 7 5 9 9 3 8 -5 0 -23
-11 -40 -25 -16 -15 -25 -23 -19 -20 7 3 27 -11 45 -32 44 -51 53 -55 93 -38
54 22 63 49 36 107 -19 40 -21 51 -10 64 17 20 2 18 -35 -6z"/>
<path d="M1520 2042 c0 -6 5 -12 11 -14 17 -6 -38 -108 -58 -108 -25 0 68 -59
105 -66 47 -9 82 16 82 60 0 27 -8 41 -40 70 -22 20 -45 36 -52 36 -6 0 -20 7
-30 17 -10 9 -18 11 -18 5z m115 -93 c7 -22 -17 -66 -41 -76 -16 -6 -51 2 -73
16 -11 7 -8 19 18 65 l33 56 28 -20 c16 -11 32 -30 35 -41z"/>
<path d="M1714 1906 c5 -15 -4 -30 -35 -62 -23 -24 -47 -40 -53 -37 -6 3 11
-17 37 -44 38 -39 54 -49 70 -45 20 5 19 7 -9 14 -17 4 -39 17 -49 28 -18 20
-18 21 3 42 18 18 23 19 37 8 10 -8 13 -20 9 -34 -6 -20 -5 -20 20 3 31 29 31
31 8 24 -10 -2 -24 3 -32 11 -11 14 -10 20 5 36 10 11 21 20 24 20 14 0 51
-68 45 -84 -9 -22 3 -20 15 3 9 16 1 28 -46 77 -31 33 -53 50 -49 40z"/>
<path d="M509 1873 c-50 -56 -74 -87 -58 -75 13 10 24 6 63 -25 27 -21 45 -42
42 -50 -10 -24 9 -11 52 37 36 40 42 52 33 67 -10 17 -10 16 -11 -4 0 -12 -10
-33 -22 -47 l-23 -25 -24 19 c-19 17 -21 23 -11 35 8 10 21 13 34 9 20 -6 20
-5 -3 20 -29 31 -34 32 -26 7 3 -10 -1 -24 -10 -31 -13 -11 -19 -10 -35 5 -11
10 -20 21 -20 24 0 12 69 53 79 46 6 -3 11 -1 11 4 0 22 -47 10 -71 -16z"/>
<path d="M1020 1889 c-72 -8 -165 -38 -214 -68 -82 -51 -170 -202 -188 -324
-9 -58 -7 -83 13 -177 13 -60 27 -107 31 -104 4 2 12 -5 18 -16 11 -20 10 -21
-9 -10 -18 9 -21 8 -21 -7 0 -10 -9 -24 -20 -31 -25 -15 -26 -38 -1 -52 33
-17 64 -70 67 -114 4 -41 31 -76 60 -76 14 0 18 -21 14 -67 -1 -12 4 -31 10
-42 7 -15 7 -21 0 -21 -6 0 -9 -14 -7 -34 5 -46 94 -148 156 -178 43 -21 56
-22 216 -20 l170 3 50 31 c52 33 135 106 135 120 0 4 -7 8 -16 8 -8 0 -13 -3
-11 -8 3 -4 -6 -21 -20 -37 -17 -21 -21 -23 -14 -7 7 12 9 22 5 22 -4 0 1 9
12 21 14 16 15 22 5 28 -15 10 -13 22 7 37 11 8 12 13 3 18 -8 5 -8 13 1 29 6
12 12 30 13 39 1 10 5 21 10 25 4 5 4 -2 1 -14 -5 -16 -3 -23 6 -23 10 0 10
-2 -1 -9 -11 -7 -10 -10 4 -18 14 -8 16 -18 11 -46 -6 -30 -10 -35 -29 -32
-22 4 -22 4 -2 -11 30 -23 46 6 43 81 -2 74 16 123 48 131 32 8 55 42 48 70
-4 16 1 28 17 41 71 58 72 68 13 97 -21 10 -33 21 -26 23 6 3 12 19 12 37 0
18 4 36 9 41 10 11 31 104 31 136 0 11 -5 17 -10 14 -6 -4 -8 -11 -4 -16 3 -5
2 -8 -3 -7 -4 2 -8 -1 -8 -7 0 -5 4 -9 9 -7 5 2 4 -3 -2 -11 -7 -8 -9 -16 -6
-19 3 -3 -2 -5 -12 -5 -9 1 -18 -6 -20 -16 -2 -14 1 -16 11 -7 10 8 13 8 10
-2 -14 -64 -18 -78 -24 -73 -3 4 -7 19 -9 33 -5 58 -7 62 -19 58 -8 -3 -13 2
-13 14 0 11 5 20 11 20 5 0 8 -4 5 -8 -2 -4 4 -8 15 -8 10 0 19 3 20 6 0 3 2
13 4 22 3 14 0 16 -15 8 -24 -13 -52 -14 -32 -1 11 7 10 10 -3 15 -25 9 -27 8
-20 -16 6 -22 6 -22 -9 -4 -9 11 -16 23 -16 28 0 4 -5 8 -11 8 -6 0 0 -15 15
-34 17 -23 22 -36 13 -39 -13 -4 -37 16 -37 32 0 6 -7 11 -16 11 -14 0 -15 2
-3 17 12 15 12 16 -3 10 -9 -3 -22 1 -28 9 -14 16 -35 19 -25 4 3 -5 3 -11 -2
-11 -4 -1 -24 -3 -43 -5 -29 -2 -31 -1 -12 6 12 5 22 12 22 14 0 3 -7 2 -17
-1 -11 -4 -14 -3 -9 5 4 7 1 12 -8 12 -9 0 -16 -5 -16 -11 0 -6 -7 -8 -16 -5
-8 3 -12 2 -9 -4 4 -6 -9 -10 -29 -10 -20 0 -36 -4 -36 -9 0 -17 19 -22 39
-12 16 9 19 8 16 -7 -2 -9 -4 -21 -4 -26 -1 -5 -4 -7 -7 -3 -4 3 -15 -4 -25
-16 -14 -16 -17 -17 -13 -4 3 9 2 17 -3 17 -11 0 -34 -60 -27 -71 9 -15 22
-10 20 7 0 9 6 19 14 22 13 5 13 3 1 -11 -7 -10 -10 -17 -7 -17 4 0 2 -8 -3
-19 -8 -14 -4 -24 18 -45 34 -33 74 -45 145 -43 65 2 84 17 97 76 10 45 1 73
-24 77 -10 1 -13 -4 -9 -18 4 -15 7 -17 13 -6 6 8 9 -5 9 -36 0 -38 -3 -47
-14 -43 -10 4 -13 1 -10 -8 10 -25 -60 -45 -81 -23 -4 3 -19 4 -36 1 -16 -2
-37 1 -46 6 -14 8 -10 9 17 5 29 -4 32 -3 17 6 -11 7 -30 10 -43 7 -14 -2 -27
0 -30 5 -3 4 -2 8 3 7 20 -3 27 2 13 11 -21 13 -10 19 23 13 16 -3 24 -9 18
-13 -6 -3 11 -12 39 -20 27 -7 50 -17 50 -21 0 -16 39 4 44 24 6 26 -2 40 -20
33 -11 -4 -13 3 -11 29 1 19 6 35 11 35 4 0 6 -11 4 -24 -4 -17 -1 -23 9 -19
8 3 12 16 11 31 -3 31 29 44 44 18 5 -9 18 -16 28 -16 10 0 22 -5 26 -12 5 -8
2 -9 -10 -5 -9 4 -15 3 -11 -2 3 -5 -1 -12 -7 -15 -7 -3 0 -3 15 -1 24 3 27 2
17 -11 -9 -10 -9 -14 -1 -14 6 0 11 -5 11 -11 0 -8 -5 -8 -15 1 -8 7 -12 16
-9 21 3 5 -3 6 -12 2 -11 -4 -13 -8 -6 -11 7 -2 12 -14 12 -27 0 -13 6 -26 13
-28 9 -4 9 -6 -1 -6 -7 -1 -15 5 -18 13 -4 10 -13 5 -35 -17 -16 -16 -29 -31
-27 -32 11 -10 45 -13 57 -6 11 7 9 10 -8 16 -12 3 -19 11 -15 16 4 6 10 6 18
0 7 -6 15 -8 19 -5 9 9 48 -7 41 -17 -3 -6 -12 -5 -22 3 -12 10 -14 10 -8 1 4
-8 -2 -17 -18 -24 -21 -10 -23 -15 -15 -31 5 -10 14 -16 20 -13 5 4 9 2 9 -3
0 -6 -7 -12 -15 -16 -8 -3 -15 -1 -15 4 0 6 -6 10 -14 10 -8 0 -16 6 -19 13
-5 14 -87 60 -95 52 -3 -2 10 -11 29 -19 51 -21 107 -75 90 -85 -11 -7 -11 -9
0 -13 8 -3 11 -8 8 -12 -4 -4 -18 -2 -32 5 -31 14 -96 4 -104 -17 -3 -7 -11
-14 -18 -14 -20 0 -46 30 -39 42 4 7 2 8 -4 4 -7 -4 -12 -2 -12 4 0 7 -6 10
-12 8 -7 -3 -13 -16 -13 -29 0 -17 -5 -23 -17 -21 -9 1 -20 -2 -23 -8 -4 -7 0
-10 10 -8 10 2 20 -3 22 -10 3 -8 -2 -10 -14 -6 -13 4 -14 3 -5 -4 8 -5 13
-12 13 -16 -1 -3 2 -6 7 -5 4 1 6 5 5 10 -2 5 2 9 8 9 8 0 8 5 -1 15 -8 10 -9
15 -2 15 6 0 15 -7 20 -16 6 -11 11 -13 16 -5 4 6 15 11 24 10 14 0 13 -2 -3
-9 -20 -9 -20 -9 0 -10 11 -2 23 -2 26 -2 3 1 6 -6 6 -14 0 -8 -4 -14 -9 -14
-4 0 -8 -11 -8 -25 0 -25 -14 -33 -25 -15 -4 7 -13 7 -26 0 -16 -9 -19 -7 -19
11 0 17 3 19 14 10 10 -8 16 -9 21 -1 3 5 1 10 -4 10 -6 0 -11 5 -11 10 0 6 7
10 16 10 11 0 15 -6 11 -20 -3 -11 -2 -22 3 -25 4 -3 10 6 12 20 3 16 0 26
-11 31 -29 13 -41 12 -41 -2 0 -8 -4 -14 -10 -14 -5 0 -10 -10 -10 -23 0 -13
-5 -28 -12 -35 -15 -15 -6 -24 25 -27 20 -2 24 1 20 16 -3 10 -1 19 5 19 14 0
22 -50 8 -51 -6 0 -21 -2 -32 -5 -27 -5 -49 20 -39 43 7 17 10 54 5 71 -2 4
-5 -8 -9 -25 -4 -22 -10 -30 -18 -25 -10 6 -9 14 2 36 15 28 6 72 -9 47 -4 -6
-2 -11 4 -11 6 0 8 -5 4 -11 -4 -8 -9 -8 -17 0 -7 7 -5 16 8 31 10 11 13 20 7
20 -6 0 -15 -7 -20 -16 -6 -11 -11 -13 -16 -5 -4 6 -3 11 3 11 6 0 7 8 4 17
-5 13 -2 15 11 10 9 -4 25 -1 35 5 15 9 17 15 8 30 -15 24 -27 23 -22 -2 5
-24 -17 -27 -35 -5 -10 12 -8 16 11 23 15 6 18 11 11 16 -9 5 -9 13 -2 27 7
11 7 19 1 19 -5 0 -11 -6 -13 -12 -3 -7 -13 9 -23 34 -10 27 -22 45 -28 41 -5
-3 -7 -1 -4 4 9 14 -64 23 -80 10 -9 -6 -13 -5 -13 4 0 11 -3 11 -11 -1 -9
-13 -10 -13 -6 0 2 8 10 15 18 15 8 0 13 9 12 20 -1 11 4 24 10 28 8 6 6 7 -5
3 -14 -4 -16 0 -12 23 4 18 1 32 -7 36 -8 6 -10 4 -4 -4 4 -8 -1 -18 -14 -27
-12 -8 -21 -21 -21 -27 0 -7 5 -4 11 6 5 9 15 17 21 17 6 0 4 -8 -5 -18 -21
-24 -21 -34 -1 -30 10 2 19 -4 21 -12 3 -11 2 -11 -4 -3 -6 8 -14 9 -23 3 -8
-6 -11 -10 -7 -10 4 0 3 -9 -4 -21 -7 -15 -8 -24 0 -32 6 -6 7 -17 2 -26 -17
-33 -22 -96 -9 -113 18 -23 86 -29 72 -6 -5 7 -3 8 5 3 8 -5 11 -19 7 -40 -7
-36 10 -58 25 -34 5 9 3 16 -5 19 -9 3 -11 12 -5 25 8 20 8 20 8 0 1 -12 4
-16 9 -9 8 13 52 29 52 19 0 -3 -5 -15 -10 -26 -8 -15 -7 -19 5 -19 8 0 15 -7
15 -15 0 -8 4 -15 9 -15 13 0 0 -43 -18 -56 -13 -10 -12 -13 7 -25 12 -8 22
-19 22 -25 0 -7 7 -11 16 -10 9 0 18 -5 20 -12 1 -7 0 -8 -3 -2 -2 5 -9 10
-14 10 -5 0 -2 -17 5 -37 8 -21 17 -47 19 -58 4 -15 5 -13 6 7 1 33 12 40 31
19 22 -24 18 -53 -10 -79 l-25 -22 30 6 30 7 -25 -22 c-21 -18 -22 -20 -5 -15
20 6 20 5 1 -10 -11 -9 -26 -16 -33 -16 -7 0 -13 -4 -13 -10 0 -5 7 -10 15
-10 8 0 15 5 15 11 0 5 4 7 10 4 5 -3 19 6 32 20 12 14 28 23 34 21 7 -3 18 2
24 10 10 11 10 14 1 14 -7 0 -9 5 -6 10 4 6 3 9 -2 8 -4 -2 -9 2 -11 7 -1 6 4
10 11 10 6 0 20 9 29 20 10 11 17 15 18 8 0 -6 -4 -13 -9 -15 -5 -1 -12 -21
-15 -43 -6 -38 -21 -58 -41 -52 -5 2 -19 -8 -30 -21 -19 -22 -32 -26 -101 -30
-65 -3 -82 -1 -93 12 -13 15 -15 15 -31 1 -29 -26 -145 -23 -198 4 -26 13 -40
26 -36 33 4 6 3 8 -3 5 -6 -4 -21 6 -34 21 -13 15 -17 21 -9 14 20 -17 35 -15
20 3 -7 9 -19 14 -26 11 -8 -3 -11 0 -7 9 3 8 10 12 17 8 7 -4 7 -1 -1 9 -7 8
-10 18 -6 21 3 4 1 7 -5 7 -7 0 -12 -5 -12 -11 0 -5 -5 -7 -11 -4 -7 5 -3 14
11 27 14 13 18 23 11 27 -5 4 -10 15 -10 26 1 11 -2 55 -6 98 -8 75 -17 99
-30 77 -3 -5 -14 -10 -23 -10 -16 1 -16 1 0 10 11 7 15 19 12 38 -3 20 -2 23
5 12 9 -12 11 -12 17 3 15 39 29 15 31 -51 2 -95 50 -230 59 -167 1 8 -2 12
-8 9 -7 -5 -9 3 -4 22 4 19 3 24 -2 15 -7 -9 -9 -6 -9 12 0 25 0 25 20 6 11
-10 23 -16 26 -13 3 4 0 9 -6 11 -18 6 -16 23 1 23 18 0 49 -30 41 -38 -3 -4
-10 0 -14 7 -7 10 -10 9 -16 -8 -3 -12 -12 -19 -18 -15 -7 3 4 -8 23 -25 19
-17 38 -31 42 -31 4 0 8 -8 8 -17 0 -13 2 -15 8 -5 12 18 42 4 42 -21 0 -20 0
-20 15 -1 13 16 16 17 25 4 6 -9 10 -10 10 -3 0 8 19 10 64 7 66 -4 94 9 83
38 -4 8 -8 5 -12 -9 -10 -32 -25 -28 -25 6 0 25 4 29 28 28 15 -1 31 -6 35
-12 5 -6 7 -1 5 10 -3 16 -11 19 -36 17 -27 -2 -32 1 -33 20 -1 17 -2 19 -6 6
-6 -22 -33 -24 -33 -2 0 9 -6 14 -13 11 -8 -3 -14 4 -15 16 -1 17 1 18 8 7 5
-8 12 -12 15 -8 7 6 -22 38 -35 38 -5 0 -12 -4 -15 -10 -3 -5 -1 -10 5 -10 6
0 8 -4 5 -10 -3 -5 -2 -10 4 -10 12 0 7 -33 -6 -37 -13 -5 -25 70 -17 104 5
18 4 24 -5 19 -6 -4 -11 -18 -11 -31 0 -21 -17 -35 -43 -35 -8 0 -8 3 -2 8 6
4 10 17 11 30 1 26 -12 17 -18 -13 -4 -24 -42 -32 -65 -13 -12 9 -15 10 -9 1
4 -7 3 -13 -3 -13 -15 0 -19 23 -7 42 8 13 7 21 -3 30 -12 11 -13 10 -8 -4 3
-10 2 -20 -3 -23 -14 -9 -12 29 2 43 9 9 7 16 -8 33 -24 27 -72 52 -84 44 -6
-3 -10 1 -10 9 0 9 -4 16 -9 16 -5 0 -12 7 -15 16 -4 10 5 6 25 -10 17 -15 32
-26 33 -24 1 2 8 12 16 22 10 13 10 17 2 12 -7 -4 -15 -1 -18 8 -3 9 -11 16
-16 16 -6 0 -5 -7 2 -15 18 -22 4 -31 -16 -11 -9 9 -15 18 -13 20 15 12 69 33
73 28 12 -11 5 -24 -9 -18 -8 3 -15 1 -15 -4 0 -19 32 -10 52 15 11 14 24 25
30 25 14 0 88 60 88 71 0 5 -10 1 -22 -11 -31 -29 -46 -25 -18 5 13 14 18 25
12 25 -7 0 -12 5 -12 11 0 5 5 7 10 4 6 -3 10 3 10 15 0 12 5 18 10 15 7 -4 7
-13 0 -26 -7 -12 -7 -19 -1 -19 14 0 26 22 23 43 -2 10 2 25 8 33 7 8 8 14 2
14 -5 0 -18 12 -27 27 l-18 27 28 -22 c16 -13 31 -18 34 -13 4 6 12 6 21 1 22
-14 30 -12 24 5 -4 8 -1 15 6 15 6 0 8 -5 5 -10 -3 -6 2 -13 12 -16 38 -12 48
-22 51 -55 1 -19 4 -45 5 -59 1 -14 5 -24 10 -22 4 1 15 2 25 2 16 1 16 1 0
14 -10 7 -15 16 -11 19 3 4 2 7 -3 7 -5 0 -10 9 -11 20 -1 11 2 18 8 15 5 -4
9 -13 9 -21 0 -8 5 -14 12 -14 6 0 8 -3 5 -7 -4 -3 -2 -13 5 -20 9 -11 9 -16
-2 -23 -8 -5 -18 -6 -22 -4 -11 7 -10 -1 3 -30 6 -13 17 -22 24 -20 19 8 28
-13 16 -35 -8 -14 -7 -20 4 -25 19 -7 27 7 21 38 -5 27 -6 27 52 -10 2 -1 -3
-12 -10 -23 -11 -18 -11 -23 2 -31 20 -13 25 -4 9 17 -7 10 -9 15 -5 11 5 -4
14 0 21 9 11 14 15 13 45 -16 43 -41 51 -32 10 12 -20 23 -50 41 -86 52 -29 9
-51 21 -48 26 3 5 0 8 -7 7 -6 -2 -14 3 -17 11 -3 8 0 11 7 7 6 -4 11 -3 11 3
0 5 -5 13 -11 16 -6 4 -8 13 -5 21 3 7 -2 17 -10 22 -8 5 -16 18 -17 29 0 12
-5 19 -9 17 -4 -3 -8 -1 -8 4 0 5 10 14 23 21 12 6 14 9 5 7 -10 -3 -18 -1
-18 4 0 6 6 11 13 11 6 1 18 2 24 3 18 2 17 19 0 30 -10 6 -26 4 -47 -6 -28
-14 -30 -17 -16 -31 21 -20 20 -30 -1 -19 -15 9 -22 26 -25 60 -1 6 -9 12 -19
12 -10 0 -21 5 -24 10 -3 6 -14 10 -23 10 -11 0 -5 -7 16 -20 17 -11 32 -23
32 -26 0 -4 -6 -1 -14 5 -11 9 -17 8 -29 -3 -8 -8 -17 -12 -21 -9 -4 4 -14 8
-24 9 -47 5 -77 15 -84 29 -11 19 -38 20 -38 1 0 -12 -5 -12 -30 -3 -25 10
-33 9 -40 -3 -8 -13 -13 -8 -12 10 0 3 -12 5 -28 5 -16 1 -26 -3 -24 -7 3 -5
9 -6 14 -3 5 3 11 1 15 -5 3 -5 0 -10 -7 -10 -8 -1 -6 -6 6 -15 11 -8 17 -15
14 -15 -11 0 -59 28 -59 34 1 3 -2 6 -6 5 -5 0 -7 -7 -5 -16 2 -10 -1 -12 -10
-7 -7 4 -10 4 -6 -1 4 -4 2 -17 -4 -29 -14 -26 -20 -82 -12 -119 7 -35 37 -54
94 -62 45 -6 45 -6 15 8 -16 8 -33 12 -37 10 -13 -7 -47 17 -58 40 l-11 22 17
-22 c16 -22 42 -33 29 -13 -11 17 -14 49 -6 55 11 6 23 -54 14 -69 -4 -6 1 -5
11 3 14 12 19 12 26 2 4 -8 12 -11 17 -8 6 4 16 -4 23 -17 l12 -24 32 19 c34
21 46 24 46 10 0 -12 -79 -43 -92 -35 -10 7 -54 -12 -75 -33 -7 -6 -18 -13
-25 -15 -10 -4 -10 -8 1 -22 8 -9 11 -19 7 -23 -3 -3 -6 -1 -6 5 0 7 -5 12
-11 12 -5 0 -8 -4 -5 -9 6 -10 -10 -25 -38 -35 -17 -6 -17 -5 -5 10 12 14 12
17 0 13 -7 -3 -34 15 -59 38 -35 33 -43 46 -34 55 8 8 12 8 12 1 0 -21 28 -21
49 -1 18 16 25 18 37 7 20 -16 44 -20 44 -8 0 8 -15 13 -32 10 -5 0 -8 3 -8 9
0 5 -7 10 -16 10 -8 0 -13 4 -10 9 3 5 0 24 -8 42 -14 34 -8 65 21 100 7 9 10
18 7 21 -3 4 4 28 16 55 20 44 25 101 17 196 -3 42 -28 -3 -26 -48 1 -16 2
-15 9 5 5 16 6 -1 5 -45 -3 -76 -36 -188 -49 -166 -5 7 -3 18 3 24 6 6 11 16
11 21 0 6 -7 3 -15 -7 -8 -12 -12 -33 -9 -56 3 -30 1 -37 -14 -38 -10 -1 -19
4 -19 10 0 7 -4 21 -7 32 -6 15 -4 14 7 -4 12 -20 15 -21 20 -6 9 23 9 27 -3
20 -7 -4 -7 3 0 20 7 18 7 32 0 43 -10 15 -10 14 -6 -3 3 -11 1 -27 -5 -35 -8
-12 -9 -10 -4 8 8 29 -3 29 -14 0 -7 -21 -8 -20 -13 10 -3 24 -2 29 8 22 16
-14 24 30 13 73 -8 31 -9 31 -4 -6 2 -25 0 -35 -7 -31 -17 10 -3 102 26 173
28 69 72 134 86 126 4 -2 14 3 21 13 13 15 12 16 -3 3 -10 -7 -18 -9 -18 -3 0
5 7 13 16 16 8 3 12 11 8 17 -4 8 -3 9 5 5 6 -4 9 -12 6 -17 -11 -17 7 -9 37
16 16 14 36 25 44 25 8 0 14 5 14 10 0 7 -7 7 -21 0 -11 -7 -23 -9 -26 -6 -11
10 68 37 90 31 15 -4 18 -3 9 3 -19 13 24 24 57 15 14 -3 22 -2 19 3 -4 5 46
9 116 10 l121 1 -65 -12 c-36 -7 -53 -13 -37 -14 15 0 27 -5 27 -10 0 -5 8 -8
18 -6 9 2 22 4 27 5 6 1 -1 6 -15 10 -23 7 -23 8 -3 9 12 1 25 -4 28 -10 5 -6
12 -4 20 8 7 10 17 15 21 10 4 -4 2 -7 -5 -7 -9 0 -8 -4 3 -15 16 -17 62 -20
70 -6 4 5 3 11 -1 14 -5 2 -1 2 7 -1 8 -2 21 -5 28 -5 18 -1 15 -7 -10 -17
l-23 -9 22 0 c12 -1 25 4 28 9 8 12 25 13 25 1 0 -14 -30 -23 -105 -31 l-70
-7 61 -2 c42 -1 76 5 104 18 l42 19 -23 15 c-55 35 -278 61 -399 46z m288 -40
c3 -12 2 -12 -6 0 -8 11 -10 11 -15 0 -4 -10 -6 -8 -6 4 -1 21 21 18 27 -4z
m-492 -54 c-10 -8 -24 -11 -29 -8 -6 4 -2 10 9 14 31 12 40 9 20 -6z m544
-399 c0 -3 -4 -8 -10 -11 -5 -3 -10 -1 -10 4 0 6 5 11 10 11 6 0 10 -2 10 -4z
m115 -16 c8 -13 -5 -13 -25 0 -13 8 -13 10 2 10 9 0 20 -4 23 -10z m-445 -66
c0 -8 -4 -14 -10 -14 -5 0 -7 7 -3 16 5 14 3 15 -15 5 -20 -11 -21 -10 -13 12
5 14 6 29 3 34 -4 5 3 -2 16 -15 12 -13 22 -30 22 -38z m363 59 c-7 -2 -13
-12 -13 -20 0 -13 3 -13 15 -3 8 7 15 10 15 6 0 -17 -3 -21 -13 -18 -6 2 -5
-3 2 -12 7 -8 11 -21 9 -28 -3 -7 -13 4 -22 24 -18 37 -15 59 7 57 9 0 9 -2 0
-6z m75 -16 c6 3 12 0 12 -7 0 -6 -4 -9 -9 -5 -5 3 -12 1 -15 -4 -4 -5 2 -8
11 -7 9 2 19 8 21 14 2 7 8 9 13 6 12 -7 -20 -33 -42 -34 -10 0 -15 -11 -16
-37 -1 -23 -8 -42 -19 -50 -21 -15 -38 -17 -29 -3 3 6 -1 7 -9 4 -9 -3 -16 -1
-16 5 0 6 -7 11 -15 11 -8 0 -15 5 -15 11 0 5 -4 7 -10 4 -5 -3 -10 -1 -10 4
0 6 4 11 10 11 5 0 7 7 4 15 -4 10 0 15 11 15 9 0 13 5 10 10 -3 6 -2 10 4 10
5 0 19 -20 31 -45 12 -25 23 -45 24 -45 1 0 2 19 1 43 -1 24 5 50 14 60 9 10
11 18 6 17 -19 -4 -26 0 -20 11 5 7 12 6 23 -4 10 -8 23 -12 30 -10z m-578 3
c24 16 54 11 73 -10 16 -19 16 -20 -8 -20 -28 0 -31 -9 -12 -29 10 -11 10 -13
0 -7 -7 4 -13 2 -13 -3 0 -6 9 -11 20 -11 18 0 19 -2 8 -20 -10 -17 -14 -18
-16 -5 -2 8 -10 15 -18 15 -8 0 -12 5 -9 10 3 6 4 10 1 10 -2 0 -11 3 -19 6
-11 4 -13 -1 -10 -21 4 -20 10 -24 27 -20 19 6 19 4 -4 -14 -33 -27 -43 -26
-36 4 4 14 2 25 -4 25 -5 0 -9 -3 -7 -7 1 -5 -2 -9 -8 -10 -5 -1 -9 9 -7 22 2
14 -4 27 -14 33 -15 9 -16 13 -5 26 15 18 31 12 31 -12 0 -12 8 -17 30 -17 17
0 30 5 30 12 0 7 8 17 18 23 15 9 14 10 -5 5 -15 -4 -23 -2 -23 6 0 9 -3 9
-15 -1 -15 -13 -35 -6 -35 13 0 9 2 9 8 0 5 -8 13 -9 22 -3z m-77 -17 c-10 -3
-10 -10 -2 -24 5 -11 7 -24 4 -29 -3 -5 1 -7 9 -4 11 4 13 0 9 -15 -9 -33 -21
-24 -31 22 -9 46 -7 57 11 56 9 0 9 -2 0 -6z m547 3 c0 -2 -7 -6 -15 -10 -8
-3 -15 -1 -15 4 0 6 7 10 15 10 8 0 15 -2 15 -4z m-581 -65 c-9 -24 -14 -30
-23 -21 -8 8 -7 13 4 20 8 5 11 10 7 10 -4 0 -2 6 5 14 18 20 20 14 7 -23z
m-99 -11 c0 -5 -5 -10 -11 -10 -5 0 -7 5 -4 10 3 6 8 10 11 10 2 0 4 -4 4 -10z
m607 -42 c-3 -8 -6 -5 -6 6 -1 11 2 17 5 13 3 -3 4 -12 1 -19z m-352 -8 c-3
-5 1 -10 10 -10 9 0 14 4 11 8 -3 5 1 9 9 9 8 0 15 -4 15 -8 0 -12 -39 -31
-50 -24 -13 8 -13 35 1 35 5 0 7 -4 4 -10z m-31 -26 c5 -14 4 -15 -9 -4 -17
14 -19 20 -6 20 5 0 12 -7 15 -16z m199 -3 c5 -1 7 -7 5 -13 -6 -16 19 -41 32
-33 5 3 10 1 10 -4 0 -14 -13 -14 -44 1 -19 8 -23 14 -15 24 7 8 7 14 -1 19
-5 3 -10 1 -10 -5 0 -6 -4 -8 -10 -5 -16 10 -11 23 8 20 9 -2 21 -4 25 -4z
m47 -11 c0 -11 -4 -20 -9 -20 -7 0 -8 17 -2 38 4 10 11 -2 11 -18z m474 -1
c-3 -5 -10 -7 -15 -3 -5 3 -7 10 -3 15 3 5 10 7 15 3 5 -3 7 -10 3 -15z m-368
-10 c19 -22 19 -22 -3 -10 -13 6 -23 16 -23 21 0 15 5 12 26 -11z m-69 -9 c-1
-11 -5 -20 -9 -20 -4 0 -8 9 -8 20 0 11 4 20 9 20 6 0 9 -9 8 -20z m-507 -5
c-7 -8 -17 -15 -23 -15 -6 0 -2 7 9 15 25 19 30 19 14 0z m865 -13 c-3 -3 -11
0 -18 7 -9 10 -8 11 6 5 10 -3 15 -9 12 -12z m105 -12 c12 -11 26 -17 31 -14
5 3 6 -2 3 -9 -3 -8 -14 -17 -24 -20 -11 -3 -29 -21 -40 -40 -11 -19 -31 -37
-44 -39 -22 -5 -23 -4 -17 44 1 4 10 10 22 13 16 5 18 10 8 21 -6 7 -15 11
-20 8 -5 -3 -8 0 -7 8 4 16 30 38 40 32 4 -2 9 0 13 6 8 13 8 13 35 -10z
m-460 -11 c0 -15 -18 -19 -23 -6 -3 8 1 14 9 14 8 0 14 -4 14 -8z m-34 -20
c11 -13 13 -19 5 -17 -23 5 -21 -31 2 -39 12 -4 25 -6 30 -5 4 1 7 -3 7 -9 0
-6 -9 -8 -22 -3 -29 8 -66 34 -51 34 7 0 9 12 7 30 -6 36 -3 37 22 9z m-76 2
c0 -5 3 -18 7 -28 6 -16 5 -16 -10 -4 -19 15 -23 41 -7 41 6 0 10 -4 10 -9z
m135 -20 c-3 -12 -13 -21 -21 -21 -12 0 -12 4 2 25 19 29 29 27 19 -4z m-340
-71 c-3 -5 -12 -10 -18 -10 -7 0 -6 4 3 10 19 12 23 12 15 0z m662 -47 c-3
-19 -10 -40 -15 -45 -6 -6 -8 -16 -5 -23 3 -9 -2 -12 -14 -9 -14 4 -22 -6 -36
-46 -10 -28 -15 -55 -12 -60 3 -6 2 -10 -4 -10 -5 0 -11 -10 -13 -22 -2 -12
-12 -27 -23 -33 -42 -21 -47 -27 -36 -38 8 -8 6 -16 -6 -29 -19 -21 -41 -25
-24 -4 10 11 8 16 -5 24 -15 9 -15 10 6 17 18 6 20 9 9 16 -12 7 -11 9 1 9 12
0 12 2 2 9 -11 7 -10 9 3 14 9 4 14 3 11 -2 -7 -10 40 -8 51 3 4 4 2 6 -6 4
-24 -5 -22 17 4 56 27 40 37 86 11 50 -13 -16 -17 -17 -28 -5 -7 8 -8 11 -2 8
7 -4 17 0 24 8 7 8 18 15 25 15 18 0 29 68 14 86 -9 11 -9 18 -1 26 9 9 12 8
12 -5 0 -21 26 -23 34 -2 3 8 1 15 -4 15 -6 0 -10 -5 -10 -12 0 -6 -3 -9 -6
-5 -14 14 5 35 26 30 18 -5 21 -11 17 -40z m-806 11 c10 -28 5 -44 -10 -28 -5
5 -12 19 -16 32 -9 32 13 28 26 -4z m868 17 c12 -8 12 -12 2 -25 -17 -21 -31
-20 -31 0 0 11 6 14 18 10 14 -5 14 -4 -2 9 -21 16 -10 21 13 6z m-707 -50
c-2 -23 -8 -41 -12 -41 -12 0 -18 74 -6 82 17 11 22 1 18 -41z m558 15 c0 -17
-39 -65 -40 -49 0 6 5 15 10 18 6 4 8 11 4 16 -8 14 4 41 16 34 5 -3 10 -12
10 -19z m-640 -16 c0 -11 -7 -20 -15 -20 -13 0 -14 4 -5 20 6 11 13 20 15 20
3 0 5 -9 5 -20z m660 -10 c0 -5 -5 -10 -11 -10 -5 0 -7 5 -4 10 3 6 8 10 11
10 2 0 4 -4 4 -10z m-669 -27 c7 -40 10 -64 13 -99 2 -23 6 -46 9 -51 4 -6 0
-16 -8 -23 -12 -10 -12 -15 2 -38 l16 -27 -22 21 c-23 22 -39 84 -22 84 5 0 8
11 7 24 0 13 -4 22 -8 19 -13 -7 -9 12 5 26 6 8 8 11 2 8 -6 -3 -11 10 -12 29
-1 19 3 34 8 34 5 0 10 -3 10 -7z m659 -2 c0 -6 -4 -13 -10 -16 -5 -3 -10 1
-10 9 0 9 5 16 10 16 6 0 10 -4 10 -9z m-420 -38 c0 -2 -5 -13 -10 -24 -11
-20 -30 -26 -30 -8 0 5 5 7 10 4 6 -3 10 1 10 9 0 9 -7 16 -15 16 -8 0 -15 -7
-15 -15 0 -8 -4 -15 -10 -15 -17 0 -11 18 11 34 19 13 49 12 49 -1z m225 7 c3
-5 1 -10 -4 -10 -6 0 -11 5 -11 10 0 6 2 10 4 10 3 0 8 -4 11 -10z m-190 -22
c-5 -24 9 -38 38 -38 11 0 15 4 11 11 -4 7 -1 10 7 7 8 -3 12 -14 11 -24 -2
-10 -5 -29 -5 -41 -3 -31 -13 -29 -29 7 -7 17 -16 30 -20 30 -12 0 -10 -14 4
-28 6 -6 9 -14 6 -18 -9 -9 -58 -12 -53 -4 3 4 -5 11 -18 15 -12 4 -25 8 -29
10 -5 1 -14 3 -22 4 -8 0 -17 10 -21 20 -4 13 -12 18 -23 15 -14 -5 -15 -4 -2
5 21 15 30 14 30 -4 0 -8 9 -19 20 -25 15 -8 20 -8 20 3 0 8 11 19 25 25 23
10 30 23 26 45 0 4 5 7 13 7 10 0 13 -8 11 -22z m255 12 c0 -5 -4 -10 -10 -10
-5 0 -10 5 -10 10 0 6 5 10 10 10 6 0 10 -4 10 -10z m-340 -50 c0 -5 -4 -10
-10 -10 -5 0 -10 5 -10 10 0 6 5 10 10 10 6 0 10 -4 10 -10z m377 -12 c-3 -8
-6 -5 -6 6 -1 11 2 17 5 13 3 -3 4 -12 1 -19z m46 -3 c-10 -13 -22 -25 -26
-25 -4 0 -2 -10 4 -22 l12 -23 -23 20 c-13 11 -20 14 -16 8 4 -7 4 -13 -1 -13
-12 0 -38 18 -33 22 26 20 85 54 98 57 2 1 -5 -10 -15 -24z m-103 -19 c-14
-14 -22 -2 -14 18 5 14 9 15 15 4 4 -7 4 -17 -1 -22z m-140 -7 c0 -17 -4 -28
-10 -24 -5 3 -10 17 -10 31 0 13 5 24 10 24 6 0 10 -14 10 -31z"/>
<path d="M1425 1330 c-3 -5 -1 -10 4 -10 6 0 11 5 11 10 0 6 -2 10 -4 10 -3 0
-8 -4 -11 -10z"/>
<path d="M1357 1283 c3 -7 6 -13 8 -13 2 0 5 6 8 13 3 8 -1 14 -8 14 -7 0 -11
-6 -8 -14z"/>
<path d="M1425 1289 c-4 -6 -5 -12 -2 -15 2 -3 7 2 10 11 7 17 1 20 -8 4z"/>
<path d="M1381 1264 c0 -11 3 -14 6 -6 3 7 2 16 -1 19 -3 4 -6 -2 -5 -13z"/>
<path d="M1585 1122 c-2 -2 1 -14 7 -26 7 -11 11 -24 10 -28 -4 -14 10 -8 39
16 25 21 26 25 11 32 -21 9 -60 13 -67 6z m60 -14 c3 -3 -2 -11 -10 -18 -12
-10 -19 -10 -27 -2 -9 9 -9 12 1 12 7 0 10 4 7 9 -6 10 19 9 29 -1z"/>
<path d="M1583 1038 c-1 -11 1 -16 5 -12 4 5 11 12 15 15 5 3 2 9 -5 12 -9 3
-14 -3 -15 -15z"/>
<path d="M1506 937 c-11 -8 -17 -19 -15 -24 2 -6 12 0 22 13 20 27 19 30 -7
11z"/>
<path d="M1350 676 c0 -2 7 -7 16 -10 8 -3 12 -2 9 4 -6 10 -25 14 -25 6z"/>
<path d="M800 740 c-8 -5 -12 -12 -9 -15 4 -3 12 1 19 10 14 17 11 19 -10 5z"/>
<path d="M1050 810 c20 -13 33 -13 25 0 -3 6 -14 10 -23 10 -15 0 -15 -2 -2
-10z"/>
<path d="M1016 801 c-3 -5 1 -14 8 -20 12 -10 13 -8 9 8 -6 23 -9 25 -17 12z"/>
<path d="M1049 782 c13 -25 31 -38 31 -23 0 6 -4 11 -10 11 -5 0 -9 5 -7 11 1
6 -4 14 -11 16 -11 4 -12 1 -3 -15z"/>
<path d="M1013 1848 c-24 -5 -43 -13 -43 -18 0 -5 8 -6 17 -3 9 4 42 12 72 19
36 8 45 12 26 12 -16 0 -49 -4 -72 -10z"/>
<path d="M1093 1833 c9 -2 25 -2 35 0 9 3 1 5 -18 5 -19 0 -27 -2 -17 -5z"/>
<path d="M1233 1833 c-47 -9 -21 -23 40 -21 49 1 53 2 19 5 -23 2 -40 8 -37
14 4 5 5 8 3 8 -2 -1 -13 -4 -25 -6z"/>
<path d="M1438 1808 c-15 -14 -19 -15 -97 -28 -53 -9 -52 -9 24 -5 l80 3 -60
-13 -60 -14 55 6 c30 3 63 9 72 14 27 14 46 11 71 -15 13 -13 34 -29 46 -36
13 -6 20 -14 17 -17 -3 -3 -13 0 -21 7 -12 10 -19 10 -27 2 -9 -9 -6 -12 13
-13 l24 0 -25 -11 c-14 -5 -59 -13 -100 -18 -73 -7 -74 -7 -19 -9 31 0 78 6
105 14 27 8 50 15 51 15 1 0 1 -9 0 -21 -2 -28 -29 -41 -62 -29 -32 12 -95 13
-95 1 0 -4 17 -8 38 -9 56 -1 108 -8 120 -16 6 -3 14 -1 18 5 4 7 3 9 -4 5 -6
-3 -13 -2 -17 4 -3 5 -2 10 4 10 5 0 18 3 28 6 10 3 14 2 8 -3 -14 -12 -17
-40 -5 -48 9 -6 14 8 11 28 -1 5 3 6 8 3 10 -7 9 -61 -2 -72 -4 -4 -7 -14 -7
-23 0 -12 5 -11 18 6 l17 23 2 -27 c0 -16 -2 -21 -7 -13 -4 7 -10 8 -14 2 -3
-5 -19 -8 -35 -6 -17 2 -33 -1 -36 -6 -3 -6 -2 -10 3 -10 5 0 9 -6 9 -14 0
-11 -6 -12 -24 -5 -21 8 -23 6 -23 -19 0 -20 -3 -23 -9 -13 -6 9 -6 22 0 32
13 25 12 46 -2 32 -17 -17 -18 -46 -2 -72 8 -13 10 -20 4 -17 -6 4 -11 2 -11
-3 0 -6 7 -11 15 -11 8 0 15 -3 15 -7 0 -5 12 -8 28 -9 l27 -1 -27 10 c-21 8
-26 17 -26 39 1 30 19 34 24 5 1 -10 -2 -14 -8 -11 -6 4 -8 2 -5 -3 4 -6 20
-16 37 -23 16 -7 28 -16 25 -20 -3 -5 1 -7 9 -6 20 3 48 34 43 49 -2 6 0 26 5
44 6 23 4 49 -7 87 -16 55 -50 110 -64 102 -4 -3 -8 5 -8 16 -2 23 -23 48 -75
89 -30 25 -40 28 -62 19 -17 -6 -26 -6 -26 0 0 6 9 10 21 10 11 0 17 5 14 10
-8 13 -21 13 -37 -2z m200 -318 c3 -9 -1 -11 -12 -7 -10 4 -15 3 -11 -3 3 -6
1 -10 -4 -10 -12 0 -15 23 -4 34 10 9 26 2 31 -14z m30 -39 c-2 -14 -8 -32
-15 -39 -10 -10 -14 -8 -19 13 -3 13 -10 22 -16 19 -5 -3 -7 -12 -4 -20 3 -8
0 -11 -8 -8 -14 6 -18 34 -4 34 5 0 15 6 23 13 23 23 45 17 43 -12z"/>
<path d="M1638 1438 c5 -20 15 -17 18 6 1 7 -4 13 -11 13 -7 0 -10 -8 -7 -19z"/>
<path d="M403 1739 c-27 -32 -31 -84 -7 -93 17 -7 44 5 64 28 20 25 50 20 50
-7 0 -28 -17 -47 -44 -47 -19 -1 -20 -1 -3 -11 33 -19 83 65 57 96 -18 21 -38
19 -72 -10 -32 -27 -43 -30 -53 -15 -12 20 7 50 36 57 26 7 27 9 12 19 -15 9
-22 6 -40 -17z"/>
<path d="M790 1741 c-19 -16 -40 -26 -47 -24 -7 3 -13 0 -13 -7 0 -6 5 -8 10
-5 6 3 10 1 10 -5 0 -6 5 -8 12 -4 7 4 8 3 4 -5 -4 -7 -17 -11 -29 -9 -16 2
-27 -7 -45 -40 -28 -50 -56 -136 -42 -127 6 4 10 14 10 23 1 22 38 102 39 83
1 -11 5 -10 17 5 14 18 15 18 8 -6 -6 -24 -6 -24 9 -5 9 11 11 22 6 23 -17 7
-9 23 17 32 17 7 24 15 21 25 -4 8 7 25 25 40 17 14 29 28 26 30 -2 3 -20 -8
-38 -24z m-74 -93 c-18 -26 -22 -17 -5 14 6 11 13 17 16 15 3 -3 -2 -16 -11
-29z"/>
<path d="M1470 1761 c-8 -5 -34 -12 -57 -16 -64 -10 -52 -22 21 -21 70 1 82 7
73 31 -7 17 -15 18 -37 6z m20 -21 c-8 -6 -28 -9 -45 -9 l-30 1 33 8 c18 4 36
10 39 14 4 3 9 4 12 0 3 -3 -1 -9 -9 -14z"/>
<path d="M1330 1730 c0 -5 7 -10 15 -10 8 0 15 5 15 10 0 6 -7 10 -15 10 -8 0
-15 -4 -15 -10z"/>
<path d="M1516 1723 c-4 -4 -44 -10 -89 -14 l-82 -7 88 2 c51 1 92 7 99 14 7
7 8 12 2 12 -6 0 -14 -3 -18 -7z"/>
<path d="M1762 1701 c-41 -6 -42 -7 -28 -26 14 -18 15 -18 16 -2 0 24 37 22
50 -4 7 -11 14 -18 17 -15 3 3 1 12 -5 19 -15 17 -6 27 25 27 l24 0 -32 -45
c-18 -25 -38 -44 -44 -41 -7 2 -6 -9 4 -30 16 -35 16 -35 22 -10 4 14 24 46
44 70 20 25 34 50 30 56 -7 11 -51 11 -123 1z"/>
<path d="M1450 1690 l-45 -7 45 -1 c25 0 54 3 65 8 20 9 20 9 0 8 -11 -1 -40
-4 -65 -8z"/>
<path d="M1535 1660 c-19 -8 -19 -9 2 -9 12 -1 25 4 28 9 7 12 -2 12 -30 0z"/>
<path d="M339 1624 c-5 -15 -13 -32 -16 -38 -4 -6 0 -5 9 2 14 11 24 9 62 -9
39 -18 46 -26 46 -49 0 -37 -26 -63 -56 -56 -51 13 -74 26 -74 43 -1 15 -2 16
-9 3 -13 -23 -24 -89 -12 -69 9 13 18 14 59 6 62 -13 79 -6 98 39 13 31 13 39
1 58 -8 12 -34 30 -57 41 -31 14 -40 23 -37 37 8 27 -2 22 -14 -8z"/>
<path d="M1390 1640 c0 -5 7 -10 15 -10 8 0 15 5 15 10 0 6 -7 10 -15 10 -8 0
-15 -4 -15 -10z"/>
<path d="M1408 1613 c7 -3 16 -2 19 1 4 3 -2 6 -13 5 -11 0 -14 -3 -6 -6z"/>
<path d="M1448 1613 c7 -3 16 -2 19 1 4 3 -2 6 -13 5 -11 0 -14 -3 -6 -6z"/>
<path d="M1498 1610 c12 -5 37 -10 56 -12 26 -1 33 -6 32 -22 -1 -10 4 -21 10
-23 7 -2 11 6 10 22 -1 27 -6 30 -86 39 -34 4 -39 3 -22 -4z"/>
<path d="M1905 1610 c-16 -7 -17 -9 -3 -9 16 -1 48 -36 48 -52 0 -13 -89 -42
-110 -36 -17 4 -19 2 -14 -21 8 -33 24 -53 24 -29 0 11 16 21 52 32 28 8 55
15 60 15 13 0 9 -65 -4 -79 -11 -11 -9 -11 10 -2 24 13 24 21 -5 113 -20 63
-33 78 -58 68z"/>
<path d="M685 1580 c-4 -12 -5 -24 -2 -27 3 -2 8 5 12 17 4 12 5 24 2 27 -3 2
-8 -5 -12 -17z"/>
<path d="M1450 1590 c29 -4 36 -8 20 -9 -18 -2 -12 -6 25 -16 62 -17 69 -17
30 0 -26 12 -27 14 -8 15 28 0 72 -43 49 -48 -17 -4 -23 -42 -6 -42 5 0 7 7 4
15 -5 11 2 17 24 21 32 7 65 54 37 54 -8 0 -12 -6 -9 -14 3 -8 1 -17 -4 -20
-16 -10 -42 5 -42 23 0 10 -6 18 -12 18 -7 1 -44 3 -83 6 -49 3 -57 3 -25 -3z"/>
<path d="M711 1574 c0 -11 3 -14 6 -6 3 7 2 16 -1 19 -3 4 -6 -2 -5 -13z"/>
<path d="M1403 1573 c9 -2 23 -2 30 0 6 3 -1 5 -18 5 -16 0 -22 -2 -12 -5z"/>
<path d="M1398 1553 c6 -2 18 -2 25 0 6 3 1 5 -13 5 -14 0 -19 -2 -12 -5z"/>
<path d="M1448 1553 c6 -2 18 -2 25 0 6 3 1 5 -13 5 -14 0 -19 -2 -12 -5z"/>
<path d="M696 1528 c-8 -32 -7 -88 2 -88 4 0 7 25 8 55 0 30 0 55 -2 55 -1 0
-4 -10 -8 -22z"/>
<path d="M1460 1543 c-19 -3 -39 -9 -45 -14 -7 -7 3 -8 30 -3 22 5 54 7 70 6
22 -1 26 1 15 8 -8 5 -19 9 -25 8 -5 -1 -26 -3 -45 -5z"/>
<path d="M673 1490 c0 -30 2 -43 4 -27 2 15 2 39 0 55 -2 15 -4 2 -4 -28z"/>
<path d="M811 1524 c0 -11 3 -14 6 -6 3 7 2 16 -1 19 -3 4 -6 -2 -5 -13z"/>
<path d="M1380 1530 c0 -5 5 -10 10 -10 6 0 10 5 10 10 0 6 -4 10 -10 10 -5 0
-10 -4 -10 -10z"/>
<path d="M1465 1520 c-30 -8 -30 -8 8 -9 23 -1 36 3 32 9 -3 6 -7 9 -8 9 -1
-1 -15 -5 -32 -9z"/>
<path d="M785 1508 c-4 -10 -4 -25 -1 -34 4 -9 1 -24 -6 -33 -12 -14 -11 -14
5 -2 9 7 17 10 17 5 0 -4 9 2 21 14 11 12 24 20 30 17 5 -4 9 -1 9 4 0 6 5 11
11 11 8 0 9 -4 0 -13 -6 -8 -8 -17 -5 -20 4 -4 -3 -5 -15 -2 -11 2 -21 0 -21
-5 0 -5 23 -8 50 -7 28 0 50 3 50 5 0 14 -23 41 -31 37 -5 -4 -9 -1 -9 6 0 6
-8 9 -20 6 -10 -3 -21 0 -22 5 -3 7 -11 7 -25 -1 -18 -9 -22 -8 -26 7 -4 16
-4 16 -12 0z m37 -36 c-18 -18 -21 -19 -27 -4 -3 9 -3 13 1 10 3 -4 13 0 21 8
9 8 17 13 20 10 3 -2 -4 -13 -15 -24z m88 -3 c0 -11 -29 -19 -34 -10 -3 5 -3
10 -1 13 8 7 35 5 35 -3z"/>
<path d="M1360 1508 c0 -4 16 -8 35 -8 19 0 35 2 35 4 0 2 -16 6 -35 8 -19 2
-35 0 -35 -4z"/>
<path d="M710 1485 c0 -8 4 -15 8 -15 5 0 9 7 9 15 0 8 -4 15 -9 15 -4 0 -8
-7 -8 -15z"/>
<path d="M1445 1491 c2 -5 -17 -7 -43 -5 -39 3 -42 2 -17 -5 30 -9 30 -9 -10
-11 -33 -3 -35 -4 -12 -7 16 -3 36 -1 45 3 23 9 88 17 80 9 -12 -12 -83 -26
-124 -25 -42 1 -76 -21 -54 -35 6 -4 9 -1 8 5 -5 20 70 22 90 2 16 -16 18 -16
35 1 18 18 18 19 -2 12 -12 -4 -21 -2 -21 4 0 6 3 10 8 9 4 -1 21 2 39 6 42
10 42 43 1 44 -16 0 -26 -3 -23 -7z"/>
<path d="M1001 1446 c3 -3 26 -8 53 -11 34 -5 46 -4 42 4 -4 6 -28 11 -53 11
-26 0 -44 -2 -42 -4z"/>
<path d="M1230 1437 c-20 -8 -22 -11 -8 -14 20 -5 55 12 42 19 -5 3 -20 1 -34
-5z"/>
<path d="M1280 1439 c0 -5 5 -7 10 -4 6 3 10 8 10 11 0 2 -4 4 -10 4 -5 0 -10
-5 -10 -11z"/>
<path d="M1475 1440 c-3 -5 -2 -10 4 -10 5 0 13 5 16 10 3 6 2 10 -4 10 -5 0
-13 -4 -16 -10z"/>
<path d="M271 1397 c-1 -34 3 -40 44 -65 24 -15 45 -30 45 -33 0 -3 -22 -16
-50 -29 -47 -22 -50 -26 -49 -59 1 -20 3 -29 6 -19 5 20 110 30 128 11 9 -8
12 -4 12 18 0 19 -4 26 -11 20 -12 -9 -106 -23 -106 -16 0 3 25 17 56 33 l56
28 -56 37 c-31 21 -56 39 -56 41 0 2 19 0 43 -5 23 -4 47 -8 54 -9 6 0 14 -8
16 -17 3 -12 5 -8 6 9 0 14 4 35 7 45 4 13 3 14 -4 5 -7 -10 -24 -12 -66 -7
-46 6 -59 12 -66 29 -7 17 -9 14 -9 -17z"/>
<path d="M1173 1402 c0 -10 6 -19 12 -19 6 0 11 9 11 19 0 10 -6 18 -13 18 -6
0 -11 -8 -10 -18z"/>
<path d="M1990 1408 c0 -10 -13 -18 -37 -22 -51 -8 -90 -8 -96 2 -2 4 -2 1 0
-6 1 -8 3 -23 4 -35 0 -12 3 -16 6 -9 2 6 18 12 33 12 26 0 29 -4 33 -37 l4
-38 1 43 c2 37 5 42 25 42 13 0 28 -5 35 -12 8 -8 10 -2 5 28 -6 41 -13 58
-13 32z"/>
<path d="M1290 1360 c-8 -5 -12 -11 -10 -14 3 -2 14 2 24 10 22 15 10 19 -14
4z"/>
<path d="M1116 1325 c-3 -9 0 -15 9 -15 9 0 12 6 9 15 -4 8 -7 15 -9 15 -2 0
-5 -7 -9 -15z"/>
<path d="M1140 1258 c0 -23 3 -39 6 -35 10 10 13 77 3 77 -5 0 -9 -19 -9 -42z"/>
<path d="M1865 1251 c0 -31 2 -35 11 -24 8 12 22 14 64 9 30 -4 58 -12 62 -19
4 -7 8 8 8 33 -1 34 -3 41 -10 28 -13 -22 -116 -24 -128 -3 -4 9 -7 0 -7 -24z"/>
<path d="M1964 1173 c-20 -27 -21 -27 -47 -10 -36 23 -39 22 -19 -12 16 -29
16 -31 -7 -55 l-24 -25 32 9 c29 8 33 6 48 -23 l18 -32 3 30 c4 34 16 44 52
45 23 1 22 2 -9 15 -31 14 -33 17 -27 50 4 19 5 35 3 35 -2 0 -12 -12 -23 -27z
m0 -64 c-8 -14 -24 -10 -24 6 0 9 6 12 15 9 8 -4 12 -10 9 -15z"/>
<path d="M351 1164 c-19 -25 -21 -25 -51 -9 l-32 17 18 -32 c19 -31 19 -32 -3
-50 -31 -25 -29 -30 7 -20 27 8 32 6 48 -23 l17 -32 3 38 c3 34 6 37 35 37
l32 1 -29 15 c-25 14 -28 20 -23 50 7 41 4 42 -22 8z m0 -67 c-13 -13 -26 -3
-16 12 3 6 11 8 17 5 6 -4 6 -10 -1 -17z"/>
<path d="M927 1123 c-14 -13 -7 -24 11 -19 15 5 18 1 19 -21 0 -16 4 -37 8
-47 5 -12 5 -17 -2 -13 -5 3 -9 -3 -7 -16 1 -12 3 -31 3 -41 1 -29 14 -10 17
26 6 56 4 87 -6 113 -9 24 -29 33 -43 18z"/>
<path d="M1286 1017 c-16 -12 -16 -13 2 -13 10 0 19 6 19 13 0 7 -1 13 -2 13
-1 0 -9 -6 -19 -13z"/>
<path d="M1920 1004 c0 -6 7 -17 15 -24 15 -12 21 -50 9 -50 -4 0 -21 17 -39
37 -32 37 -57 39 -48 4 3 -11 23 -36 45 -56 37 -32 39 -38 26 -52 -14 -13 -21
-11 -64 20 -51 36 -94 54 -94 40 0 -4 20 -19 45 -32 49 -26 105 -83 105 -106
0 -29 -23 -26 -50 6 -26 30 -29 31 -30 13 0 -26 40 -64 68 -64 28 0 39 26 23
52 -18 29 -8 31 32 8 35 -21 77 -20 77 0 0 17 -52 70 -70 70 -10 0 -21 7 -24
16 -8 21 -8 21 14 27 11 3 20 12 20 21 0 18 -59 87 -60 70z m-11 -55 l16 -24
-24 16 c-27 17 -42 44 -21 37 7 -2 20 -15 29 -29z m95 -118 c13 -15 14 -20 4
-24 -18 -6 -70 22 -63 33 10 16 41 11 59 -9z"/>
<path d="M400 991 c0 -6 12 -23 26 -38 31 -33 58 -82 50 -91 -3 -3 -29 5 -56
18 -39 18 -52 30 -58 54 -5 18 -16 32 -27 34 -13 3 -16 0 -11 -13 6 -17 5 -17
-20 0 -14 9 -29 13 -32 10 -4 -4 1 -12 12 -19 35 -21 54 -41 61 -63 6 -20 4
-22 -32 -16 -35 6 -37 5 -24 -10 7 -10 26 -17 42 -17 19 0 29 -5 29 -15 0 -8
9 -19 19 -25 27 -14 34 -13 27 5 -3 8 -4 15 -2 15 2 0 23 -7 46 -15 46 -16 80
-20 65 -7 -6 5 -35 16 -66 25 -40 12 -58 23 -62 37 -3 11 -4 20 -3 20 1 0 19
-9 41 -20 44 -22 70 -25 80 -9 8 11 -38 111 -61 134 -17 17 -44 20 -44 6z"/>
<path d="M1185 930 c1 -23 -3 -43 -8 -47 -6 -3 -7 -1 -3 5 4 7 3 12 -3 12 -21
0 -19 -18 4 -30 14 -7 25 -22 25 -32 0 -10 4 -18 9 -18 5 0 4 18 -1 40 -9 34
-8 44 7 60 11 13 14 20 6 20 -7 0 -9 5 -5 13 4 6 4 9 -1 5 -4 -4 -14 -3 -20 2
-9 7 -11 0 -10 -30z"/>
<path d="M1133 920 c-1 -11 2 -20 8 -20 5 0 9 9 9 20 0 11 -4 20 -8 20 -4 0
-8 -9 -9 -20z"/>
<path d="M970 916 c0 -8 5 -18 10 -21 6 -3 10 3 10 14 0 12 -4 21 -10 21 -5 0
-10 -6 -10 -14z"/>
<path d="M1800 836 c0 -9 7 -16 16 -16 9 0 14 5 12 12 -6 18 -28 21 -28 4z"/>
<path d="M1475 801 c-3 -5 -1 -13 5 -16 8 -5 8 -11 0 -20 -7 -8 -7 -16 -2 -19
6 -3 15 1 21 8 8 10 9 16 1 21 -5 3 -10 11 -10 16 0 6 5 7 12 3 7 -4 8 -3 4 4
-9 14 -23 15 -31 3z"/>
<path d="M1726 768 c3 -13 22 -54 41 -92 33 -65 33 -69 17 -87 -13 -15 -15
-24 -7 -41 l10 -23 13 25 c7 14 35 48 62 76 38 39 49 57 44 72 -6 18 -11 15
-51 -26 -24 -26 -45 -45 -47 -42 -17 27 -68 134 -64 137 2 2 16 -12 31 -31 29
-38 45 -46 45 -22 0 18 -66 76 -86 76 -11 0 -14 -6 -8 -22z"/>
<path d="M1250 770 c-11 -7 -12 -10 -2 -10 7 0 10 -5 7 -10 -4 -6 -11 -8 -16
-5 -5 4 -9 1 -9 -5 0 -7 7 -10 15 -6 10 4 15 -1 15 -15 0 -11 4 -18 8 -15 8 5
8 63 0 71 -2 2 -10 0 -18 -5z"/>
<path d="M341 756 c-13 -15 -8 -21 39 -43 l25 -11 -23 -1 c-31 -1 -24 -20 16
-41 24 -13 28 -20 19 -29 -9 -10 -8 -15 7 -27 11 -8 27 -14 37 -14 21 0 45
-28 41 -50 -1 -9 4 -23 13 -30 19 -16 95 -31 95 -19 0 5 -9 9 -21 9 -11 0 -30
5 -41 11 -21 11 -21 12 -3 25 22 17 75 19 75 3 0 -7 -12 -8 -32 -4 -25 5 -29
4 -18 -4 22 -15 83 -14 78 2 -7 18 -69 37 -105 31 -17 -2 -34 0 -38 6 -3 6 4
10 17 10 13 0 30 5 38 10 11 7 3 10 -30 10 -55 0 -90 9 -90 23 0 6 17 7 46 3
34 -4 45 -3 42 7 -3 6 -27 14 -54 17 -27 3 -55 9 -61 13 -22 14 -14 28 15 26
76 -6 81 9 15 51 -51 33 -84 38 -102 16z m86 -27 c19 -12 32 -23 29 -26 -8 -8
-73 17 -86 33 -19 22 16 18 57 -7z"/>
<path d="M1168 693 c-7 -31 39 -112 65 -113 16 0 6 20 -10 21 -12 0 -14 2 -5
6 10 4 7 9 -8 20 -15 11 -20 23 -17 39 5 29 -19 55 -25 27z"/>
<path d="M1106 665 c-4 -20 -10 -34 -14 -31 -4 2 -12 -7 -19 -20 -15 -32 -4
-31 24 3 13 14 23 39 23 55 0 38 -6 35 -14 -7z"/>
<path d="M940 661 c0 -17 15 -19 28 -5 11 12 9 14 -8 14 -11 0 -20 -4 -20 -9z"/>
<path d="M1005 580 l-30 -8 32 -1 c17 0 35 4 38 9 7 11 3 11 -40 0z"/>
<path d="M1607 573 c-3 -3 -3 -11 0 -19 3 -8 -2 -17 -11 -20 -9 -3 -16 -15
-16 -26 0 -18 2 -19 17 -7 15 13 16 11 9 -21 -3 -19 -13 -41 -20 -49 -17 -16
-37 -6 -30 14 3 8 -1 21 -9 30 -14 13 -18 13 -36 -3 -12 -9 -36 -39 -54 -67
-22 -35 -40 -51 -57 -53 -32 -4 -38 28 -9 54 10 9 19 12 19 7 0 -6 -7 -16 -15
-23 -9 -7 -13 -15 -10 -18 7 -8 45 29 45 45 0 28 -39 11 -83 -38 -26 -29 -51
-48 -57 -44 -8 5 -7 12 4 24 25 28 19 40 -18 37 -42 -4 -59 -14 -52 -32 3 -9
-9 -21 -36 -35 l-41 -21 31 40 c29 36 40 62 27 62 -3 0 -22 -11 -43 -25 -54
-35 -123 -58 -136 -45 -8 8 -4 17 14 31 38 29 131 72 157 72 27 0 40 14 26 28
-13 13 -129 -29 -184 -65 -33 -22 -40 -32 -37 -54 4 -37 43 -40 107 -8 28 14
54 26 58 26 20 0 -59 -66 -104 -86 -29 -13 -53 -28 -53 -34 0 -16 16 -12 89
25 37 19 72 35 77 35 5 0 29 16 53 35 48 38 75 47 46 15 -18 -19 -15 -50 5
-50 6 0 21 7 35 16 18 12 28 13 44 5 25 -14 63 0 84 29 13 19 18 20 36 8 18
-11 23 -10 35 7 9 11 16 27 16 35 0 9 -5 7 -16 -8 -8 -12 -19 -22 -25 -22 -17
0 -8 25 22 60 23 27 29 30 24 14 -6 -22 12 -74 25 -74 12 0 37 34 45 59 6 21
9 22 17 8 19 -35 52 -15 63 38 l6 30 -16 -28 c-19 -33 -36 -31 -46 6 -5 20 -3
29 9 36 15 9 15 12 -4 30 -12 11 -24 17 -27 14z"/>
<path d="M715 436 c-12 -8 -16 -19 -11 -31 5 -14 14 -17 47 -12 31 4 38 2 30
-6 -6 -6 -11 -15 -11 -19 0 -12 72 -10 90 2 12 8 8 10 -14 8 -16 -2 -31 2 -33
10 -3 6 1 12 9 12 7 0 21 9 30 19 14 17 15 20 1 25 -28 11 -119 6 -138 -8z
m110 -16 c-29 -12 -108 -12 -100 0 3 6 32 10 63 9 41 0 51 -3 37 -9z"/>
<path d="M1180 430 c-9 -6 -10 -10 -3 -10 6 0 15 5 18 10 8 12 4 12 -15 0z"/>
<path d="M315 110 c0 -31 4 -50 12 -50 6 0 9 9 6 20 -4 14 0 20 11 20 9 0 16
-8 16 -20 0 -11 3 -20 8 -20 4 0 7 23 7 50 0 30 -4 50 -11 50 -7 0 -9 -10 -6
-25 3 -19 0 -25 -13 -25 -13 0 -16 6 -13 25 3 15 1 25 -6 25 -7 0 -11 -20 -11
-50z"/>
<path d="M402 148 c-16 -16 -15 -73 2 -87 11 -9 18 -8 30 4 18 19 21 48 6 76
-12 22 -21 24 -38 7z m32 -22 c7 -30 -2 -58 -18 -53 -13 4 -20 42 -12 63 8 22
23 17 30 -10z"/>
<path d="M458 110 c4 -45 6 -50 28 -50 16 0 24 5 23 18 0 10 -3 12 -6 5 -11
-28 -23 -11 -23 32 0 29 -4 45 -12 45 -9 0 -12 -15 -10 -50z"/>
<path d="M518 110 c4 -45 6 -50 28 -50 16 0 24 5 23 18 0 10 -3 12 -6 5 -2 -7
-11 -13 -18 -13 -9 0 -12 13 -10 45 2 29 -1 45 -8 45 -8 0 -11 -17 -9 -50z"/>
<path d="M575 143 c5 -10 10 -33 13 -50 5 -40 18 -44 15 -6 -2 40 -14 73 -25
73 -6 0 -7 -8 -3 -17z"/>
<path d="M610 143 c0 -14 2 -15 9 -5 6 9 12 -1 20 -32 6 -25 14 -46 17 -46 7
0 0 43 -11 73 -4 9 -3 17 2 17 5 0 15 -21 23 -47 12 -43 14 -45 20 -23 18 68
20 80 11 80 -5 0 -12 -15 -14 -32 l-4 -33 -1 33 c-2 30 -5 32 -37 32 -27 0
-35 -4 -35 -17z"/>
<path d="M720 141 c-15 -28 -12 -57 6 -76 22 -22 44 -2 44 39 0 50 -30 72 -50
37z m38 -37 c-2 -15 -8 -29 -15 -31 -17 -6 -26 33 -13 58 15 28 33 11 28 -27z"/>
<path d="M791 146 c-19 -22 -10 -80 13 -84 22 -5 36 14 36 49 0 24 -16 49 -31
49 -4 0 -12 -6 -18 -14z m35 -21 c7 -29 -1 -55 -16 -55 -15 0 -23 26 -16 55 8
32 24 32 32 0z"/>
<path d="M852 110 c-1 -28 2 -50 8 -50 5 0 10 21 10 46 0 40 2 45 15 34 18
-15 20 -51 3 -69 -11 -11 -10 -13 2 -9 19 6 25 64 9 84 -6 8 -19 14 -28 14
-13 0 -17 -11 -19 -50z"/>
<path d="M972 148 c-18 -18 -15 -75 4 -86 9 -5 26 -7 39 -4 19 3 21 7 12 17
-8 8 -14 9 -18 2 -4 -5 -14 -7 -23 -4 -18 7 -21 44 -6 67 9 13 12 12 25 -4 12
-16 15 -17 15 -4 0 9 -7 19 -16 22 -20 8 -18 8 -32 -6z"/>
<path d="M1047 152 c-5 -7 -5 -22 -2 -33 5 -15 4 -19 -4 -15 -6 4 -11 1 -11
-8 0 -10 6 -13 15 -10 9 4 15 0 15 -10 0 -9 8 -16 21 -16 11 0 17 -4 14 -10
-3 -5 -2 -10 3 -10 5 0 14 25 21 56 8 35 16 52 21 44 4 -6 4 -27 0 -46 -5 -19
-4 -34 1 -34 5 0 9 15 9 33 l1 32 19 -35 c11 -21 19 -28 20 -18 0 24 -40 88
-55 88 -8 0 -16 -17 -20 -39 -4 -22 -14 -42 -22 -45 -20 -8 -19 -9 -30 44 -5
28 -12 40 -16 32z"/>
<path d="M1180 138 c0 -19 2 -20 10 -8 13 19 13 30 0 30 -5 0 -10 -10 -10 -22z"/>
<path d="M1210 110 c0 -47 2 -50 25 -50 14 0 25 4 25 10 0 5 -7 7 -15 4 -10
-4 -15 0 -15 11 0 9 4 14 9 11 5 -3 12 9 16 27 l8 32 11 -50 c7 -27 15 -45 18
-40 4 6 2 29 -4 51 -10 37 -14 41 -45 42 l-33 1 0 -49z m33 15 c-7 -21 -13
-19 -13 6 0 11 4 18 10 14 5 -3 7 -12 3 -20z"/>
<path d="M1304 110 c5 -27 14 -50 19 -50 5 0 6 12 2 28 -4 15 -7 37 -8 50 -1
12 -7 22 -13 22 -7 0 -8 -15 0 -50z"/>
<path d="M1330 135 c0 -14 2 -25 4 -25 2 0 6 11 8 25 3 14 1 25 -3 25 -5 0 -9
-11 -9 -25z"/>
<path d="M1382 148 c-16 -16 -15 -73 2 -87 32 -27 64 57 34 87 -7 7 -15 12
-18 12 -3 0 -11 -5 -18 -12z m38 -42 c0 -20 -18 -39 -29 -32 -12 8 -15 59 -4
70 8 8 33 -21 33 -38z"/>
<path d="M1440 110 c0 -27 4 -50 9 -50 5 0 7 10 4 23 l-5 22 19 -23 c15 -18
27 -22 66 -21 l47 2 0 44 c0 23 4 43 10 43 5 0 7 -15 5 -32 -4 -29 -4 -30 4
-8 15 41 12 50 -13 50 -22 0 -23 -3 -19 -47 3 -36 2 -44 -6 -33 -7 10 -11 11
-11 3 0 -7 -7 -13 -16 -13 -13 0 -15 9 -12 45 2 29 -1 45 -8 45 -8 0 -10 -15
-6 -45 5 -47 -9 -61 -27 -27 -7 13 -7 22 1 30 13 13 -6 42 -28 42 -10 0 -14
-14 -14 -50z m30 20 c0 -11 -4 -20 -9 -20 -5 0 -7 9 -4 20 3 11 7 20 9 20 2 0
4 -9 4 -20z"/>
<path d="M1630 117 c-7 -26 -16 -44 -21 -42 -4 3 -10 1 -14 -5 -3 -5 2 -10 13
-10 13 0 23 11 30 33 9 30 10 30 12 7 1 -14 2 -28 1 -33 0 -4 4 -7 10 -7 7 0
8 12 3 33 -15 69 -20 73 -34 24z"/>
<path d="M1680 156 c0 -2 12 -25 28 -52 l27 -49 6 50 c3 28 7 40 7 27 1 -12 9
-25 17 -28 8 -4 15 -12 15 -20 0 -17 -17 -18 -23 -1 -4 7 -6 6 -6 -4 -1 -26
27 -31 40 -8 9 17 7 25 -11 44 -14 15 -18 25 -11 30 6 3 11 1 11 -4 0 -6 5
-11 11 -11 6 0 9 6 7 13 -3 6 -20 13 -40 14 -33 2 -34 1 -30 -30 l4 -32 -21
33 c-18 28 -31 40 -31 28z"/>
<path d="M1845 110 c0 -49 0 -50 31 -50 19 0 34 6 38 15 3 8 10 15 16 15 5 0
10 -7 10 -15 0 -8 9 -15 20 -15 11 0 20 5 20 11 0 6 -7 9 -14 6 -11 -5 -17 5
-22 38 -7 51 -20 51 -30 0 -3 -19 -10 -32 -15 -29 -5 3 -9 0 -9 -5 0 -6 -7
-11 -16 -11 -14 0 -16 8 -12 45 4 30 2 45 -6 45 -7 0 -11 -20 -11 -50z"/>
<path d="M1680 90 c0 -16 4 -30 8 -30 5 0 7 13 4 30 -2 17 -6 30 -8 30 -2 0
-4 -13 -4 -30z"/>
<path d="M923 62 c1 -14 5 -18 11 -12 7 7 6 14 -1 21 -9 9 -12 7 -10 -9z"/>
<path d="M1800 73 c0 -4 5 -15 10 -23 8 -13 10 -13 10 2 0 9 -4 20 -10 23 -5
3 -10 3 -10 -2z"/>
</g>
</svg>
