<?xml version="1.0" standalone="no"?>
<!DOCTYPE svg PUBLIC "-//W3C//DTD SVG 20010904//EN"
 "http://www.w3.org/TR/2001/REC-SVG-20010904/DTD/svg10.dtd">
<svg version="1.0" xmlns="http://www.w3.org/2000/svg"
 width="400.000000pt" height="407.000000pt" viewBox="0 0 400.000000 407.000000"
 preserveAspectRatio="xMidYMid meet">

<g transform="translate(0.000000,407.000000) scale(0.100000,-0.100000)"
fill="#000000" stroke="none">
<path d="M600 4045 c-287 -58 -495 -256 -572 -545 l-23 -85 0 -1380 0 -1380
23 -85 c40 -154 114 -273 232 -374 114 -98 238 -155 385 -176 100 -14 265 -12
295 3 l25 13 5 1603 5 1603 24 19 c22 18 48 19 645 19 764 0 876 -9 1077 -84
180 -67 332 -177 452 -326 254 -316 303 -740 128 -1105 -61 -126 -112 -201
-198 -288 -133 -135 -297 -227 -496 -277 -157 -39 -277 -50 -626 -57 -277 -6
-306 -8 -323 -25 -17 -17 -18 -46 -18 -541 0 -436 2 -526 14 -543 14 -19 34
-19 853 -19 836 0 838 0 923 22 281 74 462 254 542 538 l23 80 0 1385 0 1385
-22 80 c-81 288 -292 486 -580 541 -106 20 -2692 19 -2793 -1z"/>
<path d="M1697 2656 c-16 -16 -17 -55 -17 -460 0 -348 3 -446 13 -460 12 -17
35 -18 343 -14 360 5 378 8 497 71 156 82 252 286 226 477 -26 185 -170 332
-368 376 -46 10 -159 17 -371 21 -280 5 -307 4 -323 -11z"/>
</g>
</svg>
