<?xml version="1.0" standalone="no"?>
<!DOCTYPE svg PUBLIC "-//W3C//DTD SVG 20010904//EN"
 "http://www.w3.org/TR/2001/REC-SVG-20010904/DTD/svg10.dtd">
<svg version="1.0" xmlns="http://www.w3.org/2000/svg"
 width="400.000000pt" height="400.000000pt" viewBox="0 0 400.000000 400.000000"
 preserveAspectRatio="xMidYMid meet">

<g transform="translate(0.000000,400.000000) scale(0.100000,-0.100000)"
fill="#000000" stroke="none">
<path d="M1727 3129 c-23 -18 -57 -67 -57 -83 0 -10 71 -18 106 -11 41 7 36
19 -15 32 l-33 9 26 31 c14 17 26 34 26 37 0 12 -26 5 -53 -15z"/>
<path d="M1831 3131 c-19 -9 -36 -22 -39 -28 -6 -20 62 -16 89 6 22 18 22 19
3 29 -14 7 -28 6 -53 -7z"/>
<path d="M2055 3136 c-15 -11 -15 -13 -1 -25 20 -16 96 -27 96 -14 0 28 -71
57 -95 39z"/>
<path d="M2160 3146 c0 -3 11 -17 25 -32 33 -35 32 -41 -10 -48 -37 -7 -45
-20 -19 -30 20 -8 72 -8 101 0 21 6 22 8 8 34 -17 33 -71 80 -91 80 -8 0 -14
-2 -14 -4z"/>
<path d="M1619 3075 c-26 -14 -52 -56 -64 -106 -6 -25 -6 -25 47 -19 93 11
135 50 53 50 l-45 0 17 35 c9 19 20 35 25 35 4 0 8 5 8 10 0 13 -10 12 -41 -5z"/>
<path d="M2290 3085 c0 -2 9 -19 20 -37 11 -18 20 -36 20 -40 0 -5 -20 -8 -45
-8 -25 0 -45 -5 -45 -11 0 -16 65 -39 113 -39 l44 0 -15 45 c-8 25 -28 56 -44
70 -27 23 -48 32 -48 20z"/>
<path d="M1486 2969 c-23 -26 -26 -40 -26 -100 l0 -69 59 30 c53 26 91 61 91
82 0 4 -21 1 -47 -7 -27 -8 -50 -15 -52 -15 -2 0 -1 25 2 55 3 30 4 55 2 55
-2 0 -15 -14 -29 -31z"/>
<path d="M2425 2978 c9 -36 12 -88 6 -88 -3 0 -27 7 -53 15 -29 8 -48 10 -48
4 0 -18 47 -58 98 -82 l50 -24 7 47 c7 54 -9 103 -44 135 l-22 19 6 -26z"/>
<path d="M1823 2916 c-102 -33 -151 -88 -160 -181 -11 -106 45 -189 149 -220
29 -8 104 -18 168 -21 179 -10 236 -45 214 -132 -7 -29 -18 -42 -54 -62 -63
-35 -191 -36 -265 -2 -64 30 -116 80 -145 143 -39 81 -50 66 -50 -66 0 -93 3
-115 14 -115 8 0 18 9 21 20 9 27 28 25 137 -11 81 -27 103 -31 175 -27 158 8
253 86 261 211 3 53 -1 70 -25 117 -23 46 -37 59 -83 83 -49 25 -71 28 -202
36 -126 8 -153 12 -190 33 -36 19 -44 29 -46 57 -4 39 16 64 70 92 44 22 158
26 220 7 49 -15 130 -85 164 -144 14 -24 30 -44 35 -44 5 0 9 50 9 110 0 108
-8 132 -30 90 -14 -26 -40 -25 -117 6 -79 31 -207 41 -270 20z"/>
<path d="M1397 2823 c-9 -18 -17 -43 -17 -56 0 -30 29 -117 40 -117 24 0 122
131 108 145 -2 2 -23 -10 -47 -26 -24 -17 -45 -28 -47 -26 -2 2 -7 28 -12 58
l-8 54 -17 -32z"/>
<path d="M2520 2820 c0 -19 -3 -45 -6 -57 l-6 -23 -42 25 c-54 32 -57 31 -45
-4 12 -33 94 -115 108 -107 16 10 34 96 28 133 -4 20 -13 44 -22 52 -13 14
-15 12 -15 -19z"/>
<path d="M1351 2661 c-18 -33 -8 -84 30 -142 l32 -50 19 28 c36 53 58 102 58
130 l-1 28 -39 -42 -39 -41 -17 26 c-10 15 -20 40 -24 57 l-6 30 -13 -24z"/>
<path d="M2570 2658 c-1 -13 -9 -38 -18 -56 l-18 -33 -32 41 c-18 22 -38 40
-44 40 -20 0 0 -69 35 -126 l35 -55 30 44 c37 53 46 86 38 132 -8 39 -26 48
-26 13z"/>
<path d="M1470 2497 c0 -1 -8 -26 -19 -55 l-18 -53 -47 45 c-46 45 -46 45 -46
18 0 -38 32 -86 81 -122 23 -16 45 -30 48 -30 20 0 39 147 25 184 -5 13 -24
23 -24 13z"/>
<path d="M2444 2465 c-7 -38 14 -165 28 -165 16 0 92 61 110 88 10 15 18 42
18 59 l0 32 -47 -47 c-41 -40 -48 -44 -51 -27 -5 30 -34 95 -43 95 -4 0 -11
-16 -15 -35z"/>
<path d="M1518 2294 l-3 -65 -57 29 c-32 16 -58 25 -58 20 0 -19 30 -66 52
-80 22 -14 113 -48 129 -48 4 0 5 28 2 63 -5 61 -36 147 -53 147 -5 0 -10 -30
-12 -66z"/>
<path d="M2392 2330 c-12 -19 -24 -55 -27 -80 -3 -25 -8 -57 -10 -72 -5 -33
-8 -32 63 -12 64 19 122 69 122 105 0 20 -1 21 -17 7 -15 -14 -87 -48 -99 -48
-3 0 -2 10 1 23 3 12 2 42 -3 67 l-8 45 -22 -35z"/>
<path d="M1634 2177 c7 -29 16 -59 21 -66 6 -11 -3 -13 -46 -9 -30 3 -62 9
-73 13 -16 7 -17 6 -7 -14 23 -42 70 -61 149 -61 39 0 72 2 72 5 0 19 -63 139
-84 160 -38 38 -46 31 -32 -28z"/>
<path d="M2267 2191 c-19 -21 -40 -56 -47 -77 -7 -22 -16 -43 -21 -48 -19 -21
-6 -26 61 -26 74 0 111 13 144 49 24 26 17 35 -18 21 -40 -15 -111 -13 -98 3
5 6 13 28 17 47 3 19 9 43 11 53 8 28 -11 20 -49 -22z"/>
<path d="M1760 2130 c0 -13 27 -58 52 -86 18 -21 18 -22 1 -29 -10 -4 -43 -10
-73 -14 l-55 -7 35 -22 c19 -12 51 -22 70 -22 32 0 132 29 145 42 10 10 -87
109 -126 128 -44 23 -49 24 -49 10z"/>
<path d="M2129 2120 c-21 -11 -58 -43 -83 -72 l-46 -53 42 -18 c66 -28 128
-32 171 -12 46 21 47 35 5 35 -18 0 -50 5 -71 11 -32 9 -36 12 -24 22 14 12
67 91 67 102 0 10 -26 4 -61 -15z"/>
<path d="M1955 2087 c-23 -36 -17 -72 14 -72 38 0 48 27 24 65 l-21 33 -17
-26z"/>
<path d="M1947 1973 c-17 -16 5 -83 26 -83 12 0 37 59 31 74 -6 16 -45 22 -57
9z"/>
<path d="M1014 1749 c-66 -19 -97 -92 -65 -152 17 -32 44 -43 117 -52 77 -10
94 -19 94 -54 0 -36 -18 -51 -67 -58 -59 -8 -107 17 -129 66 -11 22 -22 41
-26 41 -5 0 -8 -28 -8 -62 0 -58 1 -61 17 -46 14 15 20 15 42 4 94 -47 204
-10 217 75 12 74 -28 116 -117 125 -83 8 -98 13 -109 34 -9 16 -6 25 14 45 46
46 138 22 167 -44 20 -46 29 -38 29 25 0 48 -2 55 -14 45 -11 -10 -26 -9 -67
3 -29 9 -55 16 -58 15 -3 0 -20 -5 -37 -10z"/>
<path d="M1220 1740 c0 -5 5 -10 10 -10 6 0 10 -55 10 -145 0 -125 -2 -145
-16 -145 -8 0 -12 -4 -9 -10 3 -5 35 -10 71 -10 36 0 64 4 64 10 0 6 -7 10
-15 10 -12 0 -15 16 -15 84 0 103 19 131 74 110 23 -9 24 -194 0 -194 -8 0
-12 -4 -9 -10 3 -5 35 -10 71 -10 36 0 64 4 64 10 0 6 -7 10 -15 10 -12 0 -15
16 -15 84 0 107 -18 136 -86 136 -25 0 -54 -5 -65 -10 -18 -10 -19 -7 -19 45
l0 55 -50 0 c-27 0 -50 -4 -50 -10z"/>
<path d="M2356 1725 c-14 -32 -48 -65 -68 -65 -10 0 -18 -4 -18 -10 0 -5 7
-10 15 -10 12 0 15 -17 15 -93 0 -99 8 -120 49 -130 26 -6 72 8 83 26 4 7 7
23 7 37 -1 23 -2 23 -15 -7 -29 -67 -54 -27 -54 86 0 80 0 81 26 81 14 0 23 4
19 10 -3 6 -15 10 -25 10 -15 0 -20 9 -22 43 -3 34 -5 38 -12 22z"/>
<path d="M3017 1689 c-39 -22 -4 -79 35 -58 10 5 18 18 18 29 0 25 -30 41 -53
29z m0 -41 c-3 -7 -5 -2 -5 12 0 14 2 19 5 13 2 -7 2 -19 0 -25z m40 0 c-3 -7
-5 -2 -5 12 0 14 2 19 5 13 2 -7 2 -19 0 -25z"/>
<path d="M1578 1644 c-61 -32 -78 -129 -32 -183 42 -51 113 -59 182 -22 23 12
46 67 31 76 -5 4 -9 -1 -9 -10 0 -9 -11 -27 -25 -40 -47 -48 -125 -20 -125 45
l0 30 80 0 80 0 0 31 c0 20 -10 40 -29 60 -25 24 -37 29 -78 29 -26 -1 -60 -7
-75 -16z m100 -6 c5 -7 13 -28 17 -45 l7 -33 -51 0 c-55 0 -62 10 -40 53 20
37 48 48 67 25z"/>
<path d="M1775 1650 c-3 -5 1 -10 9 -10 13 0 16 -16 16 -100 0 -84 -3 -100
-16 -100 -8 0 -12 -4 -9 -10 3 -5 33 -10 65 -10 32 0 62 5 65 10 3 6 -1 10 -9
10 -13 0 -16 14 -16 79 0 64 4 83 21 105 11 14 28 26 37 26 12 0 13 -3 4 -12
-24 -24 -9 -68 23 -68 9 0 35 33 35 45 0 37 -79 62 -107 34 -8 -8 -13 -8 -17
0 -9 14 -93 15 -101 1z"/>
<path d="M2042 1648 c-29 -15 -40 -55 -19 -75 30 -30 72 11 49 48 -9 15 -8 19
9 24 26 8 69 -19 69 -44 0 -25 -16 -36 -82 -55 -62 -18 -77 -39 -64 -91 10
-41 107 -55 137 -19 10 12 14 12 24 -3 18 -24 83 -23 101 2 15 21 20 75 5 60
-5 -6 -11 -19 -13 -30 -2 -11 -8 -20 -13 -20 -6 0 -12 40 -15 88 -4 78 -8 91
-29 108 -26 22 -120 26 -159 7z m108 -141 c0 -46 -13 -67 -42 -67 -22 0 -41
35 -33 60 6 18 48 49 68 50 4 0 7 -19 7 -43z"/>
<path d="M2504 1641 c-59 -36 -71 -136 -23 -187 44 -47 143 -51 190 -8 54 49
46 158 -14 194 -41 26 -112 26 -153 1z m111 -21 c18 -35 19 -125 2 -160 -15
-30 -48 -37 -71 -15 -22 22 -23 151 0 183 21 31 50 28 69 -8z"/>
<path d="M2715 1650 c-3 -5 1 -10 9 -10 13 0 16 -16 16 -100 0 -84 -3 -100
-16 -100 -8 0 -12 -4 -9 -10 3 -5 35 -10 71 -10 36 0 64 4 64 10 0 6 -7 10
-15 10 -12 0 -15 16 -15 84 0 89 12 116 49 116 33 0 41 -22 41 -112 0 -73 -3
-88 -16 -88 -8 0 -12 -4 -9 -10 3 -5 35 -10 71 -10 36 0 64 4 64 10 0 6 -7 10
-15 10 -12 0 -15 16 -15 85 0 78 -2 88 -25 110 -26 27 -89 34 -126 15 -13 -7
-19 -7 -19 0 0 13 -97 13 -105 0z"/>
<path d="M995 1320 c-3 -5 -1 -10 4 -10 7 0 11 -35 11 -95 0 -57 -4 -95 -10
-95 -5 0 -10 -4 -10 -10 0 -5 14 -10 30 -10 34 0 37 5 15 26 -11 11 -15 38
-15 95 0 43 3 79 8 79 4 -1 41 -46 82 -102 l75 -102 3 102 c2 79 6 104 17 108
22 9 8 24 -21 24 -24 0 -34 -15 -13 -22 6 -2 9 -24 7 -52 l-3 -48 -44 61 c-42
58 -46 61 -87 61 -24 0 -46 -4 -49 -10z"/>
<path d="M1771 1316 c-70 -39 -67 -172 4 -204 67 -31 136 -1 155 67 14 53 3
97 -32 126 -33 28 -88 33 -127 11z m97 -26 c20 -38 11 -149 -13 -166 -28 -20
-42 -17 -62 13 -21 31 -23 126 -4 161 17 31 61 26 79 -8z"/>
<path d="M2110 1321 c0 -6 5 -11 10 -11 6 0 10 -38 10 -95 0 -57 -4 -95 -10
-95 -5 0 -10 -4 -10 -10 0 -5 18 -10 39 -10 22 0 43 5 46 10 3 6 2 10 -4 10
-6 0 -11 41 -13 103 l-3 102 -32 3 c-19 2 -33 -1 -33 -7z"/>
<path d="M1263 1259 c-12 -6 -27 -24 -33 -40 -44 -105 104 -171 154 -69 4 8
-1 6 -11 -6 -37 -43 -93 -37 -93 11 0 24 3 25 55 25 47 0 55 3 55 19 0 49 -77
85 -127 60z m67 -18 c16 -32 12 -41 -20 -41 -22 0 -30 5 -30 18 0 18 18 42 32
42 4 0 12 -9 18 -19z"/>
<path d="M2046 1261 c-3 -5 -27 -7 -53 -5 -27 2 -42 1 -35 -2 15 -7 17 -134 2
-134 -5 0 -10 -4 -10 -10 0 -5 20 -10 45 -10 25 0 45 5 45 10 0 6 -4 10 -10
10 -19 0 -11 86 10 111 11 13 18 17 15 8 -7 -18 19 -44 35 -34 14 8 13 38 -2
53 -14 14 -35 16 -42 3z"/>
<path d="M2260 1263 c-35 -13 -50 -37 -50 -79 0 -51 33 -84 86 -84 35 0 74 28
74 53 0 6 -5 4 -11 -5 -5 -10 -19 -23 -30 -29 -26 -13 -69 12 -69 41 0 18 7
20 55 20 52 0 55 2 55 24 0 44 -61 77 -110 59z m48 -15 c7 -7 12 -20 12 -30 0
-13 -8 -18 -30 -18 -32 0 -36 9 -20 41 12 22 21 24 38 7z"/>
<path d="M2421 1253 c-16 -13 -22 -26 -18 -37 10 -25 42 -16 42 12 0 12 4 22
8 22 4 0 14 0 22 0 9 0 15 -9 15 -23 0 -19 -9 -26 -47 -38 -37 -11 -49 -19
-51 -37 -2 -13 2 -30 8 -38 14 -15 75 -19 84 -5 4 5 18 5 35 -2 33 -12 62 3
60 32 -1 13 -2 13 -6 -1 -9 -37 -23 -16 -23 35 0 66 -15 87 -66 94 -30 4 -45
0 -63 -14z m65 -119 c-7 -19 -35 -18 -43 3 -4 10 2 23 18 36 l24 19 3 -22 c2
-12 1 -28 -2 -36z"/>
<path d="M2692 1261 c-8 -5 -35 -7 -60 -5 -26 2 -41 1 -34 -2 15 -7 17 -134 2
-134 -5 0 -10 -4 -10 -10 0 -5 20 -10 45 -10 25 0 45 5 45 10 0 6 -4 10 -10
10 -17 0 -12 97 6 114 19 19 26 20 42 4 14 -14 16 -118 2 -118 -5 0 -10 -4
-10 -10 0 -5 20 -10 45 -10 25 0 45 5 45 10 0 6 -4 10 -10 10 -6 0 -10 26 -10
59 0 51 -3 62 -22 75 -25 18 -46 20 -66 7z"/>
<path d="M2830 1250 c-40 -40 -16 -80 53 -87 55 -6 68 -20 41 -40 -25 -19 -74
-9 -96 20 l-18 22 0 -27 c0 -24 4 -27 50 -33 39 -5 56 -3 75 9 44 29 24 96
-28 96 -63 1 -92 33 -41 46 18 5 34 0 55 -15 28 -21 29 -21 29 -3 0 14 -9 21
-31 26 -51 10 -68 7 -89 -14z"/>
<path d="M1432 1180 c21 -44 41 -80 44 -80 3 0 13 19 24 43 l18 42 18 -42 c9
-24 20 -43 24 -43 4 0 20 28 35 63 15 34 34 70 43 80 14 16 13 17 -11 17 -20
0 -24 -4 -20 -19 3 -10 -2 -31 -10 -46 l-14 -28 -18 46 c-10 26 -21 47 -25 47
-4 0 -15 -19 -24 -42 l-17 -43 -19 35 c-13 25 -15 37 -7 42 7 4 -8 8 -33 8
l-46 0 38 -80z"/>
<path d="M993 1038 c-2 -5 440 -8 983 -8 543 0 984 3 980 7 -9 10 -1957 10
-1963 1z"/>
<path d="M1708 915 c3 -39 8 -55 18 -55 10 0 14 14 14 55 0 46 -3 55 -17 55
-15 0 -18 -8 -15 -55z"/>
<path d="M1770 915 c0 -41 4 -55 14 -55 10 0 15 16 18 55 3 47 0 55 -14 55
-15 0 -18 -9 -18 -55z"/>
<path d="M1830 951 c-16 -31 -12 -59 12 -75 28 -20 43 -20 62 0 19 18 21 65 4
82 -21 21 -27 13 -15 -18 13 -34 1 -65 -24 -65 -10 0 -14 14 -14 48 0 50 -8
59 -25 28z"/>
<path d="M1941 953 c0 -11 3 -13 6 -5 11 28 23 9 23 -38 0 -38 4 -50 15 -50
11 0 15 12 15 51 0 41 3 50 15 45 8 -3 15 -1 15 4 0 6 -20 10 -45 10 -36 0
-45 -3 -44 -17z"/>
<path d="M2058 917 c3 -38 8 -54 18 -54 10 0 14 14 14 50 0 47 1 49 25 45 14
-3 25 -1 25 3 0 5 -19 9 -42 9 l-43 0 3 -53z"/>
<path d="M2170 915 c0 -42 3 -55 15 -55 12 0 15 13 15 55 0 42 -3 55 -15 55
-12 0 -15 -13 -15 -55z"/>
<path d="M2104 929 c-3 -6 -1 -16 5 -22 8 -8 11 -5 11 11 0 24 -5 28 -16 11z"/>
<path d="M2225 880 c-17 -18 -17 -20 -1 -20 9 0 19 7 23 15 9 25 -2 27 -22 5z"/>
<path d="M2115 874 c-20 -15 -20 -16 4 -12 14 2 26 9 29 16 5 16 -9 15 -33 -4z"/>
</g>
</svg>
