<?xml version="1.0" standalone="no"?>
<!DOCTYPE svg PUBLIC "-//W3C//DTD SVG 20010904//EN"
 "http://www.w3.org/TR/2001/REC-SVG-20010904/DTD/svg10.dtd">
<svg version="1.0" xmlns="http://www.w3.org/2000/svg"
 width="225.000000pt" height="225.000000pt" viewBox="0 0 225.000000 225.000000"
 preserveAspectRatio="xMidYMid meet">

<g transform="translate(0.000000,225.000000) scale(0.100000,-0.100000)"
fill="#000000" stroke="none">
<path d="M1085 1603 c-11 -2 -36 -17 -55 -32 -31 -26 -33 -31 -23 -53 8 -18
19 -25 42 -25 17 0 31 4 31 8 0 13 -24 24 -47 20 -15 -1 -23 3 -23 13 0 19 28
35 52 28 14 -3 17 -1 12 13 -6 15 -2 17 29 13 24 -2 38 1 41 9 5 13 -16 15
-59 6z"/>
<path d="M1160 1595 c0 -9 31 -34 42 -35 4 0 4 7 1 17 -4 11 -3 14 6 9 7 -5
10 -14 7 -21 -2 -7 2 -21 9 -32 21 -27 18 -57 -10 -83 -14 -13 -27 -21 -30
-18 -3 2 4 13 15 23 22 19 27 69 9 81 -7 4 -9 0 -5 -14 5 -15 -4 -34 -30 -69
-28 -37 -36 -42 -31 -23 6 24 5 24 -8 6 -21 -28 -19 -44 11 -83 32 -42 25 -55
-10 -20 -18 18 -26 37 -26 62 0 42 -14 45 -34 8 -8 -16 -15 -21 -15 -13 -1 25
15 41 65 69 57 31 74 54 58 79 -6 9 -19 19 -28 20 -15 3 -14 0 4 -18 12 -12
19 -27 17 -33 -4 -13 -76 -57 -92 -56 -5 0 4 7 20 16 17 9 24 18 18 20 -7 3
-27 -5 -43 -17 -34 -24 -51 -20 -29 6 12 15 12 17 -1 12 -8 -2 -16 -18 -17
-34 -4 -67 -16 -120 -31 -131 -14 -12 -14 -13 1 -13 21 0 37 30 37 70 0 35 15
70 31 70 6 0 3 -10 -5 -22 -9 -12 -16 -41 -16 -65 0 -72 -51 -98 -74 -38 -6
14 -10 16 -13 7 -3 -7 3 -22 13 -33 10 -11 12 -19 5 -19 -8 0 -7 -9 4 -30 8
-16 14 -33 13 -37 0 -4 2 -20 6 -35 l8 -28 107 0 108 0 11 48 c6 26 14 56 17
67 6 19 6 19 -8 3 -8 -10 -17 -14 -22 -10 -4 4 -4 -4 0 -16 6 -20 4 -23 -12
-20 -12 3 -17 11 -16 26 2 12 -2 22 -7 22 -6 0 -10 -9 -10 -20 0 -15 -7 -20
-25 -20 -14 0 -25 5 -25 10 0 6 7 10 15 10 8 0 15 5 15 10 0 6 -7 10 -15 10
-8 0 -14 5 -12 12 1 6 -7 14 -17 16 -14 3 -17 0 -13 -12 4 -10 1 -16 -8 -16
-8 0 -15 -4 -15 -10 0 -5 5 -9 11 -7 6 1 14 -4 16 -11 4 -10 -3 -13 -23 -10
-21 2 -28 8 -26 21 2 9 -2 17 -8 17 -5 0 -10 -11 -10 -25 0 -25 -23 -35 -35
-15 -3 6 -1 10 4 10 6 0 11 4 11 10 0 5 -5 9 -11 7 -6 -1 -13 3 -15 8 -2 6 17
17 43 24 27 8 54 18 61 24 8 6 31 3 72 -12 46 -17 64 -19 80 -11 26 14 26 40
1 40 -29 0 -34 16 -15 51 17 35 21 114 7 168 -9 37 -42 65 -50 43 -4 -10 -8
-10 -19 -1 -8 6 -14 8 -14 4z m50 -190 c-23 -25 -23 -27 -8 -53 9 -15 26 -28
37 -30 29 -5 26 -22 -3 -22 -29 0 -56 24 -56 51 0 10 -4 19 -10 19 -22 0 -8
31 22 50 40 24 49 17 18 -15z m-110 -39 c0 -19 -7 -39 -17 -47 -15 -13 -16
-11 -10 11 4 14 7 35 7 48 0 12 5 22 10 22 6 0 10 -15 10 -34z m118 -178 c3
-16 -7 -18 -97 -18 -62 0 -102 4 -107 11 -13 21 21 29 111 27 76 -3 90 -6 93
-20z"/>
<path d="M1040 1190 c0 -5 9 -10 21 -10 11 0 17 5 14 10 -3 6 -13 10 -21 10
-8 0 -14 -4 -14 -10z"/>
<path d="M1100 1190 c0 -5 9 -10 21 -10 11 0 17 5 14 10 -3 6 -13 10 -21 10
-8 0 -14 -4 -14 -10z"/>
<path d="M1160 1188 c0 -4 7 -8 15 -8 8 0 15 4 15 8 0 5 -7 9 -15 9 -8 0 -15
-4 -15 -9z"/>
<path d="M1070 1536 c0 -2 8 -10 18 -17 15 -13 16 -12 3 4 -13 16 -21 21 -21
13z"/>
<path d="M1147 1524 c-4 -4 -7 -14 -7 -23 0 -11 3 -12 11 -4 6 6 10 16 7 23
-2 6 -7 8 -11 4z"/>
<path d="M995 1490 c-3 -5 1 -10 10 -10 9 0 13 5 10 10 -3 6 -8 10 -10 10 -2
0 -7 -4 -10 -10z"/>
<path d="M150 971 c0 -5 9 -7 21 -4 20 6 21 3 18 -46 -4 -46 -2 -51 16 -51 18
0 20 5 17 50 -3 39 -1 50 11 50 9 0 18 -6 20 -12 3 -8 6 -6 6 5 1 14 -8 17
-54 17 -30 0 -55 -4 -55 -9z"/>
<path d="M285 925 c0 -46 3 -55 18 -55 14 0 16 5 11 25 -6 23 -3 25 26 25 29
0 32 -3 28 -25 -4 -20 -1 -25 16 -25 19 0 21 6 21 55 0 49 -2 55 -21 55 -17 0
-20 -5 -16 -26 4 -23 2 -25 -24 -22 -23 2 -29 8 -28 26 0 14 -5 22 -15 22 -13
0 -16 -12 -16 -55z"/>
<path d="M438 968 c5 -7 8 -32 7 -55 -3 -35 0 -43 14 -43 14 0 16 9 14 50 -3
46 -1 50 20 50 13 0 29 -6 36 -12 10 -11 11 -10 6 5 -6 13 -19 17 -57 17 -39
0 -48 -3 -40 -12z"/>
<path d="M625 925 c0 -49 2 -55 21 -55 17 0 20 5 16 25 -2 15 0 25 7 25 6 0
17 -11 23 -25 6 -14 20 -25 30 -25 19 0 19 1 -1 26 -17 21 -18 29 -8 45 15 25
-3 39 -53 39 l-35 0 0 -55z m70 25 c0 -8 -8 -16 -17 -18 -13 -2 -18 3 -18 18
0 15 5 20 18 18 9 -2 17 -10 17 -18z"/>
<path d="M765 925 c0 -48 2 -55 20 -55 18 0 20 7 20 55 0 48 -2 55 -20 55 -18
0 -20 -7 -20 -55z"/>
<path d="M830 971 c0 -5 9 -7 21 -4 20 6 21 3 18 -46 -4 -46 -2 -51 16 -51 18
0 20 5 17 50 -4 50 3 61 26 38 9 -9 12 -8 12 5 0 14 -10 17 -55 17 -30 0 -55
-4 -55 -9z"/>
<path d="M960 972 c0 -5 14 -6 31 -4 35 5 35 3 -8 -54 -28 -38 -29 -44 -3 -44
11 0 20 5 20 11 0 6 14 30 30 55 l31 44 -51 0 c-27 0 -50 -4 -50 -8z"/>
<path d="M1206 964 c-29 -29 -10 -94 27 -94 8 0 7 4 -1 12 -16 16 -16 70 0 86
8 8 9 12 1 12 -6 0 -19 -7 -27 -16z"/>
<path d="M1261 977 c2 -1 12 -9 22 -16 14 -12 17 -11 17 3 0 10 -8 16 -22 16
-12 0 -19 -1 -17 -3z"/>
<path d="M1372 964 c-7 -13 -6 -22 6 -33 14 -15 14 -16 -9 -19 -29 -3 -60 -42
-34 -42 8 0 14 6 13 13 -2 7 9 13 25 15 19 2 27 -1 27 -12 0 -9 9 -16 20 -16
20 0 19 2 -6 53 -33 64 -30 62 -42 41z"/>
<path d="M1475 925 c0 -44 3 -55 16 -55 12 0 15 7 11 25 -2 14 0 25 6 25 5 0
17 -11 26 -25 9 -14 23 -25 32 -25 13 0 11 5 -6 30 -12 17 -17 30 -11 30 17 0
13 37 -5 44 -9 3 -28 6 -42 6 -26 0 -27 -2 -27 -55z m60 25 c0 -8 -8 -16 -17
-18 -13 -2 -18 3 -18 18 0 15 5 20 18 18 9 -2 17 -10 17 -18z"/>
<path d="M1605 925 c0 -48 2 -55 20 -55 18 0 20 7 20 55 0 48 -2 55 -20 55
-18 0 -20 -7 -20 -55z"/>
<path d="M1700 963 c0 -13 3 -14 12 -5 24 24 33 12 30 -38 -3 -43 -1 -50 15
-50 15 0 18 7 15 50 -4 52 9 65 37 38 10 -11 11 -10 6 5 -10 25 -115 25 -115
0z"/>
<path d="M1846 964 c-29 -29 -10 -96 27 -93 9 0 8 2 0 6 -8 3 -13 23 -13 48 0
25 5 45 13 48 8 4 9 6 0 6 -6 1 -19 -6 -27 -15z"/>
<path d="M1913 951 c8 -22 8 -36 -1 -56 -16 -36 7 -30 27 7 13 23 13 29 -2 52
-23 35 -38 33 -24 -3z"/>
<path d="M1965 925 c0 -30 5 -55 10 -55 6 0 9 20 7 48 l-3 47 44 -50 45 -50 3
58 c3 35 0 57 -6 57 -7 0 -9 -15 -7 -37 l5 -37 -33 37 c-48 55 -65 50 -65 -18z"/>
<path d="M495 931 c-3 -5 -1 -12 5 -16 5 -3 10 1 10 9 0 18 -6 21 -15 7z"/>
<path d="M1105 930 c-3 -5 3 -10 14 -10 11 0 23 5 26 10 3 6 -3 10 -14 10 -11
0 -23 -4 -26 -10z"/>
<path d="M516 884 c-17 -12 -17 -14 -4 -14 9 0 20 5 23 11 11 17 2 18 -19 3z"/>
<path d="M1040 885 c-8 -9 -8 -15 -2 -15 12 0 26 19 19 26 -2 2 -10 -2 -17
-11z"/>
<path d="M1280 885 c-10 -12 -10 -15 4 -15 9 0 16 7 16 15 0 8 -2 15 -4 15 -2
0 -9 -7 -16 -15z"/>
<path d="M1680 883 c-24 -12 -24 -13 -3 -13 12 0 25 5 28 11 11 16 2 17 -25 2z"/>
<path d="M840 670 c0 -26 2 -29 14 -18 10 9 11 15 2 21 -8 5 -7 10 4 17 13 8
12 10 -2 10 -13 0 -18 -8 -18 -30z"/>
<path d="M1032 688 c-14 -14 -16 -35 -3 -42 5 -4 7 3 4 14 -6 24 24 40 39 19
8 -12 9 -11 5 1 -5 19 -29 24 -45 8z"/>
<path d="M1107 693 c-4 -3 -7 -18 -7 -32 0 -21 2 -23 10 -11 8 12 12 13 19 2
6 -10 10 -8 14 9 3 12 4 26 1 31 -6 10 -28 11 -37 1z m33 -13 c0 -5 -7 -10
-15 -10 -8 0 -15 5 -15 10 0 6 7 10 15 10 8 0 15 -4 15 -10z"/>
<path d="M1230 680 c0 -14 6 -20 23 -19 16 1 18 2 5 6 -21 5 -23 19 -5 26 7 3
5 6 -5 6 -12 1 -18 -6 -18 -19z"/>
<path d="M1361 690 c0 -8 11 -23 24 -33 25 -18 25 -18 24 10 -1 20 -3 23 -6 9
-5 -18 -6 -18 -24 5 -12 16 -19 19 -18 9z"/>
<path d="M1437 693 c-12 -12 -7 -22 13 -28 11 -4 17 -11 14 -17 -5 -7 -2 -8 6
-3 10 6 7 12 -10 25 -22 17 -23 18 -4 23 13 3 14 5 3 6 -9 0 -19 -2 -22 -6z"/>
<path d="M761 663 c1 -19 3 -22 6 -10 5 18 6 18 24 1 24 -21 25 -11 2 16 -24
27 -33 25 -32 -7z"/>
<path d="M897 673 c3 -10 8 -22 11 -26 5 -9 31 23 31 38 0 6 -6 1 -14 -9 -13
-17 -15 -18 -15 -3 0 9 -4 17 -10 17 -5 0 -7 -8 -3 -17z"/>
<path d="M952 670 c-6 -10 -8 -21 -3 -24 5 -3 11 4 14 16 8 29 4 32 -11 8z"/>
<path d="M1172 665 c0 -16 2 -22 5 -12 2 9 2 23 0 30 -3 6 -5 -1 -5 -18z"/>
<path d="M1308 683 c6 -2 12 -9 12 -15 0 -6 -6 -8 -14 -5 -8 3 -17 0 -19 -7
-4 -9 4 -13 24 -12 16 1 29 2 29 4 0 13 -23 42 -33 41 -9 0 -9 -2 1 -6z"/>
<path d="M1065 650 c-3 -5 -1 -10 4 -10 6 0 11 5 11 10 0 6 -2 10 -4 10 -3 0
-8 -4 -11 -10z"/>
</g>
</svg>
