<?xml version="1.0" standalone="no"?>
<!DOCTYPE svg PUBLIC "-//W3C//DTD SVG 20010904//EN"
 "http://www.w3.org/TR/2001/REC-SVG-20010904/DTD/svg10.dtd">
<svg version="1.0" xmlns="http://www.w3.org/2000/svg"
 width="225.000000pt" height="225.000000pt" viewBox="0 0 225.000000 225.000000"
 preserveAspectRatio="xMidYMid meet">
<metadata>
Created by potrace 1.10, written by Peter Selinger 2001-2011
</metadata>
<g transform="translate(0.000000,225.000000) scale(0.100000,-0.100000)"
fill="#000000" stroke="none">
<path d="M1149 1615 c-3 -2 -22 -5 -42 -7 -21 -1 -43 -8 -49 -16 -6 -7 -24
-20 -40 -28 -27 -14 -28 -15 -13 -44 9 -17 20 -30 26 -30 6 0 8 4 5 8 -3 5 1
9 9 9 8 0 15 -4 15 -9 0 -15 28 -8 34 8 7 18 0 34 -16 34 -7 0 -6 -6 2 -15 8
-9 9 -15 2 -15 -6 0 -13 4 -16 9 -3 4 -17 6 -31 3 -19 -3 -25 0 -25 12 0 10 4
15 9 12 5 -3 11 0 14 8 4 9 14 12 28 9 18 -5 21 -3 15 12 -6 16 -2 17 34 12
22 -3 38 -1 35 3 -3 5 0 12 7 16 7 4 10 3 5 -1 -9 -10 21 -45 39 -45 17 0 44
-40 44 -65 0 -21 -45 -73 -55 -63 -3 2 4 13 15 23 22 19 27 69 9 81 -7 4 -9 0
-5 -14 5 -15 -4 -34 -30 -69 -24 -31 -35 -40 -32 -25 4 12 2 22 -2 22 -5 0
-11 -14 -15 -30 -5 -24 -1 -38 20 -66 33 -43 26 -56 -9 -21 -18 18 -26 37 -26
62 0 42 -14 45 -34 8 -10 -19 -15 -22 -16 -11 0 18 54 68 74 68 17 0 56 43 56
62 0 18 -31 48 -51 48 -8 0 -1 -10 15 -23 38 -31 31 -49 -33 -82 -56 -28 -75
-55 -68 -94 9 -45 -22 -85 -57 -75 -13 5 -16 3 -11 -7 6 -9 4 -11 -8 -6 -13 5
-12 0 4 -28 11 -18 19 -37 18 -41 -1 -5 -1 -21 0 -36 l1 -28 114 0 114 0 7 28
c4 15 9 37 11 50 1 13 8 30 14 37 7 8 9 19 6 24 -4 5 -2 12 4 16 18 11 10 25
-15 25 -33 0 -41 22 -20 54 18 27 22 106 10 164 -10 43 -75 89 -96 67z m77
-52 c-6 -7 -56 27 -56 39 0 5 14 0 31 -12 16 -12 28 -24 25 -27z m-9 -151
c-15 -16 -27 -32 -27 -36 0 -19 43 -67 56 -62 8 3 14 1 14 -4 0 -12 -40 -13
-56 -2 -11 7 -44 69 -44 83 0 10 73 58 79 53 3 -2 -8 -17 -22 -32z m-117 -45
c0 -32 -14 -57 -32 -57 -5 0 -4 9 2 19 5 11 10 31 10 45 0 14 5 26 10 26 6 0
10 -15 10 -33z m82 -71 c25 -9 54 -13 63 -10 15 6 15 4 4 -14 -7 -11 -15 -20
-18 -20 -19 2 -24 -4 -11 -12 18 -11 6 -25 -15 -16 -11 4 -14 12 -10 26 4 11
2 20 -4 20 -6 0 -11 -9 -11 -21 0 -16 -5 -20 -25 -17 -14 2 -25 8 -25 13 1 6
8 9 16 7 8 -2 14 2 14 8 0 5 -10 10 -22 11 -13 0 -17 3 -10 6 16 6 6 23 -15
23 -9 0 -13 -6 -9 -15 3 -9 0 -15 -9 -15 -8 0 -15 -4 -15 -10 0 -5 7 -10 15
-10 8 0 15 -5 15 -11 0 -6 -12 -9 -27 -7 -21 2 -27 8 -25 22 2 11 -1 16 -10
14 -7 -3 -12 -15 -10 -26 3 -23 -21 -31 -33 -12 -3 6 -1 10 4 10 6 0 11 4 11
10 0 5 -7 7 -15 4 -9 -4 -15 0 -15 10 0 10 9 16 24 16 14 0 28 5 31 10 3 6 14
10 24 10 10 0 24 7 31 15 8 10 17 12 24 6 6 -5 32 -17 58 -25z m32 -92 c8 -3
12 -12 9 -20 -4 -11 -28 -14 -103 -14 -94 0 -119 7 -105 30 7 11 173 14 199 4z"/>
<path d="M1040 1189 c0 -5 10 -9 22 -9 12 0 18 3 14 7 -10 11 -36 12 -36 2z"/>
<path d="M1120 1190 c0 -5 5 -10 11 -10 5 0 7 5 4 10 -3 6 -8 10 -11 10 -2 0
-4 -4 -4 -10z"/>
<path d="M1180 1190 c0 -5 5 -10 11 -10 5 0 7 5 4 10 -3 6 -8 10 -11 10 -2 0
-4 -4 -4 -10z"/>
<path d="M1135 1510 c-3 -11 -12 -20 -19 -20 -7 0 -25 -10 -40 -21 -29 -23
-47 -19 -26 6 15 18 0 21 -18 3 -8 -8 -8 -15 -1 -24 7 -9 7 -19 0 -33 -6 -11
-11 -35 -11 -55 0 -41 -12 -51 -40 -36 -17 9 -20 8 -20 -10 0 -11 5 -20 10
-20 6 0 10 4 10 10 0 5 7 7 16 3 23 -9 44 23 44 66 0 47 9 59 66 90 27 14 50
34 52 44 5 24 -15 22 -23 -3z"/>
<path d="M990 1490 c0 -5 7 -10 16 -10 8 0 12 5 9 10 -3 6 -10 10 -16 10 -5 0
-9 -4 -9 -10z"/>
<path d="M295 979 c-16 -4 -24 -7 -17 -8 7 -1 12 -17 12 -45 0 -26 -5 -46 -12
-49 -7 -3 3 -6 22 -6 26 -1 31 2 22 11 -21 21 -13 38 18 38 23 0 30 -5 30 -19
0 -11 -6 -22 -12 -24 -7 -3 1 -6 17 -6 30 -1 30 -1 30 53 0 48 -3 55 -22 59
-19 3 -21 1 -17 -22 5 -24 3 -27 -22 -26 -31 2 -44 23 -23 36 20 12 8 16 -26
8z"/>
<path d="M430 978 c0 -5 4 -8 9 -8 11 0 9 -70 -3 -88 -6 -10 4 -12 45 -10 36
2 54 8 57 18 4 12 2 13 -9 3 -21 -21 -59 -16 -59 7 0 22 20 26 38 8 9 -9 12
-6 12 17 0 23 -3 26 -12 17 -18 -18 -38 -14 -38 8 0 23 38 28 59 8 10 -11 11
-10 6 4 -5 11 -21 17 -56 20 -27 1 -49 0 -49 -4z"/>
<path d="M620 980 c0 -4 3 -10 7 -13 9 -9 8 -71 -1 -85 -5 -8 3 -12 26 -11 18
0 27 3 21 6 -15 6 -17 43 -3 43 6 0 16 -11 22 -25 6 -15 20 -25 31 -25 19 0
19 1 -4 26 -16 18 -20 28 -11 31 21 8 14 42 -10 47 -53 11 -78 13 -78 6z m75
-30 c0 -8 -8 -16 -17 -18 -13 -2 -18 3 -18 18 0 15 5 20 18 18 9 -2 17 -10 17
-18z"/>
<path d="M785 982 c-17 -6 -20 -16 -20 -60 0 -51 0 -52 30 -52 21 0 26 3 16 9
-10 6 -12 23 -9 60 3 28 5 51 4 50 -1 -1 -10 -4 -21 -7z"/>
<path d="M1222 978 c-25 -12 -37 -46 -28 -76 14 -43 106 -51 106 -8 -1 20 -1
20 -15 3 -8 -11 -23 -17 -37 -15 -20 3 -23 9 -23 43 0 35 3 40 24 43 15 2 30
-3 37 -13 13 -17 27 -7 16 12 -11 17 -54 23 -80 11z"/>
<path d="M1460 978 c0 -4 5 -8 10 -8 15 0 12 -87 -2 -93 -7 -3 3 -5 22 -5 19
0 29 2 23 5 -15 6 -18 43 -3 43 5 0 17 -11 26 -25 9 -14 23 -25 31 -25 11 0
10 6 -6 28 -18 26 -18 29 -3 39 16 10 16 12 1 27 -16 17 -99 28 -99 14z m75
-28 c0 -8 -8 -16 -17 -18 -13 -2 -18 3 -18 18 0 15 5 20 18 18 9 -2 17 -10 17
-18z"/>
<path d="M1625 982 c-17 -6 -20 -16 -20 -60 l0 -53 49 3 c33 2 51 8 54 18 4
12 2 13 -9 3 -7 -7 -24 -13 -37 -13 -24 0 -24 2 -20 55 3 30 4 55 4 54 -1 -1
-10 -4 -21 -7z"/>
<path d="M1850 970 c-11 -11 -20 -31 -20 -45 0 -28 32 -65 55 -65 21 0 65 45
65 65 0 20 -44 65 -65 65 -8 0 -24 -9 -35 -20z m70 -35 c0 -36 -10 -55 -31
-55 -36 0 -48 71 -16 92 18 11 47 -11 47 -37z"/>
<path d="M146 965 c-6 -17 9 -21 19 -5 14 23 25 7 25 -34 0 -26 -5 -46 -12
-49 -7 -3 1 -6 17 -6 30 -1 30 -1 27 49 -4 47 7 65 23 40 10 -16 25 -12 19 5
-4 11 -21 15 -59 15 -38 0 -55 -4 -59 -15z"/>
<path d="M825 969 c-4 -6 -4 -13 0 -17 4 -4 10 -1 12 6 3 6 11 12 19 12 18 0
20 -86 2 -93 -7 -3 1 -6 17 -6 30 -1 30 -1 27 49 -4 50 3 61 26 38 9 -9 12 -8
12 5 0 14 -10 17 -54 17 -30 0 -58 -5 -61 -11z"/>
<path d="M956 965 c-6 -18 5 -20 21 -4 6 6 18 9 28 7 14 -2 10 -11 -20 -50
l-36 -48 54 0 c42 0 56 4 61 16 9 23 1 28 -14 9 -7 -8 -23 -15 -36 -15 -24 0
-23 1 12 50 l36 50 -50 0 c-35 0 -52 -4 -56 -15z"/>
<path d="M1347 925 l-27 -55 23 0 c18 0 19 2 7 10 -8 5 -13 10 -10 11 50 8 61
7 56 -7 -4 -10 3 -14 25 -14 26 0 28 2 17 14 -8 7 -22 32 -32 55 -11 22 -22
41 -25 41 -4 0 -19 -25 -34 -55z m32 -14 c-15 -5 -22 6 -14 19 6 9 10 9 16 -1
5 -8 4 -15 -2 -18z"/>
<path d="M1700 963 c0 -13 3 -14 12 -5 7 7 17 12 23 12 11 0 12 -70 1 -89 -5
-7 4 -11 26 -10 18 0 27 3 21 6 -19 7 -17 93 2 93 8 0 15 -4 15 -10 0 -5 4
-10 10 -10 5 0 7 7 4 15 -5 11 -21 15 -60 15 -44 0 -54 -3 -54 -17z"/>
<path d="M1965 926 c0 -44 4 -56 18 -60 9 -2 17 0 17 5 0 5 -4 9 -10 9 -5 0
-10 19 -10 43 l1 42 40 -47 c40 -47 64 -62 53 -35 -3 8 -1 32 5 55 9 41 8 42
-18 41 -14 0 -20 -3 -13 -6 6 -2 12 -19 12 -35 l0 -31 -27 36 c-16 20 -37 36
-48 37 -18 0 -20 -7 -20 -54z"/>
<path d="M1107 933 c-4 -3 -7 -10 -7 -14 0 -9 39 1 46 12 6 10 -29 12 -39 2z"/>
<path d="M761 664 c1 -31 2 -34 8 -15 6 21 8 22 20 7 19 -23 26 -20 29 14 1
17 -3 30 -9 30 -7 0 -9 -9 -6 -21 6 -21 5 -21 -19 2 l-24 22 1 -39z"/>
<path d="M837 693 c-3 -5 -4 -19 -3 -33 1 -18 7 -26 24 -28 12 -2 22 2 22 8 0
7 -7 10 -15 6 -8 -3 -15 -1 -15 4 0 5 8 11 18 13 16 4 16 5 0 6 -10 0 -18 5
-18 10 0 5 8 12 18 14 13 4 12 5 -5 6 -12 0 -24 -2 -26 -6z"/>
<path d="M890 697 c0 -2 5 -18 11 -36 l11 -32 14 27 c8 15 13 32 10 38 -2 6
-8 0 -14 -14 -7 -17 -11 -19 -11 -8 -1 14 -21 38 -21 25z"/>
<path d="M952 673 c-6 -15 -8 -31 -4 -35 5 -5 13 7 19 27 13 41 3 47 -15 8z"/>
<path d="M1023 684 c-8 -20 8 -48 30 -52 22 -5 42 35 26 54 -16 19 -48 18 -56
-2z m45 -17 c2 -10 -3 -17 -12 -17 -18 0 -29 16 -21 31 9 14 29 6 33 -14z"/>
<path d="M1100 665 c0 -22 4 -34 10 -30 6 4 8 11 5 16 -11 16 7 9 20 -8 11
-15 13 -13 11 17 -1 28 -6 36 -24 38 -19 3 -22 -1 -22 -33z m35 15 c3 -5 -1
-10 -10 -10 -9 0 -13 5 -10 10 3 6 8 10 10 10 2 0 7 -4 10 -10z"/>
<path d="M1171 668 c-1 -32 2 -38 19 -38 11 0 20 5 20 10 0 6 -6 10 -14 10 -8
0 -17 12 -19 28 -3 22 -4 20 -6 -10z"/>
<path d="M1222 668 c2 -25 8 -34 26 -36 12 -2 22 2 22 8 0 7 -7 10 -15 6 -8
-3 -15 -1 -15 4 0 5 8 11 18 13 16 4 16 5 0 6 -10 0 -18 5 -18 10 0 5 8 12 18
14 10 3 6 5 -11 6 -26 1 -28 -2 -25 -31z"/>
<path d="M1296 672 c-21 -40 -20 -45 4 -30 17 11 22 10 30 -2 16 -25 12 10 -4
39 l-14 25 -16 -32z m24 -2 c0 -5 -5 -10 -11 -10 -5 0 -7 5 -4 10 3 6 8 10 11
10 2 0 4 -4 4 -10z"/>
<path d="M1362 665 c0 -27 2 -32 5 -16 l5 25 19 -25 19 -24 -2 40 c0 27 -2 32
-5 16 l-5 -25 -19 25 -19 24 2 -40z"/>
<path d="M1434 688 c-4 -6 0 -16 9 -23 22 -16 22 -26 0 -18 -11 4 -14 3 -9 -5
9 -15 33 -15 42 -1 4 7 -4 20 -17 31 -24 19 -24 19 -1 13 13 -4 22 -2 22 4 0
15 -37 14 -46 -1z"/>
</g>
</svg>
