<?xml version="1.0" standalone="no"?>
<!DOCTYPE svg PUBLIC "-//W3C//DTD SVG 20010904//EN"
 "http://www.w3.org/TR/2001/REC-SVG-20010904/DTD/svg10.dtd">
<svg version="1.0" xmlns="http://www.w3.org/2000/svg"
 width="1818.000000pt" height="1818.000000pt" viewBox="0 0 1818.000000 1818.000000"
 preserveAspectRatio="xMidYMid meet">

<g transform="translate(0.000000,1818.000000) scale(0.100000,-0.100000)"
fill="#000000" stroke="none">
<path d="M1900 16039 c-35 -14 -69 -48 -91 -91 -18 -36 -19 -79 -19 -1317 0
-880 3 -1288 11 -1308 13 -35 54 -79 94 -101 26 -15 78 -17 425 -19 l395 -1
87 -454 c48 -249 110 -574 139 -723 29 -148 56 -276 62 -282 6 -9 38 -13 91
-13 85 0 183 -20 218 -44 17 -12 26 -11 66 7 55 25 70 25 736 2 l409 -14 61
-30 c151 -76 223 -149 251 -256 8 -32 16 -60 19 -62 2 -2 178 -8 392 -14 214
-6 405 -14 424 -19 56 -15 182 -94 227 -143 23 -25 50 -68 60 -96 l18 -51 67
0 c66 0 68 1 74 28 26 124 105 213 217 246 12 4 16 12 12 28 -3 13 -41 208
-85 433 -45 226 -116 590 -160 810 -44 220 -90 455 -103 522 l-24 122 341 3
341 3 45 25 c29 17 53 41 70 70 l25 45 0 1275 c0 701 -3 1287 -8 1302 -10 38
-65 98 -104 114 -27 12 -432 14 -2395 13 -1545 0 -2372 -4 -2388 -10z"/>
<path d="M11840 16039 c-32 -13 -77 -56 -98 -94 -16 -27 -17 -137 -20 -1285
-2 -886 1 -1270 9 -1308 11 -57 56 -112 107 -135 19 -8 131 -13 362 -14 264
-2 335 -5 333 -15 -1 -7 -50 -256 -108 -553 -250 -1271 -244 -1243 -247 -1274
-3 -23 0 -24 72 -28 83 -5 139 -25 199 -73 l39 -32 112 59 112 58 226 7 c125
3 306 7 402 7 163 0 179 -1 233 -23 l58 -24 64 30 64 30 403 9 c296 8 418 14
458 25 57 15 344 44 438 44 34 0 77 -9 119 -26 l65 -26 86 84 c48 47 106 97
129 112 36 24 43 35 52 79 6 29 36 182 66 341 31 159 94 486 140 727 47 241
85 443 85 449 0 7 123 10 378 10 228 0 392 4 414 10 48 14 94 53 118 101 20
37 20 67 20 1316 0 1221 -1 1280 -19 1318 -21 46 -54 79 -94 94 -38 15 -4741
14 -4777 0z"/>
<path d="M8115 15351 c-85 -38 -94 -57 -178 -392 -42 -167 -108 -425 -146
-574 -37 -148 -216 -848 -396 -1555 -180 -707 -342 -1342 -360 -1412 -18 -70
-30 -130 -27 -132 4 -2 68 -5 142 -5 74 -1 153 -6 175 -12 57 -15 200 -104
230 -142 50 -67 65 -115 65 -222 0 -55 3 -157 7 -227 l6 -128 143 0 143 0 3
253 c3 232 5 256 24 298 28 61 85 116 150 146 l52 24 454 -5 c544 -6 428 -6
987 0 524 5 500 8 620 -71 148 -98 163 -135 169 -427 l4 -218 122 0 123 0 5
109 c8 172 19 188 258 393 128 109 224 183 280 215 l85 48 120 5 c113 5 120 6
117 25 -3 21 -236 947 -588 2340 -361 1426 -395 1557 -409 1585 -20 39 -69 77
-113 90 -24 6 -409 10 -1132 10 -1038 0 -1097 -1 -1135 -19z"/>
<path d="M1410 11022 l0 -491 46 -32 c44 -30 48 -31 119 -24 l73 7 7 -54 c47
-363 167 -1188 271 -1866 64 -422 202 -1342 225 -1501 l12 -83 44 -28 45 -29
96 36 c53 20 189 68 302 107 l205 71 8 70 c48 394 180 1396 184 1392 2 -3 169
-807 215 -1037 l23 -114 46 -29 46 -28 284 75 c156 41 293 76 304 78 18 3 22
27 52 313 68 650 177 1559 288 2412 25 187 45 348 45 357 0 13 17 16 98 18
l97 3 3 341 2 342 -47 30 -48 31 -310 10 c-170 6 -388 14 -482 18 l-173 6 0
-371 0 -371 44 -31 c30 -20 57 -30 81 -30 l36 0 -6 -52 c-6 -60 -105 -1091
-106 -1116 -2 -39 -13 33 -99 628 -50 344 -106 731 -125 860 -19 129 -41 279
-48 333 -8 54 -16 99 -18 101 -2 1 -24 16 -49 33 l-45 31 -242 7 -241 7 -6
-53 c-3 -30 -20 -247 -36 -484 -63 -880 -132 -1728 -140 -1717 -4 4 -17 88
-29 187 -11 99 -49 397 -82 663 -34 265 -59 485 -56 488 3 3 39 9 79 12 l73 7
2 423 2 422 -52 34 -52 34 -365 16 c-201 9 -418 19 -482 23 l-118 6 0 -491z"/>
<path d="M16160 11428 c-409 -17 -438 -20 -480 -41 -27 -13 -130 -103 -262
-230 l-218 -209 0 -815 0 -815 200 -257 200 -256 197 -38 c109 -21 294 -56
411 -79 l212 -41 0 -353 c0 -195 -3 -354 -7 -354 -3 0 -116 29 -249 65 -134
36 -245 65 -248 65 -3 0 -7 82 -8 182 l-3 182 -301 62 -302 61 -51 -29 -51
-30 0 -344 0 -344 183 -258 c100 -142 189 -267 197 -278 11 -16 152 -66 537
-193 l523 -172 57 37 c54 34 118 92 336 302 l87 85 0 811 0 811 -192 276 -191
275 -381 53 c-210 29 -393 55 -408 58 l-28 6 0 472 c0 259 2 474 4 476 5 5
423 -18 471 -26 l30 -5 -3 -184 -4 -184 39 -6 c21 -3 154 -20 297 -36 l259
-30 53 31 54 30 0 390 0 390 -24 36 c-14 20 -98 134 -188 254 l-163 218 -75
-1 c-41 0 -271 -9 -510 -20z"/>
<path d="M14876 11143 c-125 -11 -153 -17 -177 -36 -28 -22 -28 -23 -28 -143
l-1 -122 63 5 63 5 -4 -38 c-5 -42 -15 -54 -46 -54 -11 0 -33 -12 -48 -27 -25
-24 -28 -34 -28 -91 l0 -64 63 7 c110 11 160 31 227 87 94 80 94 82 98 301 3
176 2 187 -15 186 -10 -1 -85 -8 -167 -16z"/>
<path d="M14105 11088 c-268 -8 -270 -8 -322 -35 l-53 -28 0 -301 c0 -339 -7
-314 81 -314 l49 0 0 -377 c0 -207 -2 -374 -4 -372 -2 2 -48 159 -101 349
-166 594 -296 1045 -304 1052 -4 5 -155 4 -337 -1 l-330 -8 -47 -27 -47 -28 0
-274 0 -274 76 0 77 0 -6 -642 c-4 -354 -7 -808 -7 -1010 0 -368 0 -368 -21
-368 -12 0 -43 -12 -70 -27 l-49 -26 2 -196 3 -196 125 -22 c69 -12 235 -40
370 -63 l245 -42 48 27 47 27 2 164 c1 90 2 185 3 212 l0 47 -65 10 -65 11 -2
374 c-1 233 2 367 7 355 5 -11 96 -306 201 -655 105 -349 196 -640 202 -646 7
-6 120 -38 253 -71 l240 -60 51 25 50 25 6 675 c4 371 7 944 7 1272 0 616 4
751 24 744 6 -2 35 10 64 26 l52 30 0 325 0 325 -92 -2 c-51 0 -214 -5 -363
-10z"/>
<path d="M11554 11030 l-221 -5 -43 -29 c-25 -16 -115 -89 -201 -162 l-156
-134 -6 -481 c-4 -265 -7 -771 -7 -1123 l0 -641 160 -171 160 -171 107 -12
c60 -6 227 -23 373 -36 146 -14 301 -30 344 -34 79 -9 80 -9 130 24 28 18 119
98 202 178 l152 147 7 1197 c7 1091 6 1197 -9 1208 -8 7 -48 41 -88 77 -40 36
-103 91 -139 122 l-66 56 -239 -2 c-132 -1 -338 -5 -460 -8z m357 -1520 c-2
-509 -5 -927 -7 -929 -2 -2 -68 3 -146 11 l-142 16 -33 36 -33 36 0 880 0 880
183 -2 182 -3 -4 -925z"/>
<path d="M4870 11022 c0 -9 -152 -1171 -310 -2375 -21 -163 -41 -301 -44 -306
-3 -5 -33 -12 -66 -16 l-60 -7 0 -259 0 -259 40 -26 40 -26 397 76 c219 42
401 76 406 76 4 0 7 101 7 224 l0 225 -35 27 c-30 23 -42 26 -81 21 l-46 -5 6
42 c3 22 10 100 16 171 6 72 13 139 15 151 4 20 13 22 147 29 79 5 167 9 197
9 l54 1 33 -145 c45 -197 47 -185 -28 -199 -35 -7 -71 -14 -80 -17 -16 -5 -18
-24 -18 -218 l0 -212 42 -28 42 -27 270 36 c149 20 325 43 391 51 183 23 166
-1 165 229 l-1 194 -42 31 c-35 26 -48 30 -79 25 -33 -6 -38 -4 -42 17 -9 38
-314 1444 -366 1688 -139 645 -161 744 -163 745 -1 0 -20 12 -42 27 l-41 25
-362 8 c-251 5 -362 4 -362 -3z m505 -1476 c30 -148 53 -271 51 -273 -4 -4
-179 -21 -184 -18 -1 1 5 53 13 116 8 63 25 192 37 288 12 96 23 170 25 165 2
-5 28 -130 58 -278z"/>
<path d="M6410 10737 l0 -265 44 -26 c26 -15 60 -26 80 -26 l36 0 -2 -937 -3
-938 -50 -5 -50 -5 -3 -197 -2 -198 45 -28 c43 -27 47 -27 137 -21 136 11
1070 78 1318 95 47 3 94 8 105 9 11 2 32 4 48 4 l27 1 0 293 0 292 -48 26 -47
26 -185 -8 c-102 -4 -220 -8 -262 -8 l-77 -1 -3 -102 -3 -103 -140 -12 c-77
-6 -152 -12 -167 -12 l-28 -1 0 915 0 915 75 0 75 0 0 258 0 257 -43 26 -43
26 -417 7 -417 8 0 -265z"/>
<path d="M8210 10731 l0 -248 40 -27 c24 -16 53 -26 75 -26 l35 0 0 -909 0
-908 -37 -7 c-21 -3 -55 -6 -75 -6 l-38 0 0 -167 0 -168 44 -28 44 -28 344 6
c188 3 371 8 406 11 l62 6 0 164 0 164 -42 30 c-35 25 -50 30 -101 30 l-60 0
6 146 6 146 102 159 c56 88 103 159 104 157 6 -7 305 -595 305 -601 0 -3 -26
-7 -57 -9 l-58 -3 -3 -166 -2 -166 39 -26 c46 -30 96 -34 531 -39 l235 -3 2
167 2 168 -42 29 c-24 16 -56 31 -71 33 -26 3 -46 39 -297 538 -148 294 -269
540 -269 547 0 13 49 89 316 496 l163 247 81 0 80 0 0 244 0 243 -40 27 -40
26 -392 -2 -393 -3 0 -245 0 -245 38 -3 c31 -3 37 -7 37 -26 0 -14 -80 -146
-186 -307 -102 -156 -187 -286 -190 -288 -2 -2 -4 124 -4 282 l0 286 68 3 67
3 3 242 3 241 -45 31 -45 31 -375 0 -376 0 0 -249z"/>
<path d="M10191 9901 l-74 -148 -161 -23 c-89 -12 -164 -24 -168 -26 -3 -2 48
-57 114 -122 l120 -118 -26 -156 c-14 -86 -26 -161 -26 -167 0 -6 68 25 151
68 l151 78 154 -79 c140 -72 154 -78 150 -56 -3 12 -17 88 -31 168 l-26 145
123 117 c68 64 121 118 118 121 -3 2 -77 14 -165 27 -117 16 -164 26 -173 38
-8 10 -43 77 -79 150 -36 72 -68 132 -72 132 -4 0 -40 -67 -80 -149z"/>
<path d="M8700 7977 c-3 -2 -108 -8 -235 -11 -126 -4 -243 -9 -260 -11 -16 -2
-99 -6 -183 -10 -84 -3 -163 -8 -175 -10 -12 -2 -67 -6 -122 -10 -234 -15
-870 -76 -1040 -100 -16 -2 -57 -7 -90 -10 -33 -4 -186 -24 -340 -46 -923
-131 -1834 -320 -2715 -565 -258 -72 -648 -189 -655 -196 -3 -3 -4 -376 -3
-830 l3 -825 125 39 c1708 526 3544 837 5400 916 226 9 1462 9 1735 0 449 -16
1227 -75 1612 -123 1112 -138 1907 -285 2852 -526 363 -92 971 -265 1077 -306
12 -4 14 121 14 825 0 782 -1 831 -17 836 -1188 362 -2250 600 -3398 760 -427
60 -1101 131 -1430 151 -55 3 -113 8 -130 10 -16 2 -136 9 -265 15 -129 6
-260 13 -290 16 -75 6 -1464 17 -1470 11z m1375 -628 c32 -6 76 -17 96 -26
l37 -14 -16 -42 c-9 -23 -16 -43 -17 -44 0 -1 -30 7 -65 19 -81 26 -239 30
-285 8 -38 -19 -44 -47 -13 -59 13 -4 79 -12 148 -16 198 -11 265 -45 265
-135 0 -51 -29 -89 -91 -120 -45 -23 -60 -25 -179 -25 -96 0 -144 5 -185 17
-83 27 -84 28 -64 77 14 36 20 42 38 36 140 -42 189 -49 263 -38 53 8 82 17
96 32 20 20 20 22 5 38 -14 13 -52 19 -171 29 -163 12 -199 23 -236 70 -27 35
-28 93 -1 127 57 72 198 97 375 66z m-801 -12 c59 -39 70 -134 21 -183 -22
-22 -23 -23 -4 -40 11 -10 24 -34 30 -55 10 -31 9 -43 -7 -76 -33 -66 -56 -72
-322 -75 l-232 -3 0 222 0 222 58 3 c31 2 140 3 242 3 163 0 189 -2 214 -18z
m287 -169 c1 -106 2 -206 2 -223 1 -30 1 -30 -56 -33 l-57 -3 0 226 0 225 55
0 55 0 1 -192z m-1373 151 c29 -6 56 -17 58 -24 3 -7 -2 -29 -10 -50 -12 -28
-20 -36 -33 -31 -9 4 -50 12 -90 18 -119 19 -273 -13 -273 -57 0 -26 24 -29
185 -30 212 0 245 -16 245 -119 0 -40 -5 -51 -39 -85 -55 -55 -113 -73 -257
-78 -94 -4 -134 -2 -177 11 -32 9 -57 21 -57 26 0 16 33 80 41 80 4 0 38 -7
76 -16 113 -26 278 -1 303 46 20 37 -12 45 -179 46 -91 0 -167 5 -183 12 -46
19 -68 51 -68 100 0 39 5 50 39 83 81 76 239 102 419 68z m2422 6 c80 -3 164
-8 188 -12 l42 -5 0 -43 c0 -24 -4 -45 -10 -47 -5 -1 -49 -1 -96 2 -47 3 -90
2 -95 -1 -6 -3 -9 -75 -7 -172 l3 -167 -57 0 -58 0 0 175 0 175 -32 2 c-18 0
-37 2 -43 3 -5 2 -36 3 -67 4 l-58 1 0 51 0 51 73 -6 c39 -3 137 -8 217 -11z
m-2980 -74 l0 -49 -62 -6 c-35 -3 -79 -7 -98 -9 l-35 -2 -3 -177 -2 -176 -55
-4 -55 -3 0 174 0 174 -100 -7 -100 -7 0 49 0 49 213 17 c204 17 225 19 275
24 20 2 22 -2 22 -47z m3585 35 c94 -8 181 -19 195 -24 65 -25 108 -107 94
-179 -7 -36 -44 -85 -73 -94 -10 -4 -6 -19 16 -64 53 -106 53 -105 -12 -105
l-57 0 -36 80 c-41 91 -32 86 -174 95 l-98 6 0 -75 0 -76 -34 0 c-19 0 -45 4
-58 9 l-23 9 3 216 3 216 42 0 c23 0 119 -7 212 -14z m715 -66 c261 -28 240
-21 240 -78 l0 -48 -197 23 c-109 12 -204 22 -210 22 -8 1 -13 -13 -13 -38 l0
-39 53 -5 c28 -4 102 -11 162 -17 164 -17 155 -13 155 -65 0 -43 -1 -44 -27
-40 -34 6 -306 35 -328 35 -11 0 -15 -11 -15 -39 0 -46 -16 -41 225 -66 231
-24 215 -18 215 -76 0 -47 -1 -48 -27 -44 -28 5 -186 22 -415 46 l-118 12 0
224 0 224 53 -5 c28 -4 140 -15 247 -26z m-4985 -6 c39 -18 65 -66 65 -117 0
-50 -15 -85 -52 -119 l-32 -29 37 -75 c41 -82 41 -81 -37 -86 l-48 -3 -35 70
c-20 38 -36 71 -37 72 -3 3 -183 -16 -214 -23 -22 -4 -23 -9 -21 -77 3 -79 -1
-84 -78 -86 l-33 -1 0 225 0 225 23 1 c12 0 92 8 177 19 198 23 244 24 285 4z
m-708 -92 c79 -41 119 -125 102 -216 -11 -60 -29 -93 -76 -137 -71 -68 -160
-100 -277 -101 -148 0 -236 75 -236 200 0 120 96 226 240 267 76 21 192 15
247 -13z m6385 12 c54 -7 42 10 203 -299 37 -71 71 -134 75 -140 4 -5 10 -19
14 -31 6 -20 5 -21 -51 -12 -31 5 -58 10 -58 11 -31 57 -59 97 -68 97 -7 0
-75 9 -152 20 l-140 20 -17 -22 c-10 -13 -20 -31 -24 -40 -6 -19 -49 -22 -107
-9 l-28 6 128 208 c119 192 130 207 153 203 14 -3 46 -8 72 -12z m493 -77 c2
-1 5 -61 7 -132 6 -134 15 -171 55 -207 50 -46 158 -63 202 -32 40 28 51 73
51 204 l0 121 38 -6 c78 -14 72 -2 72 -153 0 -118 -3 -141 -21 -180 -31 -63
-82 -93 -168 -100 -129 -9 -245 51 -305 158 -29 52 -31 61 -34 187 -3 73 -2
139 1 147 4 11 15 12 53 5 26 -5 48 -10 49 -12z m-7517 -21 c74 -38 75 -164 2
-230 -44 -40 -63 -45 -247 -77 l-133 -22 0 -78 c0 -69 -2 -79 -17 -79 -10 0
-35 -3 -55 -6 l-38 -7 0 222 c0 168 3 223 13 226 29 11 356 63 400 64 26 1 60
-5 75 -13z m8119 -78 c63 -12 63 -12 139 -100 l75 -89 74 61 73 60 73 -15 c40
-9 74 -17 75 -18 1 -1 -47 -40 -106 -87 -60 -47 -109 -87 -110 -90 0 -3 49
-63 109 -135 60 -71 108 -131 107 -133 -2 -1 -36 5 -75 14 l-72 16 -72 84
c-39 46 -75 84 -79 84 -5 0 -40 -25 -77 -55 l-69 -56 -71 12 c-39 7 -71 15
-71 19 0 4 44 43 98 85 53 43 101 82 106 86 5 4 -41 67 -103 138 -61 72 -106
131 -100 131 7 0 40 -5 76 -12z m-8778 -24 c34 -7 38 -19 20 -68 l-11 -31
-107 0 c-153 -1 -271 -42 -271 -96 0 -24 5 -24 175 1 177 27 221 19 245 -45
49 -129 -153 -259 -402 -259 -118 -1 -127 5 -103 67 l16 44 57 -9 c140 -23
377 61 324 114 -9 9 -32 9 -110 -1 -239 -33 -292 -26 -310 42 -12 46 -5 70 34
116 78 91 300 153 443 125z"/>
<path d="M8872 7218 l4 -43 94 -2 c52 0 126 1 163 4 58 5 70 9 77 27 4 12 4
29 -2 39 -8 15 -27 17 -174 17 l-165 0 3 -42z"/>
<path d="M8874 7076 c-3 -7 -3 -26 -1 -42 l4 -29 137 -1 c76 0 149 1 162 4 32
6 48 35 34 62 -10 19 -21 20 -171 20 -125 0 -161 -3 -165 -14z"/>
<path d="M11070 7151 l0 -49 48 -6 c26 -3 91 -8 145 -12 106 -7 127 0 127 42
0 37 -35 51 -145 59 -55 3 -117 8 -137 11 l-38 5 0 -50z"/>
<path d="M6691 7114 c-57 -7 -105 -15 -107 -17 -8 -7 -12 -74 -6 -84 10 -15
271 15 294 34 23 21 29 51 11 68 -17 18 -51 17 -192 -1z"/>
<path d="M5970 7023 c-65 -33 -100 -80 -100 -134 0 -84 47 -124 146 -123 134
2 231 96 203 197 -16 58 -50 81 -127 85 -58 3 -74 0 -122 -25z"/>
<path d="M12548 6972 c-26 -42 -43 -78 -39 -80 5 -2 48 -9 95 -16 59 -8 86 -9
84 -2 -4 14 -87 176 -91 176 -1 0 -23 -35 -49 -78z"/>
<path d="M5345 6926 l-120 -21 -3 -47 c-2 -32 1 -48 9 -48 28 0 256 41 276 50
27 11 40 54 23 75 -16 19 -37 18 -185 -9z"/>
<path d="M1268 6962 c-334 -92 -609 -169 -612 -172 -3 -3 123 -148 279 -323
l284 -318 -19 -52 c-10 -29 -99 -279 -199 -556 -100 -277 -180 -506 -177 -508
2 -3 423 141 935 319 l931 323 0 598 c0 565 -1 598 -17 593 -10 -3 -99 -28
-198 -55 -464 -128 -448 -126 -485 -86 -20 21 -27 52 -51 212 -16 104 -29 189
-29 191 0 8 -97 -17 -642 -166z"/>
<path d="M16980 6849 c-190 -152 -233 -178 -297 -179 -27 0 -166 42 -409 125
-203 69 -374 125 -381 125 -11 0 -13 -118 -11 -622 l3 -623 954 -323 c524
-177 956 -320 959 -318 4 4 -218 629 -368 1037 l-29 77 255 315 c140 174 254
320 254 324 0 9 -715 204 -740 203 -8 -1 -94 -64 -190 -141z"/>
<path d="M8550 6019 c-1442 -65 -2514 -200 -3815 -480 -416 -90 -523 -118
-519 -137 5 -21 120 -617 140 -727 27 -146 114 -599 129 -670 8 -38 35 -178
60 -310 45 -234 94 -488 196 -1020 27 -143 55 -276 61 -295 14 -46 53 -88 103
-111 38 -18 101 -19 1525 -19 991 0 1497 4 1522 10 45 13 93 52 114 91 8 16
84 296 169 622 486 1873 784 3018 791 3040 5 16 -6 17 -148 16 -84 -1 -232 -6
-328 -10z"/>
<path d="M9495 6003 c30 -124 911 -3534 926 -3588 24 -82 72 -137 134 -154 54
-15 2973 -16 3027 -1 45 13 93 52 114 91 16 31 24 72 128 609 36 184 90 463
120 620 30 157 110 566 176 910 66 344 134 696 151 783 17 87 29 160 27 161
-5 5 -345 82 -598 135 -992 210 -2016 351 -3030 416 -321 21 -886 45 -1049 45
l-133 0 7 -27z"/>
</g>
</svg>
