<?xml version="1.0" standalone="no"?>
<!DOCTYPE svg PUBLIC "-//W3C//DTD SVG 20010904//EN"
 "http://www.w3.org/TR/2001/REC-SVG-20010904/DTD/svg10.dtd">
<svg version="1.0" xmlns="http://www.w3.org/2000/svg"
 width="360.000000pt" height="140.000000pt" viewBox="0 0 360.000000 140.000000"
 preserveAspectRatio="xMidYMid meet">

<g transform="translate(0.000000,140.000000) scale(0.100000,-0.100000)"
fill="#000000" stroke="none">
<path d="M212 1243 c3 -93 4 -98 26 -101 12 -2 22 -9 22 -16 0 -12 32 -231 74
-515 14 -90 27 -166 30 -169 3 -3 33 3 66 13 68 21 64 12 80 155 6 52 14 109
17 125 6 28 7 26 19 -25 6 -30 17 -81 24 -113 6 -32 18 -61 25 -63 7 -3 37 2
67 11 l55 16 7 77 c8 84 52 447 61 500 4 23 11 32 25 32 18 0 20 7 20 69 0 54
-4 70 -16 75 -9 3 -56 6 -105 6 l-89 0 0 -70 c0 -56 3 -72 16 -77 14 -5 15
-18 9 -97 -11 -158 -17 -152 -47 48 -17 116 -32 193 -40 198 -7 4 -32 8 -54 8
l-41 0 -6 -47 c-3 -27 -11 -123 -18 -215 -7 -92 -15 -166 -18 -163 -5 6 -30
185 -31 223 0 13 6 22 15 22 12 0 15 16 15 84 0 47 -3 87 -7 89 -5 3 -52 8
-106 12 l-98 7 3 -99z"/>
<path d="M3098 1323 c-61 -4 -70 -7 -112 -44 l-46 -41 0 -167 0 -168 36 -46
c40 -51 40 -51 137 -68 l67 -11 0 -74 c0 -54 -3 -72 -12 -69 -7 2 -32 9 -55
15 -40 10 -43 13 -43 45 0 19 -3 36 -7 38 -5 3 -34 8 -65 12 l-58 7 0 -73 c0
-67 3 -76 36 -125 36 -52 39 -54 141 -88 l104 -35 45 41 44 41 0 165 0 165
-40 53 -39 52 -76 7 -75 7 0 100 0 101 31 -7 c17 -3 40 -6 50 -6 15 0 19 -7
19 -34 0 -38 9 -44 70 -46 62 -3 60 -6 60 81 0 78 -2 84 -36 130 -32 44 -39
49 -72 47 -21 -1 -67 -3 -104 -5z"/>
<path d="M2843 1263 c-20 -7 -16 -53 4 -53 15 0 15 -1 0 -18 -22 -24 -21 -32
1 -32 33 1 52 25 52 69 0 36 -3 41 -22 40 -13 0 -29 -3 -35 -6z"/>
<path d="M2688 1253 l-38 -4 0 -59 c0 -32 5 -60 10 -62 7 -2 10 -32 8 -78 l-3
-75 -23 85 c-13 47 -30 109 -38 138 l-16 53 -71 -3 -72 -3 -3 -57 c-2 -47 0
-58 13 -58 22 0 23 -395 0 -404 -10 -3 -15 -19 -15 -44 l0 -38 72 -12 c40 -6
76 -9 80 -6 12 7 10 84 -2 84 -6 0 -10 30 -9 73 l1 72 18 -55 c11 -30 28 -87
40 -126 l21 -71 50 -11 c28 -7 55 -10 60 -6 5 3 9 122 9 270 0 226 2 265 15
270 11 5 15 22 15 70 l0 64 -42 -2 c-24 -1 -60 -3 -80 -5z"/>
<path d="M2242 1241 c-70 -5 -87 -10 -117 -34 l-35 -28 0 -222 0 -223 33 -31
c27 -27 42 -33 97 -38 36 -3 75 -8 87 -11 16 -3 35 7 63 32 l40 36 0 238 0
238 -31 26 c-17 14 -36 25 -42 24 -7 -1 -49 -4 -95 -7z m48 -296 l0 -185 -28
0 c-49 0 -52 10 -52 197 l0 173 40 0 40 0 0 -185z"/>
<path d="M886 1183 c-25 -229 -61 -459 -73 -469 -14 -12 -19 -114 -5 -114 12
0 124 20 145 26 24 7 25 94 1 94 -13 0 -15 7 -11 36 7 44 4 40 49 48 35 6 37
5 43 -25 6 -25 3 -36 -9 -45 -12 -9 -16 -23 -14 -51 l3 -38 45 2 c25 1 64 5
88 8 41 6 42 7 42 47 0 30 -4 41 -18 45 -14 3 -25 36 -51 161 -18 86 -42 196
-53 245 l-20 87 -78 0 -77 0 -7 -57z m113 -266 c1 -22 -3 -28 -16 -25 -14 3
-17 12 -14 48 1 25 6 49 9 55 7 11 19 -34 21 -78z"/>
<path d="M1200 1185 c0 -42 3 -55 15 -55 13 0 15 -28 15 -190 0 -120 -4 -190
-10 -190 -5 0 -10 -19 -10 -41 l0 -42 128 7 c70 4 144 10 165 13 l38 6 -3 56
-3 56 -57 3 c-52 3 -58 1 -58 -16 0 -18 -24 -31 -57 -32 -10 0 -13 44 -13 185
0 158 2 185 15 185 11 0 15 12 15 49 0 59 -4 61 -106 61 l-74 0 0 -55z"/>
<path d="M1559 1233 c0 -2 -1 -24 -1 -49 -1 -33 4 -49 16 -56 14 -8 16 -32 16
-183 0 -157 -2 -174 -17 -179 -13 -4 -18 -16 -17 -38 l1 -33 86 -3 87 -3 0 37
c0 27 -5 37 -20 41 -27 7 -26 46 2 91 l21 35 30 -59 c19 -37 25 -60 18 -62
-17 -6 -14 -69 5 -76 9 -3 45 -6 80 -6 l64 0 0 34 c0 21 -6 36 -15 40 -8 3
-39 54 -68 113 l-55 108 50 73 c27 39 55 72 63 72 11 0 15 13 15 49 0 27 -4
51 -10 53 -5 2 -43 2 -85 0 l-75 -4 0 -43 c0 -24 5 -45 11 -47 7 -2 -3 -27
-26 -61 -21 -31 -39 -57 -41 -57 -2 0 -4 25 -4 55 0 43 3 55 16 55 12 0 14 10
12 48 l-3 47 -78 5 c-42 3 -77 4 -78 3z"/>
<path d="M1942 1015 c-8 -16 -20 -25 -35 -25 -35 0 -40 -11 -16 -36 15 -16 20
-31 17 -49 -5 -21 -2 -25 11 -19 9 4 27 8 41 8 14 0 32 -4 41 -8 13 -6 16 -2
11 19 -3 18 2 33 17 49 24 25 19 36 -16 36 -15 0 -27 9 -35 25 -6 14 -14 25
-18 25 -4 0 -12 -11 -18 -25z"/>
<path d="M1445 629 c-304 -25 -615 -81 -872 -158 l-73 -22 0 -161 0 -160 23 6
c791 232 1605 242 2371 31 70 -19 130 -35 132 -35 2 0 4 72 4 159 l0 159 -47
16 c-166 54 -478 118 -713 147 -190 23 -643 34 -825 18z m96 -119 c5 0 9 -4 9
-10 0 -5 -19 -11 -42 -11 l-43 -2 40 -6 c46 -7 59 -33 25 -51 -25 -13 -76 -10
-72 5 2 6 14 9 27 7 14 -2 30 0 37 5 8 5 -1 10 -27 13 -49 6 -60 33 -18 48 15
6 34 9 41 6 8 -2 18 -4 23 -4z m230 0 c7 -69 -1 -80 -57 -80 l-44 0 0 45 0 45
50 0 c28 0 50 -4 51 -10z m59 -35 c0 -33 -4 -45 -15 -45 -11 0 -15 12 -15 45
0 33 4 45 15 45 11 0 15 -12 15 -45z m117 28 c3 -9 -6 -10 -33 -6 -27 4 -35 3
-30 -5 4 -7 20 -12 36 -12 30 0 45 -21 27 -39 -16 -16 -87 -14 -87 2 0 9 12
12 38 10 l37 -2 -33 8 c-46 12 -59 26 -42 46 15 19 81 17 87 -2z m94 7 c16 0
29 -4 29 -10 0 -5 -6 -10 -14 -10 -9 0 -16 -12 -18 -32 -2 -18 -7 -33 -13 -33
-5 0 -11 15 -13 33 -2 20 -9 32 -18 32 -8 0 -14 7 -14 16 0 11 5 14 16 10 9
-3 29 -6 45 -6z m-611 -11 c0 -6 -9 -13 -20 -16 -14 -4 -20 -14 -20 -34 0 -16
-4 -29 -10 -29 -5 0 -10 14 -10 30 0 23 -4 30 -20 30 -33 0 -23 18 13 23 61 7
67 7 67 -4z m740 2 c21 -6 25 -13 26 -49 1 -45 -9 -54 -26 -22 -12 23 -50 27
-50 5 0 -8 -4 -15 -10 -15 -5 0 -10 20 -10 45 0 49 9 53 70 36z m-865 -48 c-5
-10 -7 -24 -6 -30 2 -15 -15 -17 -24 -3 -10 16 -45 12 -45 -5 0 -8 -7 -15 -16
-15 -12 0 -14 9 -12 43 3 41 4 42 43 47 47 7 72 -9 60 -37z m1006 37 c39 0 17
-20 -23 -22 l-43 -1 38 -4 c20 -2 37 -8 37 -14 0 -5 -17 -9 -37 -10 l-38 -1
43 -10 c53 -12 57 -33 5 -24 -21 3 -44 6 -50 6 -9 0 -13 16 -13 46 l0 47 31
-7 c17 -3 40 -6 50 -6z m-1137 -32 c13 -22 0 -48 -34 -65 -32 -16 -64 -2 -68
30 -6 48 76 76 102 35z m1275 -24 c13 -25 20 -48 16 -52 -3 -3 -9 -1 -14 6
-11 18 -71 28 -71 11 0 -10 -3 -10 -11 -2 -14 14 24 83 45 83 7 0 23 -21 35
-46z m73 -9 c2 -22 9 -31 26 -33 19 -3 22 1 22 27 0 21 5 31 15 31 17 0 20
-32 5 -61 -12 -22 -59 -26 -78 -7 -7 7 -12 30 -12 52 0 46 17 39 22 -9z
m-1477 25 c11 -18 -15 -50 -40 -50 -14 0 -29 -8 -35 -20 -18 -33 -30 -23 -30
24 0 38 3 45 23 49 42 8 76 7 82 -3z m-135 -26 c0 -8 -4 -13 -9 -10 -5 4 -20
2 -33 -3 -21 -9 -19 -10 15 -10 43 -1 50 -21 15 -45 -25 -18 -78 -22 -78 -6 0
6 12 10 28 10 15 0 34 5 42 10 11 7 3 10 -28 10 -36 0 -43 3 -40 17 6 33 88
59 88 27z m1748 0 c8 -13 13 -14 31 -4 29 15 39 5 18 -18 -15 -16 -15 -20 -1
-40 18 -26 -2 -32 -21 -6 -10 14 -15 14 -33 3 -26 -16 -44 -2 -19 15 21 16 21
25 0 48 -15 16 -15 18 0 18 9 0 20 -7 25 -16z"/>
<path d="M1695 490 c3 -5 17 -10 31 -10 13 0 24 5 24 10 0 6 -14 10 -31 10
-17 0 -28 -4 -24 -10z"/>
<path d="M1695 460 c-4 -6 7 -10 24 -10 17 0 31 5 31 10 0 6 -11 10 -24 10
-14 0 -28 -4 -31 -10z"/>
<path d="M2133 473 c9 -2 25 -2 35 0 9 3 1 5 -18 5 -19 0 -27 -2 -17 -5z"/>
<path d="M1230 460 c0 -12 8 -12 35 0 18 8 17 9 -7 9 -16 1 -28 -3 -28 -9z"/>
<path d="M1100 445 c-9 -11 -10 -19 -3 -26 17 -17 48 -6 48 16 0 25 -28 31
-45 10z"/>
<path d="M2405 440 c-3 -5 1 -10 10 -10 9 0 13 5 10 10 -3 6 -8 10 -10 10 -2
0 -7 -4 -10 -10z"/>
<path d="M980 430 c-12 -8 -9 -10 13 -10 15 0 27 5 27 10 0 13 -20 13 -40 0z"/>
<path d="M173 438 l-112 -31 54 -61 c30 -34 55 -64 55 -68 0 -4 -16 -51 -35
-104 -19 -53 -35 -100 -35 -104 0 -4 80 21 178 55 l177 62 3 118 c2 92 0 116
-10 113 -7 -3 -37 -11 -66 -19 -60 -15 -72 -8 -72 44 0 33 3 33 -137 -5z"/>
<path d="M3315 440 c-2 -4 -22 -19 -44 -34 l-40 -28 -68 22 c-37 13 -74 25
-81 28 -10 3 -12 -22 -10 -118 l3 -123 187 -63 186 -62 -24 67 c-14 36 -32 85
-41 108 l-15 42 50 64 51 64 -75 20 c-41 11 -77 17 -79 13z"/>
<path d="M3520 75 c-7 -9 -11 -17 -9 -20 3 -2 10 5 17 15 14 24 10 26 -8 5z"/>
<path d="M3566 77 c3 -10 9 -15 12 -12 3 3 0 11 -7 18 -10 9 -11 8 -5 -6z"/>
<path d="M3556 35 c-11 -8 -15 -15 -9 -15 6 0 16 7 23 15 16 19 11 19 -14 0z"/>
</g>
</svg>
